{
.appVersion = "3260";
.formatVersion = 3;
DisplayStrings = (
"🍓",
"🌱"
);
axes = (
{
name = Weight;
tag = wght;
}
);
classes = (
{
automatic = 1;

glyphs = (
{
glyphname = A;
kernLeft = A;
kernRight = A;
lastChange = "2025-01-01 08:35:06 +0000";
layers = (
{
anchors = (
{
name = ogonek;
pos = (543,29);
},
{
name = top;
pos = (291,712);
}
);
layerId = m01;
shapes = (
{
closed = 1;
nodes = (
(81,0,l),
(321,700,l),
(259,700,l),
(10,0,l)
);
},
{
closed = 1;
nodes = (
(449,206,l),
(449,262,l),
(128,262,l),
(128,206,l)
);
},
{
closed = 1;
nodes = (
(570,0,l),
(321,700,l),
(263,700,l),
(506,0,l)
);
}
);
width = 580;
},
{
anchors = (
{
name = ogonek;
pos = (552,34);
},
{
name = top;
pos = (298,712);
}
);
layerId = m002;
shapes = (
{
closed = 1;
nodes = (
(104,0,l),
(339,700,l),
(253,700,l),
(8,0,l)
);
},
{
closed = 1;
nodes = (
(455,195,l),
(455,275,l),
(134,275,l),
(134,195,l)
);
},
{
closed = 1;
nodes = (
(583,0,l),
(339,700,l),
(259,700,l),
(495,0,l)
);
}
);
width = 591;
},
{
anchors = (
{
name = ogonek;
pos = (621,41);
},
{
name = top;
pos = (336,712);
}
);
layerId = m003;
shapes = (
{
closed = 1;
nodes = (
(163,0,l),
(400,700,l),
(250,700,l),
(5,0,l)
);
},
{
closed = 1;
nodes = (
(501,161,l),
(501,287,l),
(179,287,l),
(179,161,l)
);
},
{
closed = 1;
nodes = (
(664,0,l),
(420,700,l),
(282,700,l),
(512,0,l)
);
}
);
width = 669;
}
);
unicode = 65;
},
{
glyphname = AE;
kernLeft = A;
lastChange = "2024-11-22 03:56:55 +0000";
layers = (
{
anchors = (
{
name = top;
pos = (594,701);
}
);
layerId = m01;
shapes = (
{
closed = 1;
nodes = (
(66,0,l),
(437,700,l),
(375,700,l),
(-5,0,l)
);
},
{
closed = 1;
nodes = (
(415,190,l),
(415,246,l),
(161,246,l),
(161,190,l)
);
},
{
closed = 1;
nodes = (
(807,0,l),
(807,56,l),
(473,56,l),
(473,332,l),
(745,332,l),
(745,388,l),
(473,388,l),
(473,644,l),
(807,644,l),
(807,700,l),
(409,700,l),
(409,0,l)
);
}
);
width = 867;
},
{
anchors = (
{
name = top;
pos = (614,700);
}
);
layerId = m002;
shapes = (
{
closed = 1;
nodes = (
(104,0,l),
(470,700,l),
(384,700,l),
(8,0,l)
);
},
{
closed = 1;
nodes = (
(469,169,l),
(469,249,l),
(185,249,l),
(185,169,l)
);
},
{
closed = 1;
nodes = (
(838,0,l),
(838,80,l),
(515,80,l),
(515,320,l),
(777,320,l),
(777,398,l),
(515,398,l),
(515,620,l),
(838,620,l),
(838,700,l),
(427,700,l),
(427,0,l)
);
}
);
width = 896;
},
{
anchors = (
{
name = top;
pos = (660,700);
}
);
layerId = m003;
shapes = (
{
closed = 1;
nodes = (
(163,0,l),
(534,700,l),
(384,700,l),
(5,0,l)
);
},
{
closed = 1;
nodes = (
(474,142,l),
(474,268,l),
(183,268,l),
(183,142,l)
);
},
{
closed = 1;
nodes = (
(925,0,l),
(925,126,l),
(614,126,l),
(614,297,l),
(874,297,l),
(874,423,l),
(614,423,l),
(614,574,l),
(925,574,l),
(925,700,l),
(468,700,l),
(468,0,l)
);
}
);
width = 967;
}
);
unicode = 198;
},
{
glyphname = B;
kernLeft = B;
kernRight = B;
lastChange = "2025-01-01 03:25:00 +0000";
layers = (
{
layerId = m01;
shapes = (
{
closed = 1;
nodes = (
(330,0,ls),
(490,0,o),
(567,72,o),
(567,202,cs),
(567,288,o),
(519,343,o),
(425,365,c),
(484,385,o),
(528,438,o),
(528,526,cs),
(528,642,o),
(451,701,o),
(319,701,cs),
(100,701,l),
(100,0,l)
);
},
{
closed = 1;
nodes = (
(160,330,l),
(160,330,o),
(349,330,o),
(349,330,cs),
(447,330,o),
(505,277,o),
(505,202,cs),
(505,122,o),
(451,56,o),
(340,56,cs),
(160,56,l)
);
},
{
closed = 1;
nodes = (
(160,645,l),
(160,645,o),
(314,645,o),
(314,645,cs),
(421,645,o),
(466,595,o),
(466,525,cs),
(466,439,o),
(412,386,o),
(315,386,cs),
(160,386,l)
);
}
);
width = 618;
},
{
layerId = m002;
shapes = (
{
closed = 1;
nodes = (
(353,0,ls),
(518,0,o),
(597,73,o),
(597,200,cs),
(597,287,o),
(549,344,o),
(455,366,c),
(514,384,o),
(558,424,o),
(558,521,cs),
(558,637,o),
(482,701,o),
(345,701,cs),
(109,701,l),
(109,0,l)
);
},
{
closed = 1;
nodes = (
(197,319,l),
(197,319,o),
(363,319,o),
(363,319,cs),
(455,319,o),
(505,267,o),
(505,200,cs),
(505,120,o),
(450,80,o),
(353,80,cs),
(197,80,l)
);
},
{
closed = 1;
nodes = (
(197,621,l),
(197,621,o),
(340,621,o),
(340,621,cs),
(413,621,o),
(467,587,o),
(467,520,cs),
(467,435,o),
(414,399,o),
(341,399,cs),
(197,399,l)
);
}
);
width = 655;
},
{
layerId = m003;
shapes = (
{
closed = 1;
nodes = (
(402,0,ls),
(573,0,o),
(657,77,o),
(657,204,cs),
(657,283,o),
(610,341,o),
(532,363,c),
(577,386,o),
(618,434,o),
(618,518,cs),
(618,620,o),
(542,701,o),
(394,701,cs),
(109,701,l),
(109,0,l)
);
},
{
closed = 1;
nodes = (
(255,293,l),
(255,293,o),
(392,293,o),
(392,293,c),
(459,293,o),
(503,264,o),
(503,211,cs),
(503,145,o),
(459,126,o),
(382,126,cs),
(255,126,l)
);
},
{
closed = 1;
nodes = (
(255,575,l),
(255,575,o),
(376,575,o),
(376,575,cs),
(432,575,o),
(465,549,o),
(465,504,cs),
(465,441,o),
(432,419,o),
(377,419,cs),
(255,419,l)
);
}
);
width = 701;
}
);
unicode = 66;
},
{
glyphname = C;
kernLeft = O;
lastChange = "2025-01-07 17:11:59 +0000";
layers = (
{
anchors = (
{
name = bottom;
pos = (338,-6);
},
{
name = top;
pos = (354,713);
}
);
layerId = m01;
shapes = (
{
closed = 1;
nodes = (
(499,-13,o),
(588,76,o),
(616,199,c),
(556,211,l),
(531,117,o),
(466,43,o),
(354,43,cs),
(207,43,o),
(122,167,o),
(122,357,cs),
(122,542,o),
(223,657,o),
(354,657,cs),
(452,657,o),
(534,581,o),
(552,488,c),
(616,501,l),
(588,624,o),
(499,713,o),
(354,713,cs),
(151,713,o),
(60,541,o),
(60,355,cs),
(60,163,o),
(146,-13,o),
(354,-13,cs)
);
}
);
width = 663;
},
{
anchors = (
{
name = bottom;
pos = (350,-13);
},
{
name = top;
pos = (360,713);
}
);
layerId = m002;
shapes = (
{
closed = 1;
nodes = (
(506,-13,o),
(608,75,o),
(636,198,c),
(547,216,l),
(524,130,o),
(452,67,o),
(360,67,cs),
(229,67,o),
(154,194,o),
(154,357,cs),
(154,512,o),
(229,633,o),
(360,633,cs),
(452,633,o),
(524,570,o),
(547,484,c),
(636,502,l),
(608,625,o),
(506,713,o),
(360,713,cs),
(154,713,o),
(64,548,o),
(64,355,cs),
(64,171,o),
(153,-13,o),
(360,-13,cs)
);
}
);
width = 689;
},
{
anchors = (
{
name = bottom;
pos = (365,-12);
},
{
name = top;
pos = (381,713);
}
);
layerId = m003;
shapes = (
{
closed = 1;
nodes = (
(535,-12,o),
(623,76,o),
(651,199,c),
(510,227,l),
(496,161,o),
(439,119,o),
(383,119,cs),
(262,119,o),
(205,198,o),
(205,357,cs),
(205,499,o),
(258,583,o),
(379,583,cs),
(439,583,o),
(495,532,o),
(510,474,c),
(651,502,l),
(623,625,o),
(510,713,o),
(381,713,cs),
(157,713,o),
(51,549,o),
(51,355,cs),
(51,171,o),
(137,-12,o),
(383,-12,cs)
);
}
);
width = 684;
},
{
associatedMasterId = m01;
layerId = "09577142-2BA9-4939-A4E9-BA986ECE9950";
name = "27 Mar 24 at 12:02";
shapes = (
{
closed = 1;
nodes = (
(596,-12,o),
(684,157,o),
(684,349,cs),
(684,543,o),
(596,712,o),
(372,712,cs),
(148,712,o),
(60,543,o),
(60,349,cs),
(60,157,o),
(148,-12,o),
(372,-12,cs)
);
},
{
closed = 1;
nodes = (
(217,44,o),
(122,154,o),
(122,349,cs),
(122,540,o),
(217,656,o),
(372,656,cs),
(527,656,o),
(622,540,o),
(622,349,cs),
(622,154,o),
(527,44,o),
(372,44,cs)
);
}
);
width = 693;
}
);
unicode = 67;
},
{
glyphname = D;
kernRight = O;
lastChange = "2025-01-01 03:28:29 +0000";
layers = (
{
anchors = (
{
name = bottom;
pos = (314,0);
},
{
name = top;
pos = (314,700);
}
);
layerId = m01;
shapes = (
{
closed = 1;
nodes = (
(291,0,ls),
(517,0,o),
(624,141,o),
(624,349,cs),
(624,560,o),
(517,700,o),
(291,700,cs),
(104,700,l),
(104,0,l)
);
},
{
closed = 1;
nodes = (
(168,644,l),
(294,644,ls),
(488,644,o),
(562,507,o),
(562,350,cs),
(562,192,o),
(488,56,o),
(294,56,cs),
(168,56,l)
);
}
);
width = 681;
},
{
anchors = (
{
name = bottom;
pos = (320,0);
},
{
name = top;
pos = (320,700);
}
);
layerId = m002;
shapes = (
{
closed = 1;
nodes = (
(291,0,ls),
(523,0,o),
(630,141,o),
(630,349,cs),
(630,560,o),
(523,700,o),
(291,700,cs),
(96,700,l),
(96,0,l)
);
},
{
closed = 1;
nodes = (
(184,620,l),
(294,620,ls),
(457,620,o),
(538,507,o),
(538,350,cs),
(538,192,o),
(457,80,o),
(294,80,cs),
(184,80,l)
);
}
);
width = 680;
},
{
anchors = (
{
name = bottom;
pos = (351,0);
},
{
name = top;
pos = (351,700);
}
);
layerId = m003;
shapes = (
{
closed = 1;
nodes = (
(338,0,ls),
(568,0,o),
(675,141,o),
(675,349,cs),
(675,560,o),
(568,700,o),
(338,700,cs),
(90,700,l),
(90,0,l)
);
},
{
closed = 1;
nodes = (
(236,574,l),
(341,574,ls),
(459,574,o),
(521,507,o),
(521,350,cs),
(521,192,o),
(459,126,o),
(341,126,cs),
(236,126,l)
);
}
);
width = 723;
}
);
unicode = 68;
},
{
glyphname = Eth;
lastChange = "2024-11-01 01:06:09 +0000";
layers = (
{
layerId = m01;
shapes = (
{
ref = D;
},
{
closed = 1;
nodes = (
(344,329,l),
(344,385,l),
(22,385,l),
(22,329,l)
);
}
);
width = 681;
},
{
layerId = m002;
shapes = (
{
ref = D;
},
{
closed = 1;
nodes = (
(364,315,l),
(364,385,l),
(27,385,l),
(27,315,l)
);
}
);
width = 680;
},
{
layerId = m003;
shapes = (
{
ref = D;
},
{
closed = 1;
nodes = (
(383,291,l),
(383,401,l),
(0,401,l),
(0,291,l)
);
}
);
width = 723;
}
);
unicode = 208;
},
{
glyphname = E;
kernLeft = E;
kernRight = E;
lastChange = "2025-01-01 08:34:52 +0000";
layers = (
{
anchors = (
{
name = bottom;
pos = (299,0);
},
{
name = top;
pos = (299,700);
}
);
layerId = m01;
shapes = (
{
closed = 1;
nodes = (
(498,0,l),
(498,56,l),
(164,56,l),
(164,332,l),
(436,332,l),
(436,388,l),
(164,388,l),
(164,644,l),
(498,644,l),
(498,700,l),
(100,700,l),
(100,0,l)
);
}
);
width = 558;
},
{
anchors = (
{
name = bottom;
pos = (302,0);
},
{
name = top;
pos = (302,700);
}
);
layerId = m002;
shapes = (
{
closed = 1;
nodes = (
(507,0,l),
(507,80,l),
(184,80,l),
(184,320,l),
(446,320,l),
(446,398,l),
(184,398,l),
(184,620,l),
(507,620,l),
(507,700,l),
(96,700,l),
(96,0,l)
);
}
);
width = 564;
},
{
anchors = (
{
name = bottom;
pos = (319,0);
},
{
name = top;
pos = (319,700);
}
);
layerId = m003;
shapes = (
{
closed = 1;
nodes = (
(547,0,l),
(547,126,l),
(236,126,l),
(236,297,l),
(496,297,l),
(496,423,l),
(236,423,l),
(236,574,l),
(547,574,l),
(547,700,l),
(90,700,l),
(90,0,l)
);
}
);
width = 589;
}
);
unicode = 69;
},
{
glyphname = Eopen;
lastChange = "2024-11-07 17:11:47 +0000";
layers = (
{
anchors = (
{
name = bottom;
pos = (298,0);
},
{
name = top;
pos = (298,700);
}
);
layerId = m01;
shapes = (
{
closed = 1;
nodes = (
(439,-12,o),
(536,61,o),
(549,195,c),
(487,199,l),
(476,120,o),
(428,44,o),
(305,44,cs),
(181,44,o),
(122,123,o),
(122,203,cs),
(122,278,o),
(178,350,o),
(303,350,cs),
(316,350,o),
(329,349,o),
(341,348,c),
(341,404,l),
(330,402,o),
(317,401,o),
(304,401,cs),
(199,401,o),
(156,465,o),
(156,530,cs),
(156,586,o),
(196,656,o),
(302,656,cs),
(387,656,o),
(432,611,o),
(446,564,c),
(506,584,l),
(483,668,o),
(404,712,o),
(303,712,cs),
(184,712,o),
(94,649,o),
(94,530,cs),
(94,465,o),
(136,415,o),
(176,384,c),
(114,348,o),
(60,286,o),
(60,203,cs),
(60,64,o),
(165,-12,o),
(304,-12,cs)
);
}
);
width = 596;
},
{
anchors = (
{
name = bottom;
pos = (330,0);
},
{
name = top;
pos = (330,700);
}
);
layerId = m002;
shapes = (
{
closed = 1;
nodes = (
(502,-12,o),
(597,63,o),
(612,200,c),
(520,207,l),
(502,93,o),
(434,68,o),
(360,68,cs),
(260,68,o),
(199,123,o),
(199,203,cs),
(199,278,o),
(255,340,o),
(358,340,cs),
(373,340,o),
(387,340,o),
(402,340,c),
(402,418,l),
(388,418,o),
(373,418,o),
(359,418,cs),
(272,418,o),
(229,465,o),
(229,530,cs),
(229,586,o),
(269,636,o),
(357,636,cs),
(435,636,o),
(478,597,o),
(486,549,c),
(571,576,l),
(551,665,o),
(469,712,o),
(358,712,cs),
(231,712,o),
(141,649,o),
(141,530,cs),
(141,465,o),
(171,415,o),
(211,384,c),
(149,348,o),
(107,286,o),
(107,203,cs),
(107,64,o),
(214,-12,o),
(359,-12,cs)
);
}
);
width = 660;
},
{
anchors = (
{
name = bottom;
pos = (344,0);
},
{
name = top;
pos = (344,700);
}
);
layerId = m003;
shapes = (
{
closed = 1;
nodes = (
(554,-12,o),
(639,81,o),
(654,207,c),
(507,216,l),
(499,161,o),
(468,116,o),
(381,116,cs),
(298,116,o),
(263,157,o),
(263,212,cs),
(263,260,o),
(298,306,o),
(379,306,cs),
(394,306,o),
(410,307,o),
(425,307,c),
(426,434,l),
(411,434,o),
(395,433,o),
(380,433,cs),
(332,433,o),
(293,458,o),
(293,512,cs),
(293,550,o),
(329,584,o),
(378,584,cs),
(419,584,o),
(455,559,o),
(464,527,c),
(612,569,l),
(593,656,o),
(509,712,o),
(379,712,cs),
(234,712,o),
(143,639,o),
(143,530,cs),
(143,465,o),
(173,415,o),
(213,384,c),
(151,348,o),
(109,286,o),
(109,203,cs),
(109,74,o),
(220,-12,o),
(380,-12,cs)
);
}
);
width = 687;
}
);
unicode = 400;
},
{
glyphname = Schwa;
lastChange = "2024-11-07 17:11:50 +0000";
layers = (
{
anchors = (
{
name = bottom;
pos = (352,0);
},
{
name = top;
pos = (352,700);
}
);
layerId = m01;
shapes = (
{
closed = 1;
nodes = (
(535,-12,o),
(658,126,o),
(658,352,cs),
(658,575,o),
(544,712,o),
(353,712,cs),
(188,712,o),
(98,608,o),
(65,496,c),
(129,482,l),
(153,559,o),
(218,656,o),
(347,656,cs),
(502,656,o),
(596,531,o),
(596,356,cs),
(596,186,o),
(521,44,o),
(352,44,cs),
(204,44,o),
(123,174,o),
(123,310,c),
(616,310,l),
(616,365,l),
(60,365,l),
(60,326,l),
(60,112,o),
(191,-12,o),
(357,-12,cs)
);
}
);
width = 704;
},
{
anchors = (
{
name = bottom;
pos = (363,0);
},
{
name = top;
pos = (363,700);
}
);
layerId = m002;
shapes = (
{
closed = 1;
nodes = (
(550,-12,o),
(673,126,o),
(673,353,cs),
(673,574,o),
(550,712,o),
(356,712,cs),
(183,712,o),
(101,618,o),
(67,506,c),
(153,485,l),
(171,569,o),
(254,632,o),
(347,632,c),
(519,632,o),
(581,487,o),
(581,357,cs),
(581,187,o),
(505,68,o),
(355,68,cs),
(223,68,o),
(156,163,o),
(156,287,c),
(602,287,l),
(602,367,l),
(64,367,l),
(64,334,l),
(64,96,o),
(187,-12,o),
(360,-12,cs)
);
}
);
width = 726;
},
{
anchors = (
{
name = bottom;
pos = (375,0);
},
{
name = top;
pos = (375,700);
}
);
layerId = m003;
shapes = (
{
closed = 1;
nodes = (
(540,-12,o),
(716,103,o),
(716,347,cs),
(716,583,o),
(543,712,o),
(372,712,cs),
(265,712,o),
(135,663,o),
(71,512,c),
(215,469,l),
(234,538,o),
(302,582,o),
(369,582,cs),
(487,582,o),
(562,504,o),
(562,347,cs),
(562,204,o),
(487,118,o),
(376,118,cs),
(275,118,o),
(210,205,o),
(210,286,c),
(593,286,l),
(592,402,l),
(51,402,l),
(51,357,l),
(51,126,o),
(182,-12,o),
(374,-12,cs)
);
}
);
width = 749;
}
);
unicode = 399;
},
{
glyphname = F;
kernLeft = E;
kernRight = F;
lastChange = "2025-01-01 06:23:45 +0000";
layers = (
{
layerId = m01;
shapes = (
{
closed = 1;
nodes = (
(164,0,l),
(164,335,l),
(436,335,l),
(436,391,l),
(164,391,l),
(164,644,l),
(498,644,l),
(498,700,l),
(100,700,l),
(100,0,l)
);
}
);
width = 558;
},
{
layerId = m002;
shapes = (
{
closed = 1;
nodes = (
(184,0,l),
(184,320,l),
(446,320,l),
(446,400,l),
(184,400,l),
(184,620,l),
(507,620,l),
(507,700,l),
(96,700,l),
(96,0,l)
);
}
);
width = 541;
},
{
layerId = m003;
shapes = (
{
closed = 1;
nodes = (
(236,0,l),
(236,297,l),
(496,297,l),
(496,423,l),
(236,423,l),
(236,574,l),
(547,574,l),
(547,700,l),
(90,700,l),
(90,0,l)
);
}
);
width = 577;
}
);
unicode = 70;
},
{
glyphname = G;
kernLeft = O;
kernRight = G;
lastChange = "2025-01-07 17:12:12 +0000";
layers = (
{
anchors = (
{
name = bottom;
pos = (348,-13);
},
{
name = top;
pos = (358,713);
}
);
layerId = m01;
shapes = (
{
closed = 1;
nodes = (
(470,-13,o),
(554,49,o),
(578,127,c),
(578,127,o),
(585,0,o),
(585,0,c),
(637,0,l),
(637,368,l),
(358,368,l),
(358,312,l),
(575,312,l),
(575,159,o),
(484,43,o),
(359,43,cs),
(205,43,o),
(120,167,o),
(120,357,cs),
(120,542,o),
(221,657,o),
(359,657,cs),
(465,657,o),
(547,581,o),
(565,488,c),
(629,501,l),
(601,624,o),
(512,713,o),
(359,713,cs),
(149,713,o),
(58,541,o),
(58,355,cs),
(58,163,o),
(144,-13,o),
(359,-13,cs)
);
}
);
width = 701;
},
{
anchors = (
{
name = bottom;
pos = (361,-12);
},
{
name = top;
pos = (369,713);
}
);
layerId = m002;
shapes = (
{
closed = 1;
nodes = (
(461,-12,o),
(538,30,o),
(578,107,c),
(578,107,o),
(591,0,o),
(591,0,c),
(660,0,l),
(660,368,l),
(380,368,l),
(380,284,l),
(571,284,l),
(571,158,o),
(469,67,o),
(366,67,cs),
(224,67,o),
(152,194,o),
(152,357,cs),
(152,512,o),
(227,633,o),
(369,633,cs),
(472,633,o),
(544,570,o),
(567,484,c),
(656,502,l),
(628,625,o),
(526,713,o),
(369,713,cs),
(152,713,o),
(62,548,o),
(62,355,cs),
(62,158,o),
(154,-12,o),
(379,-12,c)
);
}
);
width = 740;
},
{
anchors = (
{
name = bottom;
pos = (356,-12);
},
{
name = top;
pos = (386,712);
}
);
layerId = m003;
shapes = (
{
closed = 1;
nodes = (
(444,-12,o),
(515,13,o),
(554,80,c),
(554,80,o),
(566,0,o),
(566,0,c),
(664,0,l),
(664,380,l),
(379,380,l),
(379,260,l),
(529,260,l),
(522,170,o),
(449,119,o),
(386,119,cs),
(259,119,o),
(202,198,o),
(202,357,cs),
(202,499,o),
(259,583,o),
(386,583,cs),
(450,583,o),
(505,532,o),
(520,474,c),
(661,502,l),
(633,625,o),
(522,712,o),
(386,712,cs),
(156,712,o),
(48,549,o),
(48,355,cs),
(48,171,o),
(134,-12,o),
(386,-12,cs)
);
}
);
width = 726;
},
{
associatedMasterId = m01;
layerId = "60D9B074-3643-47F8-BA45-851CCB9418B6";
name = "6 Jul 24 at 15:54";
shapes = (
{
closed = 0;
nodes = (
(514,106,l)
);
},
{
closed = 0;
nodes = (
(531,106,l),
(533,94,o),
(544,0,o),
(544,0,c),
(596,0,l),
(596,368,l),
(349,368,l),
(349,312,l),
(516,312,l),
(516,158,o),
(420,43,o),
(299,43,cs),
(142,43,o),
(57,167,o),
(57,357,cs),
(57,542,o),
(158,657,o),
(299,657,cs),
(406,657,o),
(488,581,o),
(506,488,c),
(570,501,l),
(542,624,o),
(453,713,o),
(299,713,cs),
(86,713,o),
(-5,541,o),
(-5,355,cs),
(-5,163,o),
(81,-13,o),
(299,-13,cs),
(453,-13,o),
(542,76,o),
(570,199,c)
);
},
{
closed = 1;
nodes = (
(453,-13,o),
(542,76,o),
(570,199,c),
(510,211,l),
(485,117,o),
(420,43,o),
(299,43,cs),
(142,43,o),
(57,167,o),
(57,357,cs),
(57,542,o),
(158,657,o),
(299,657,cs),
(406,657,o),
(488,581,o),
(506,488,c),
(570,501,l),
(542,624,o),
(453,713,o),
(299,713,cs),
(86,713,o),
(-5,541,o),
(-5,355,cs),
(-5,163,o),
(81,-13,o),
(299,-13,cs)
);
}
);
width = 600;
}
);
unicode = 71;
},
{
glyphname = H;
lastChange = "2025-01-01 03:29:45 +0000";
layers = (
{
layerId = m01;
shapes = (
{
closed = 1;
nodes = (
(164,0,l),
(164,336,l),
(526,336,l),
(526,0,l),
(590,0,l),
(590,700,l),
(526,700,l),
(526,392,l),
(164,392,l),
(164,700,l),
(100,700,l),
(100,0,l)
);
}
);
width = 690;
},
{
layerId = m002;
shapes = (
{
closed = 1;
nodes = (
(182,0,l),
(182,324,l),
(518,324,l),
(518,0,l),
(606,0,l),
(606,700,l),
(518,700,l),
(518,404,l),
(182,404,l),
(182,700,l),
(94,700,l),
(94,0,l)
);
}
);
width = 700;
},
{
layerId = m003;
shapes = (
{
closed = 1;
nodes = (
(236,0,l),
(236,301,l),
(518,301,l),
(518,0,l),
(664,0,l),
(664,700,l),
(518,700,l),
(518,427,l),
(236,427,l),
(236,700,l),
(90,700,l),
(90,0,l)
);
}
);
width = 754;
}
);
unicode = 72;
},
{
glyphname = Hbar;
lastChange = "2024-11-09 06:52:44 +0000";
layers = (
{
layerId = m01;
shapes = (
{
closed = 1;
nodes = (
(164,0,l),
(164,336,l),
(526,336,l),
(526,0,l),
(590,0,l),
(590,700,l),
(526,700,l),
(526,392,l),
(164,392,l),
(164,700,l),
(100,700,l),
(100,0,l)
);
},
{
closed = 1;
nodes = (
(669,494,l),
(669,550,l),
(25,550,l),
(25,494,l)
);
}
);
width = 690;
},
{
layerId = m002;
shapes = (
{
closed = 1;
nodes = (
(179,0,l),
(179,318,l),
(515,318,l),
(515,0,l),
(603,0,l),
(603,700,l),
(515,700,l),
(515,398,l),
(179,398,l),
(179,700,l),
(91,700,l),
(91,0,l)
);
},
{
closed = 1;
nodes = (
(669,498,l),
(669,568,l),
(25,568,l),
(25,498,l)
);
}
);
width = 700;
},
{
layerId = m003;
shapes = (
{
closed = 1;
nodes = (
(236,0,l),
(236,290,l),
(518,290,l),
(518,0,l),
(664,0,l),
(664,700,l),
(518,700,l),
(518,416,l),
(236,416,l),
(236,700,l),
(90,700,l),
(90,0,l)
);
},
{
closed = 1;
nodes = (
(750,497,l),
(750,607,l),
(8,607,l),
(8,497,l)
);
}
);
width = 754;
}
);
unicode = 294;
},
{
glyphname = I;
lastChange = "2025-01-01 08:40:14 +0000";
layers = (
{
anchors = (
{
name = bottom;
pos = (238,0);
},
{
name = top;
pos = (238,700);
}
);
layerId = m01;
shapes = (
{
closed = 1;
nodes = (
(401,0,l),
(401,56,l),
(270,56,l),
(270,644,l),
(401,644,l),
(401,700,l),
(75,700,l),
(75,644,l),
(206,644,l),
(206,56,l),
(75,56,l),
(75,0,l)
);
}
);
width = 476;
},
{
anchors = (
{
name = bottom;
pos = (238,0);
},
{
name = top;
pos = (238,700);
}
);
layerId = m002;
shapes = (
{
closed = 1;
nodes = (
(400,0,l),
(400,76,l),
(282,76,l),
(282,624,l),
(400,624,l),
(400,700,l),
(76,700,l),
(76,624,l),
(194,624,l),
(194,76,l),
(76,76,l),
(76,0,l)
);
}
);
width = 476;
},
{
anchors = (
{
name = bottom;
pos = (267,0);
},
{
name = top;
pos = (267,700);
}
);
layerId = m003;
shapes = (
{
closed = 1;
nodes = (
(453,0,l),
(453,122,l),
(340,122,l),
(340,578,l),
(453,578,l),
(453,700,l),
(80,700,l),
(80,578,l),
(194,578,l),
(194,122,l),
(80,122,l),
(80,0,l)
);
}
);
width = 533;
}
);
unicode = 73;
},
{
glyphname = J;
lastChange = "2025-01-01 03:25:59 +0000";
layers = (
{
anchors = (
{
name = top;
pos = (398,700);
}
);
layerId = m01;
shapes = (
{
closed = 1;
nodes = (
(361,-12,o),
(428,65,o),
(428,253,cs),
(428,700,l),
(368,700,l),
(368,252,ls),
(368,111,o),
(329,44,o),
(219,44,cs),
(133,44,o),
(87,107,o),
(73,192,c),
(15,173,l),
(33,56,o),
(106,-12,o),
(223,-12,cs)
);
}
);
width = 516;
},
{
anchors = (
{
name = top;
pos = (399,700);
}
);
layerId = m002;
shapes = (
{
closed = 1;
nodes = (
(380,-12,o),
(445,85,o),
(445,256,cs),
(445,700,l),
(357,700,l),
(357,255,ls),
(357,148,o),
(321,68,o),
(230,68,cs),
(157,68,o),
(109,120,o),
(95,200,c),
(11,173,l),
(29,56,o),
(112,-12,o),
(234,-12,cs)
);
}
);
width = 527;
},
{
anchors = (
{
name = top;
pos = (426,700);
}
);
layerId = m003;
shapes = (
{
closed = 1;
nodes = (
(428,-12,o),
(501,90,o),
(501,261,cs),
(501,700,l),
(355,700,l),
(355,260,ls),
(355,185,o),
(328,118,o),
(255,118,cs),
(179,118,o),
(140,170,o),
(129,227,c),
(2,183,l),
(20,66,o),
(116,-12,o),
(256,-12,cs)
);
}
);
width = 575;
},
{
associatedMasterId = m01;
layerId = "F0224C38-C702-4CDE-838B-2E373CDF467B";
name = "5 Aug 24 at 10:34";
shapes = (
{
closed = 1;
nodes = (
(314,-12,o),
(407,94,o),
(407,275,cs),
(407,701,l),
(347,701,l),
(347,275,l),
(347,121,o),
(270,44,o),
(164,44,cs),
(60,44,o),
(-19,121,o),
(-19,275,cs),
(-19,701,l),
(-79,701,l),
(-79,275,ls),
(-79,94,o),
(15,-12,o),
(168,-12,cs)
);
}
);
width = 496;
},
{
associatedMasterId = m002;
layerId = "D039DF4E-49D3-4032-B6A6-5E0752F96B5B";
name = "5 Aug 24 at 10:37";
shapes = (
{
closed = 1;
nodes = (
(328,-12,o),
(413,98,o),
(413,275,cs),
(413,701,l),
(325,701,l),
(325,275,ls),
(325,139,o),
(251,73,o),
(162,73,cs),
(69,73,o),
(-1,139,o),
(-1,275,cs),
(-1,701,l),
(-89,701,l),
(-89,275,ls),
(-89,98,o),
(7,-12,o),
(166,-12,cs)
);
}
);
width = 495;
}
);
unicode = 74;
},
{
glyphname = K;
kernRight = K;
lastChange = "2025-01-01 03:26:04 +0000";
layers = (
{
anchors = (
{
name = bottom;
pos = (316,0);
}
);
layerId = m01;
shapes = (
{
closed = 1;
nodes = (
(160,0,l),
(160,244,l),
(561,700,l),
(484,700,l),
(160,330,l),
(160,700,l),
(100,700,l),
(100,0,l)
);
},
{
closed = 1;
nodes = (
(576,0,l),
(316,429,l),
(274,382,l),
(498,0,l)
);
}
);
width = 592;
},
{
anchors = (
{
name = bottom;
pos = (352,0);
}
);
layerId = m002;
shapes = (
{
closed = 1;
nodes = (
(180,0,l),
(180,242,l),
(587,700,l),
(480,700,l),
(180,358,l),
(180,700,l),
(92,700,l),
(92,0,l)
);
},
{
closed = 1;
nodes = (
(605,0,l),
(340,435,l),
(279,373,l),
(500,0,l)
);
}
);
width = 615;
},
{
anchors = (
{
name = bottom;
pos = (340,0);
}
);
layerId = m003;
shapes = (
{
closed = 1;
nodes = (
(236,0,l),
(236,224,l),
(651,700,l),
(491,700,l),
(236,404,l),
(236,700,l),
(90,700,l),
(90,0,l)
);
},
{
closed = 1;
nodes = (
(661,0,l),
(415,450,l),
(313,340,l),
(491,0,l)
);
}
);
width = 665;
}
);
unicode = 75;
},
{
glyphname = L;
lastChange = "2025-01-07 17:13:16 +0000";
layers = (
{
anchors = (
{
name = bottom;
pos = (302,0);
},
{
name = center;
pos = (133,350);
},
{
name = top;
pos = (133,700);
},
{
name = topright;
pos = (509,700);
}
);
layerId = m01;
shapes = (
{
closed = 1;
nodes = (
(509,0,l),
(509,56,l),
(162,56,l),
(162,700,l),
(98,700,l),
(98,0,l)
);
}
);
width = 529;
},
{
anchors = (
{
name = bottom;
pos = (297,0);
},
{
name = center;
pos = (139,350);
},
{
name = top;
pos = (139,700);
},
{
name = topright;
pos = (504,700);
}
);
layerId = m002;
shapes = (
{
closed = 1;
nodes = (
(506,0,l),
(506,80,l),
(182,80,l),
(182,700,l),
(94,700,l),
(94,0,l)
);
}
);
width = 524;
},
{
anchors = (
{
name = bottom;
pos = (328,0);
},
{
name = center;
pos = (290,350);
},
{
name = top;
pos = (162,700);
},
{
name = topright;
pos = (559,700);
}
);
layerId = m003;
shapes = (
{
closed = 1;
nodes = (
(565,0,l),
(565,126,l),
(236,126,l),
(236,700,l),
(90,700,l),
(90,0,l)
);
}
);
width = 579;
}
);
unicode = 76;
},
{
glyphname = Lslash;
lastChange = "2025-01-01 08:42:07 +0000";
layers = (
{
layerId = m01;
shapes = (
{
closed = 1;
nodes = (
(161,302,l),
(180,310,l),
(375,392,l),
(354,444,l),
(172,369,l),
(147,358,l),
(20,305,l),
(40,252,l)
);
},
{
pos = (42,0);
ref = L;
}
);
width = 571;
},
{
layerId = m002;
shapes = (
{
closed = 1;
nodes = (
(175,293,l),
(200,304,l),
(414,395,l),
(387,459,l),
(203,381,l),
(171,368,l),
(30,308,l),
(59,243,l)
);
},
{
pos = (56,0);
ref = L;
}
);
width = 580;
},
{
layerId = m003;
shapes = (
{
closed = 1;
nodes = (
(196,283,l),
(296,315,l),
(481,394,l),
(442,494,l),
(299,431,l),
(191,395,l),
(20,320,l),
(58,223,l)
);
},
{
pos = (74,0);
ref = L;
}
);
width = 653;
}
);
unicode = 321;
},
{
glyphname = M;
lastChange = "2025-01-01 08:40:42 +0000";
layers = (
{
layerId = m01;
shapes = (
{
closed = 1;
nodes = (
(185,700,l),
(98,700,l),
(98,0,l),
(158,0,l),
(158,613,l),
(385,80,l),
(455,80,l),
(682,613,l),
(682,0,l),
(742,0,l),
(742,700,l),
(655,700,l),
(421,139,l)
);
}
);
width = 840;
},
{
layerId = m002;
shapes = (
{
closed = 1;
nodes = (
(217,700,l),
(95,700,l),
(95,0,l),
(183,0,l),
(183,562,l),
(389,62,l),
(484,62,l),
(685,562,l),
(685,0,l),
(773,0,l),
(773,700,l),
(651,700,l),
(434,164,l)
);
}
);
width = 868;
},
{
layerId = m003;
shapes = (
{
closed = 1;
nodes = (
(262,700,l),
(90,700,l),
(90,0,l),
(236,0,l),
(236,429,l),
(388,62,l),
(523,62,l),
(669,430,l),
(669,0,l),
(815,0,l),
(815,700,l),
(644,700,l),
(453,244,l)
);
}
);
width = 905;
}
);
unicode = 77;
},
{
glyphname = N;
lastChange = "2025-01-01 08:40:46 +0000";
layers = (
{
anchors = (
{
name = bottom;
pos = (340,0);
},
{
name = top;
pos = (340,700);
}
);
layerId = m01;
shapes = (
{
closed = 1;
nodes = (
(160,0,l),
(160,656,l),
(129,656,l),
(506,0,l),
(581,0,l),
(581,700,l),
(521,700,l),
(521,44,l),
(552,44,l),
(176,700,l),
(100,700,l),
(100,0,l)
);
}
);
width = 681;
},
{
anchors = (
{
name = bottom;
pos = (352,0);
},
{
name = top;
pos = (352,700);
}
);
layerId = m002;
shapes = (
{
closed = 1;
nodes = (
(184,0,l),
(184,623,l),
(154,623,l),
(494,0,l),
(603,0,l),
(603,700,l),
(515,700,l),
(515,77,l),
(545,77,l),
(218,700,l),
(96,700,l),
(96,0,l)
);
}
);
width = 699;
},
{
anchors = (
{
name = bottom;
pos = (373,0);
},
{
name = top;
pos = (370,700);
}
);
layerId = m003;
shapes = (
{
closed = 1;
nodes = (
(230,0,l),
(230,504,l),
(198,504,l),
(505,0,l),
(649,0,l),
(649,700,l),
(503,700,l),
(503,204,l),
(535,204,l),
(240,700,l),
(84,700,l),
(84,0,l)
);
}
);
width = 732;
}
);
unicode = 78;
},
{
glyphname = Nhookleft;
lastChange = "2024-11-09 00:37:11 +0000";
layers = (
{
guides = (
{
pos = (257,-165);
}
);
layerId = m003;
shapes = (
{
closed = 1;
nodes = (
(283,-230,o),
(343,-169,o),
(343,-76,c),
(343,451,l),
(618,0,l),
(761,0,l),
(761,700,l),
(616,700,l),
(616,258,l),
(353,700,l),
(197,700,l),
(197,-28,l),
(197,-66,o),
(175,-90,o),
(139,-90,cs),
(126,-90,o),
(101,-89,o),
(85,-86,c),
(84,-222,l),
(101,-227,o),
(139,-230,o),
(155,-230,cs)
);
}
);
width = 845;
},
{
guides = (
{
pos = (680,-133);
}
);
layerId = m01;
shapes = (
{
closed = 1;
nodes = (
(240,-230,o),
(278,-179,o),
(278,-86,c),
(278,604,l),
(636,0,l),
(691,0,l),
(691,700,l),
(632,700,l),
(632,128,l),
(294,700,l),
(218,700,l),
(217,-85,l),
(216,-158,o),
(194,-176,o),
(146,-176,cs),
(133,-176,o),
(116,-175,o),
(100,-172,c),
(100,-222,l),
(117,-227,o),
(139,-230,o),
(155,-230,cs)
);
}
);
width = 791;
},
{
guides = (
{
pos = (429,-142);
}
);
layerId = m002;
shapes = (
{
closed = 1;
nodes = (
(261,-230,o),
(302,-179,o),
(302,-86,c),
(302,571,l),
(619,0,l),
(706,0,l),
(706,700,l),
(618,700,l),
(618,176,l),
(343,700,l),
(214,700,l),
(216,-85,l),
(217,-139,o),
(190,-158,o),
(143,-158,cs),
(130,-158,o),
(112,-157,o),
(96,-154,c),
(96,-222,l),
(113,-227,o),
(136,-230,o),
(152,-230,cs)
);
}
);
width = 802;
}
);
unicode = 413;
},
{
glyphname = Eng;
lastChange = "2024-11-07 17:12:44 +0000";
layers = (
{
anchors = (
{
name = bottom;
pos = (373,0);
},
{
name = top;
pos = (370,700);
}
);
layerId = m003;
shapes = (
{
closed = 1;
nodes = (
(588,-230,o),
(648,-169,o),
(648,-76,cs),
(648,700,l),
(503,700,l),
(503,258,l),
(240,700,l),
(84,700,l),
(84,0,l),
(230,0,l),
(230,451,l),
(505,0,l),
(505,-28,ls),
(505,-66,o),
(483,-90,o),
(447,-90,cs),
(434,-90,o),
(406,-89,o),
(390,-86,c),
(389,-222,l),
(406,-227,o),
(444,-230,o),
(460,-230,cs)
);
}
);
width = 733;
},
{
anchors = (
{
name = bottom;
pos = (333,0);
},
{
name = top;
pos = (333,700);
}
);
layerId = m01;
shapes = (
{
closed = 1;
nodes = (
(535,-232,o),
(573,-181,o),
(573,-88,cs),
(573,700,l),
(514,700,l),
(514,130,l),
(176,700,l),
(100,700,l),
(100,0,l),
(160,0,l),
(160,604,l),
(518,2,l),
(517,-87,ls),
(516,-160,o),
(489,-178,o),
(441,-178,cs),
(428,-178,o),
(411,-177,o),
(395,-174,c),
(395,-224,l),
(412,-229,o),
(434,-232,o),
(450,-232,cs)
);
}
);
width = 674;
},
{
anchors = (
{
name = bottom;
pos = (337,0);
},
{
name = top;
pos = (337,700);
}
);
layerId = m002;
shapes = (
{
closed = 1;
nodes = (
(547,-230,o),
(588,-179,o),
(588,-86,cs),
(588,700,l),
(500,700,l),
(500,176,l),
(225,700,l),
(96,700,l),
(96,0,l),
(184,0,l),
(184,571,l),
(501,0,l),
(502,-85,ls),
(503,-139,o),
(476,-158,o),
(429,-158,cs),
(416,-158,o),
(398,-157,o),
(382,-154,c),
(382,-222,l),
(399,-227,o),
(422,-230,o),
(438,-230,cs)
);
}
);
width = 684;
}
);
unicode = 330;
},
{
glyphname = O;
kernLeft = O;
kernRight = O;
lastChange = "2025-01-07 17:14:26 +0000";
layers = (
{
anchors = (
{
name = bottom;
pos = (363,-11);
},
{
name = top;
pos = (368,712);
}
);
layerId = m01;
shapes = (
{
closed = 1;
nodes = (
(584,-12,o),
(672,157,o),
(672,349,cs),
(672,543,o),
(584,712,o),
(368,712,cs),
(152,712,o),
(64,543,o),
(64,349,cs),
(64,157,o),
(152,-12,o),
(368,-12,cs)
);
},
{
closed = 1;
nodes = (
(221,44,o),
(126,154,o),
(126,349,cs),
(126,540,o),
(221,656,o),
(368,656,cs),
(515,656,o),
(610,540,o),
(610,349,cs),
(610,154,o),
(515,44,o),
(368,44,cs)
);
}
);
width = 736;
},
{
anchors = (
{
name = bottom;
pos = (368,-11);
},
{
name = top;
pos = (372,713);
}
);
layerId = m002;
shapes = (
{
closed = 1;
nodes = (
(592,-11,o),
(685,158,o),
(685,351,cs),
(685,544,o),
(592,713,o),
(372,713,cs),
(152,713,o),
(59,544,o),
(59,351,cs),
(59,158,o),
(152,-11,o),
(372,-11,cs)
);
},
{
closed = 1;
nodes = (
(229,69,o),
(151,196,o),
(151,351,cs),
(151,506,o),
(229,633,o),
(372,633,cs),
(525,633,o),
(593,506,o),
(593,351,cs),
(593,196,o),
(525,69,o),
(372,69,cs)
);
}
);
width = 744;
},
{
anchors = (
{
name = bottom;
pos = (375,-11);
},
{
name = top;
pos = (380,713);
}
);
layerId = m003;
shapes = (
{
closed = 1;
nodes = (
(604,-11,o),
(710,148,o),
(710,351,cs),
(710,554,o),
(604,713,o),
(380,713,cs),
(156,713,o),
(48,554,o),
(48,351,cs),
(48,148,o),
(156,-11,o),
(380,-11,cs)
);
},
{
closed = 1;
nodes = (
(266,115,o),
(202,196,o),
(202,351,cs),
(202,506,o),
(266,587,o),
(380,587,cs),
(502,587,o),
(556,506,o),
(556,351,cs),
(556,196,o),
(502,115,o),
(380,115,cs)
);
}
);
width = 758;
}
);
unicode = 79;
},
{
glyphname = Ohorn;
kernLeft = O;
lastChange = "2024-11-21 10:10:34 +0000";
layers = (
{
layerId = m01;
shapes = (
{
closed = 1;
nodes = (
(644,627,o),
(728,705,o),
(679,827,c),
(618,808,l),
(649,738,o),
(621,676,o),
(557,676,cs),
(527,676,o),
(496,691,o),
(466,698,c),
(466,641,l),
(557,627,l)
);
},
{
ref = O;
}
);
width = 757;
},
{
layerId = m002;
shapes = (
{
closed = 1;
nodes = (
(675,612,o),
(737,708,o),
(688,830,c),
(608,808,l),
(637,749,o),
(627,679,o),
(559,679,cs),
(523,679,o),
(494,695,o),
(471,699,c),
(471,625,l),
(541,612,l)
);
},
{
ref = O;
}
);
width = 764;
},
{
layerId = m003;
shapes = (
{
closed = 1;
nodes = (
(713,601,o),
(798,710,o),
(744,845,c),
(630,814,l),
(659,755,o),
(655,682,o),
(574,682,cs),
(538,682,o),
(515,696,o),
(461,704,c),
(461,621,l),
(580,601,l)
);
},
{
ref = O;
}
);
width = 775;
}
);
unicode = 416;
},
{
glyphname = Oslash;
lastChange = "2024-11-01 01:05:42 +0000";
layers = (
{
layerId = m01;
shapes = (
{
pos = (52,0);
ref = O;
},
{
closed = 1;
nodes = (
(109,-12,l),
(763,682,l),
(717,720,l),
(66,31,l)
);
}
);
width = 827;
},
{
layerId = m002;
shapes = (
{
pos = (62,0);
ref = O;
},
{
closed = 1;
nodes = (
(115,-12,l),
(796,656,l),
(736,712,l),
(59,47,l)
);
}
);
width = 855;
},
{
layerId = m003;
shapes = (
{
pos = (64,0);
ref = O;
},
{
closed = 1;
nodes = (
(137,-12,l),
(826,619,l),
(733,712,l),
(48,85,l)
);
}
);
width = 874;
}
);
unicode = 216;
},
{
glyphname = OE;
lastChange = "2024-11-07 17:13:03 +0000";
layers = (
{
anchors = (
{
name = bottom;
pos = (490,0);
},
{
name = top;
pos = (490,700);
}
);
layerId = m01;
shapes = (
{
closed = 1;
nodes = (
(919,0,l),
(919,56,l),
(585,56,l),
(585,332,l),
(857,332,l),
(857,388,l),
(585,388,l),
(585,644,l),
(919,644,l),
(919,700,l),
(397,700,ls),
(171,700,o),
(64,560,o),
(64,349,cs),
(64,141,o),
(171,0,o),
(397,0,cs)
);
},
{
closed = 1;
nodes = (
(200,56,o),
(126,192,o),
(126,350,cs),
(126,507,o),
(200,644,o),
(394,644,cs),
(520,644,l),
(520,56,l),
(394,56,ls)
);
}
);
width = 979;
},
{
anchors = (
{
name = bottom;
pos = (491,0);
},
{
name = top;
pos = (491,700);
}
);
layerId = m002;
shapes = (
{
closed = 1;
nodes = (
(924,0,l),
(924,80,l),
(601,80,l),
(601,320,l),
(863,320,l),
(863,398,l),
(601,398,l),
(601,620,l),
(924,620,l),
(924,700,l),
(398,700,ls),
(166,700,o),
(59,560,o),
(59,349,cs),
(59,141,o),
(166,0,o),
(398,0,cs)
);
},
{
closed = 1;
nodes = (
(232,80,o),
(151,192,o),
(151,350,cs),
(151,507,o),
(232,620,o),
(395,620,cs),
(505,620,l),
(505,80,l),
(395,80,ls)
);
}
);
width = 981;
},
{
anchors = (
{
name = bottom;
pos = (487,0);
},
{
name = top;
pos = (487,700);
}
);
layerId = m003;
shapes = (
{
closed = 1;
nodes = (
(932,0,l),
(932,126,l),
(621,126,l),
(621,297,l),
(881,297,l),
(881,423,l),
(621,423,l),
(621,574,l),
(932,574,l),
(932,700,l),
(385,700,ls),
(155,700,o),
(48,554,o),
(48,349,cs),
(48,147,o),
(155,0,o),
(385,0,cs)
);
},
{
closed = 1;
nodes = (
(273,126,o),
(202,198,o),
(202,350,cs),
(202,501,o),
(273,574,o),
(382,574,cs),
(487,574,l),
(487,126,l),
(382,126,ls)
);
}
);
width = 974;
}
);
unicode = 338;
},
{
glyphname = P;
lastChange = "2025-01-01 08:35:31 +0000";
layers = (
{
layerId = m01;
shapes = (
{
closed = 1;
nodes = (
(164,0,l),
(164,262,l),
(332,262,ls),
(470,262,o),
(547,350,o),
(547,472,cs),
(547,615,o),
(461,700,o),
(334,700,cs),
(98,700,l),
(98,0,l)
);
},
{
closed = 1;
nodes = (
(162,644,l),
(332,644,ls),
(426,644,o),
(485,578,o),
(485,472,cs),
(485,375,o),
(428,318,o),
(331,318,cs),
(162,318,l)
);
}
);
width = 585;
},
{
layerId = m002;
shapes = (
{
closed = 1;
nodes = (
(183,0,l),
(183,252,l),
(344,252,l),
(485,252,o),
(567,342,o),
(567,472,cs),
(567,615,o),
(476,700,o),
(346,700,cs),
(95,700,l),
(95,0,l)
);
},
{
closed = 1;
nodes = (
(183,621,l),
(344,621,ls),
(417,621,o),
(477,573,o),
(477,472,cs),
(477,376,o),
(417,332,o),
(343,332,cs),
(183,332,l)
);
}
);
width = 602;
},
{
layerId = m003;
shapes = (
{
closed = 1;
nodes = (
(238,-1,l),
(238,231,l),
(388,231,ls),
(532,231,o),
(618,336,o),
(618,465,cs),
(618,609,o),
(523,701,o),
(390,701,cs),
(90,701,l),
(90,-1,l)
);
},
{
closed = 1;
nodes = (
(236,575,l),
(365,575,ls),
(428,575,o),
(464,527,o),
(464,467,cs),
(464,410,o),
(429,357,o),
(365,357,cs),
(236,357,l)
);
}
);
width = 638;
}
);
unicode = 80;
},
{
glyphname = Thorn;
lastChange = "2024-11-22 03:08:32 +0000";
layers = (
{
layerId = m01;
shapes = (
{
closed = 1;
nodes = (
(164,0,l),
(164,138,l),
(332,138,ls),
(470,138,o),
(547,226,o),
(547,348,cs),
(547,491,o),
(461,576,o),
(334,576,cs),
(98,576,l),
(98,0,l)
);
},
{
closed = 1;
nodes = (
(162,520,l),
(332,520,ls),
(426,520,o),
(485,454,o),
(485,348,cs),
(485,251,o),
(428,194,o),
(331,194,cs),
(162,194,l)
);
},
{
closed = 1;
nodes = (
(98,512,l),
(163,512,l),
(163,700,l),
(98,700,l)
);
}
);
width = 585;
},
{
layerId = m002;
shapes = (
{
closed = 1;
nodes = (
(183,0,l),
(183,128,l),
(344,128,l),
(485,128,o),
(567,218,o),
(567,348,cs),
(567,491,o),
(476,576,o),
(346,576,cs),
(95,576,l),
(95,0,l)
);
},
{
closed = 1;
nodes = (
(183,497,l),
(344,497,ls),
(417,497,o),
(477,449,o),
(477,348,cs),
(477,252,o),
(417,208,o),
(343,208,cs),
(183,208,l)
);
},
{
closed = 1;
nodes = (
(95,500,l),
(181,500,l),
(181,700,l),
(95,700,l)
);
}
);
width = 602;
},
{
layerId = m003;
shapes = (
{
closed = 1;
nodes = (
(238,-1,l),
(238,122,l),
(388,122,ls),
(532,122,o),
(618,227,o),
(618,356,cs),
(618,500,o),
(523,592,o),
(390,592,cs),
(90,592,l),
(90,-1,l)
);
},
{
closed = 1;
nodes = (
(236,466,l),
(365,466,ls),
(428,466,o),
(464,418,o),
(464,358,cs),
(464,301,o),
(429,248,o),
(365,248,cs),
(236,248,l)
);
},
{
closed = 1;
nodes = (
(90,462,l),
(238,462,l),
(238,700,l),
(90,700,l)
);
}
);
width = 638;
}
);
unicode = 222;
},
{
glyphname = Q;
kernLeft = O;
kernRight = Q;
lastChange = "2025-01-01 08:40:56 +0000";
layers = (
{
layerId = m01;
shapes = (
{
closed = 1;
nodes = (
(584,-12,o),
(672,157,o),
(672,349,cs),
(672,543,o),
(584,712,o),
(368,712,cs),
(152,712,o),
(64,543,o),
(64,349,cs),
(64,157,o),
(152,-12,o),
(368,-12,cs)
);
},
{
closed = 1;
nodes = (
(683,-33,l),
(436,256,l),
(393,220,l),
(638,-71,l)
);
},
{
closed = 1;
nodes = (
(221,44,o),
(126,154,o),
(126,349,cs),
(126,540,o),
(221,656,o),
(368,656,cs),
(515,656,o),
(610,540,o),
(610,349,cs),
(610,154,o),
(515,44,o),
(368,44,cs)
);
}
);
width = 745;
},
{
layerId = m002;
shapes = (
{
closed = 1;
nodes = (
(592,-11,o),
(685,158,o),
(685,351,cs),
(685,544,o),
(592,713,o),
(372,713,cs),
(152,713,o),
(59,544,o),
(59,351,cs),
(59,158,o),
(152,-11,o),
(372,-11,cs)
);
},
{
closed = 1;
nodes = (
(701,-34,l),
(436,272,l),
(382,227,l),
(644,-82,l)
);
},
{
closed = 1;
nodes = (
(219,69,o),
(151,196,o),
(151,351,cs),
(151,506,o),
(219,633,o),
(372,633,cs),
(525,633,o),
(593,506,o),
(593,351,cs),
(593,196,o),
(525,69,o),
(372,69,cs)
);
}
);
width = 752;
},
{
layerId = m003;
shapes = (
{
closed = 1;
nodes = (
(598,-11,o),
(698,158,o),
(698,351,cs),
(698,544,o),
(598,713,o),
(374,713,cs),
(150,713,o),
(48,544,o),
(48,351,cs),
(48,158,o),
(150,-11,o),
(374,-11,cs)
);
},
{
closed = 1;
nodes = (
(711,-30,l),
(430,299,l),
(341,226,l),
(621,-105,l)
);
},
{
closed = 1;
nodes = (
(231,111,o),
(180,224,o),
(180,351,cs),
(180,463,o),
(224,592,o),
(374,592,cs),
(524,592,o),
(564,463,o),
(564,351,cs),
(564,224,o),
(524,111,o),
(374,111,cs)
);
}
);
width = 734;
}
);
unicode = 81;
},
{
glyphname = R;
lastChange = "2025-01-01 07:00:59 +0000";
layers = (
{
anchors = (
{
name = bottom;
pos = (305,0);
},
{
name = top;
pos = (274,700);
}
);
layerId = m01;
shapes = (
{
closed = 1;
nodes = (
(164,0,l),
(164,292,l),
(316,292,ls),
(449,292,o),
(526,395,o),
(526,488,cs),
(526,631,o),
(440,700,o),
(318,700,cs),
(98,700,l),
(98,0,l)
);
},
{
closed = 1;
nodes = (
(563,0,l),
(385,306,l),
(326,292,l),
(493,0,l)
);
},
{
closed = 1;
nodes = (
(162,644,l),
(316,644,ls),
(405,644,o),
(464,594,o),
(464,488,cs),
(464,420,o),
(406,348,o),
(314,348,cs),
(162,348,l)
);
}
);
width = 608;
},
{
anchors = (
{
name = bottom;
pos = (328,0);
},
{
name = top;
pos = (328,700);
}
);
layerId = m002;
shapes = (
{
closed = 1;
nodes = (
(183,0,l),
(183,290,l),
(326,290,ls),
(470,290,o),
(564,376,o),
(564,498,cs),
(564,631,o),
(474,700,o),
(352,700,cs),
(95,700,l),
(95,0,l)
);
},
{
closed = 1;
nodes = (
(602,0,l),
(416,319,l),
(333,292,l),
(500,0,l)
);
},
{
closed = 1;
nodes = (
(183,620,l),
(346,620,ls),
(416,620,o),
(474,573,o),
(474,498,cs),
(474,422,o),
(416,370,o),
(346,370,cs),
(183,370,l)
);
}
);
width = 644;
},
{
anchors = (
{
name = bottom;
pos = (317,0);
},
{
name = top;
pos = (317,700);
}
);
layerId = m003;
shapes = (
{
closed = 1;
nodes = (
(238,-1,l),
(238,251,l),
(388,251,ls),
(532,251,o),
(618,341,o),
(618,478,cs),
(618,622,o),
(523,701,o),
(390,701,cs),
(90,701,l),
(90,-1,l)
);
},
{
closed = 1;
nodes = (
(667,0,l),
(489,283,l),
(330,269,l),
(494,0,l)
);
},
{
closed = 1;
nodes = (
(236,575,l),
(365,575,ls),
(428,575,o),
(464,533,o),
(464,480,cs),
(464,410,o),
(429,377,o),
(365,377,cs),
(236,377,l)
);
}
);
width = 699;
}
);
unicode = 82;
},
{
glyphname = S;
lastChange = "2025-01-01 07:01:56 +0000";
layers = (
{
anchors = (
{
name = bottom;
pos = (307,-12);
},
{
name = top;
pos = (304,712);
}
);
layerId = m01;
shapes = (
{
closed = 1;
nodes = (
(442,-12,o),
(543,58,o),
(543,195,cs),
(543,437,o),
(129,334,o),
(129,521,cs),
(129,591,o),
(185,656,o),
(292,656,cs),
(410,656,o),
(460,580,o),
(469,513,c),
(535,513,l),
(530,603,o),
(444,712,o),
(299,712,cs),
(142,712,o),
(67,618,o),
(67,516,cs),
(67,259,o),
(481,382,o),
(481,186,cs),
(481,114,o),
(426,44,o),
(305,44,cs),
(182,44,o),
(127,121,o),
(111,214,c),
(44,214,l),
(57,99,o),
(141,-12,o),
(305,-12,cs)
);
}
);
width = 596;
},
{
anchors = (
{
name = bottom;
pos = (313,-12);
},
{
name = top;
pos = (310,712);
}
);
layerId = m002;
shapes = (
{
closed = 1;
nodes = (
(453,-12,o),
(559,58,o),
(559,195,cs),
(559,457,o),
(165,344,o),
(165,521,cs),
(165,591,o),
(233,632,o),
(303,632,cs),
(398,632,o),
(446,572,o),
(456,513,c),
(549,513,l),
(544,603,o),
(463,712,o),
(310,712,cs),
(150,712,o),
(73,618,o),
(73,516,cs),
(73,246,o),
(467,371,o),
(467,186,cs),
(467,114,o),
(396,68,o),
(313,68,cs),
(218,68,o),
(163,129,o),
(149,214,c),
(52,214,l),
(65,99,o),
(143,-12,o),
(313,-12,cs)
);
}
);
width = 597;
},
{
anchors = (
{
name = bottom;
pos = (313,-5);
},
{
name = top;
pos = (314,712);
}
);
layerId = m003;
shapes = (
{
closed = 1;
nodes = (
(472,-12,o),
(575,63,o),
(575,200,cs),
(575,459,o),
(212,386,o),
(212,509,cs),
(212,568,o),
(270,582,o),
(314,582,cs),
(370,582,o),
(407,554,o),
(416,505,c),
(569,505,l),
(564,595,o),
(492,712,o),
(314,712,cs),
(137,712,o),
(59,606,o),
(59,504,cs),
(59,234,o),
(421,338,o),
(421,186,cs),
(421,142,o),
(374,118,o),
(313,118,cs),
(257,118,o),
(205,147,o),
(191,222,c),
(35,222,l),
(48,107,o),
(119,-12,o),
(313,-12,cs)
);
}
);
width = 611;
}
);
unicode = 83;
},
{
glyphname = Germandbls;
lastChange = "2024-11-01 00:57:37 +0000";
layers = (
{
layerId = m01;
shapes = (
{
closed = 1;
nodes = (
(160,0,l),
(160,700,l),
(100,700,l),
(100,0,l)
);
},
{
closed = 1;
nodes = (
(202,98,l),
(242,29,o),
(316,-12,o),
(401,-12,cs),
(523,-12,o),
(617,69,o),
(616,204,cs),
(615,320,o),
(534,423,o),
(380,423,c),
(580,639,l),
(580,700,l),
(122,700,l),
(122,644,l),
(507,644,l),
(299,423,l),
(299,370,l),
(356,370,ls),
(485,370,o),
(555,305,o),
(555,208,cs),
(555,124,o),
(503,44,o),
(401,44,cs),
(327,44,o),
(280,76,o),
(254,128,c)
);
}
);
width = 667;
},
{
layerId = m002;
shapes = (
{
closed = 1;
nodes = (
(197,0,l),
(197,700,l),
(109,700,l),
(109,0,l)
);
},
{
closed = 1;
nodes = (
(236,91,l),
(263,31,o),
(331,-12,o),
(426,-12,cs),
(561,-12,o),
(641,77,o),
(641,210,cs),
(641,312,o),
(561,414,o),
(426,414,c),
(598,615,l),
(598,700,l),
(174,700,l),
(174,620,l),
(492,620,l),
(315,414,l),
(315,346,l),
(374,346,ls),
(482,346,o),
(549,295,o),
(549,200,cs),
(549,114,o),
(494,68,o),
(426,68,cs),
(366,68,o),
(330,105,o),
(316,139,c)
);
}
);
width = 699;
},
{
layerId = m003;
shapes = (
{
closed = 1;
nodes = (
(255,0,l),
(255,700,l),
(109,700,l),
(109,0,l)
);
},
{
closed = 1;
nodes = (
(290,92,l),
(327,21,o),
(406,-13,o),
(493,-13,cs),
(656,-13,o),
(722,92,o),
(722,218,cs),
(722,331,o),
(634,423,o),
(533,423,c),
(680,574,l),
(680,700,l),
(184,700,l),
(184,574,l),
(517,574,l),
(370,422,l),
(370,317,l),
(442,317,ls),
(517,317,o),
(577,288,o),
(577,217,cs),
(577,155,o),
(537,117,o),
(489,117,cs),
(452,117,o),
(422,133,o),
(406,166,c)
);
}
);
width = 760;
}
);
unicode = 7838;
},
{
glyphname = T;
kernLeft = T;
kernRight = T;
lastChange = "2025-01-01 08:41:32 +0000";
layers = (
{
anchors = (
{
name = bottom;
pos = (250,0);
},
{
name = top;
pos = (250,700);
}
);
layerId = m01;
shapes = (
{
closed = 1;
nodes = (
(282,0,l),
(282,644,l),
(484,644,l),
(484,700,l),
(16,700,l),
(16,644,l),
(218,644,l),
(218,0,l)
);
}
);
width = 500;
},
{
anchors = (
{
name = bottom;
pos = (283,0);
},
{
name = top;
pos = (283,700);
}
);
layerId = m002;
shapes = (
{
closed = 1;
nodes = (
(327,0,l),
(327,620,l),
(516,620,l),
(516,700,l),
(50,700,l),
(50,620,l),
(239,620,l),
(239,0,l)
);
}
);
width = 562;
},
{
anchors = (
{
name = bottom;
pos = (300,0);
},
{
name = top;
pos = (296,700);
}
);
layerId = m003;
shapes = (
{
closed = 1;
nodes = (
(369,0,l),
(369,574,l),
(556,574,l),
(556,700,l),
(40,700,l),
(40,574,l),
(223,574,l),
(223,0,l)
);
}
);
width = 596;
}
);
unicode = 84;
},
{
glyphname = U;
lastChange = "2025-01-01 06:29:39 +0000";
layers = (
{
anchors = (
{
name = bottom;
pos = (336,-12);
},
{
name = top;
pos = (336,713);
}
);
layerId = m01;
shapes = (
{
closed = 1;
nodes = (
(483,-12,o),
(576,94,o),
(576,275,cs),
(576,701,l),
(516,701,l),
(516,275,ls),
(516,121,o),
(439,44,o),
(333,44,cs),
(229,44,o),
(150,121,o),
(150,275,cs),
(150,701,l),
(90,701,l),
(90,275,ls),
(90,94,o),
(184,-12,o),
(337,-12,cs)
);
}
);
width = 666;
},
{
anchors = (
{
name = bottom;
pos = (342,-12);
},
{
name = top;
pos = (342,713);
}
);
layerId = m002;
shapes = (
{
closed = 1;
nodes = (
(509,-12,o),
(594,98,o),
(594,275,cs),
(594,701,l),
(506,701,l),
(506,275,ls),
(506,139,o),
(432,73,o),
(340,73,cs),
(244,73,o),
(174,139,o),
(174,275,cs),
(174,701,l),
(86,701,l),
(86,275,ls),
(86,98,o),
(182,-12,o),
(344,-12,cs)
);
}
);
width = 680;
},
{
anchors = (
{
name = bottom;
pos = (351,-12);
},
{
name = top;
pos = (351,700);
}
);
layerId = m003;
shapes = (
{
closed = 1;
nodes = (
(527,-12,o),
(626,98,o),
(626,275,cs),
(626,701,l),
(480,701,l),
(480,275,ls),
(480,184,o),
(434,118,o),
(347,118,cs),
(256,118,o),
(214,184,o),
(214,275,cs),
(214,701,l),
(68,701,l),
(68,275,ls),
(68,98,o),
(178,-12,o),
(351,-12,cs)
);
}
);
width = 694;
}
);
unicode = 85;
},
{
glyphname = Uhorn;
kernLeft = U;
kernRight = Uhorn;
lastChange = "2024-11-21 10:11:11 +0000";
layers = (
{
layerId = m01;
shapes = (
{
ref = U;
},
{
closed = 1;
nodes = (
(662,652,o),
(746,730,o),
(697,852,c),
(636,833,l),
(667,763,o),
(639,701,o),
(575,701,c),
(575,652,l)
);
}
);
width = 701;
},
{
layerId = m002;
shapes = (
{
ref = U;
},
{
closed = 1;
nodes = (
(714,647,o),
(776,730,o),
(727,852,c),
(647,830,l),
(676,771,o),
(672,701,o),
(591,701,c),
(591,647,l)
);
}
);
width = 744;
},
{
layerId = m003;
shapes = (
{
ref = U;
},
{
closed = 1;
nodes = (
(757,620,o),
(845,729,o),
(791,864,c),
(677,833,l),
(706,774,o),
(705,701,o),
(624,701,c),
(624,620,l)
);
}
);
width = 777;
}
);
unicode = 431;
},
{
glyphname = V;
kernLeft = V;
kernRight = V;
lastChange = "2025-01-01 06:26:08 +0000";
layers = (
{
layerId = m01;
shapes = (
{
closed = 1;
nodes = (
(257,0,l),
(319,0,l),
(79,700,l),
(8,700,l)
);
},
{
closed = 1;
nodes = (
(261,0,l),
(319,0,l),
(568,700,l),
(504,700,l)
);
}
);
width = 579;
},
{
layerId = m002;
shapes = (
{
closed = 1;
nodes = (
(253,0,l),
(339,0,l),
(106,700,l),
(8,700,l)
);
},
{
closed = 1;
nodes = (
(259,0,l),
(339,0,l),
(583,700,l),
(497,700,l)
);
}
);
width = 590;
},
{
layerId = m003;
shapes = (
{
closed = 1;
nodes = (
(247,0,l),
(397,0,l),
(160,700,l),
(2,700,l)
);
},
{
closed = 1;
nodes = (
(279,0,l),
(417,0,l),
(661,700,l),
(509,700,l)
);
}
);
width = 663;
}
);
unicode = 86;
},
{
glyphname = W;
kernLeft = V;
kernRight = V;
lastChange = "2025-01-01 07:00:56 +0000";
layers = (
{
anchors = (
{
name = bottom;
pos = (474,0);
},
{
name = top;
pos = (474,700);
}
);
guides = (
{
angle = 270;
pos = (268,658);
},
{
angle = 270;
pos = (474,649);
},
{
angle = 270;
pos = (695,658);
}
);
layerId = m01;
shapes = (
{
closed = 1;
nodes = (
(305,0,l),
(485,638,l),
(468,638,l),
(653,0,l),
(732,0,l),
(926,700,l),
(863,700,l),
(687,48,l),
(703,48,l),
(523,700,l),
(440,700,l),
(260,48,l),
(276,48,l),
(102,700,l),
(32,700,l),
(224,0,l)
);
}
);
width = 958;
},
{
anchors = (
{
name = bottom;
pos = (469,0);
},
{
name = top;
pos = (478,700);
}
);
guides = (
{
angle = 89.2931;
pos = (265,413);
},
{
angle = 89.2931;
pos = (474,411);
},
{
angle = 89.2931;
pos = (696,411);
}
);
layerId = m002;
shapes = (
{
closed = 1;
nodes = (
(318,0,l),
(490,616,l),
(464,616,l),
(636,0,l),
(751,0,l),
(926,700,l),
(833,700,l),
(679,59,l),
(708,59,l),
(532,700,l),
(422,700,l),
(246,59,l),
(275,59,l),
(121,700,l),
(28,700,l),
(203,0,l)
);
}
);
width = 954;
},
{
anchors = (
{
name = bottom;
pos = (491,0);
},
{
name = top;
pos = (491,700);
}
);
guides = (
{
angle = 270;
pos = (287,528);
},
{
angle = 270;
pos = (491,528);
},
{
angle = 270;
pos = (696,528);
}
);
layerId = m003;
shapes = (
{
closed = 1;
nodes = (
(362,0,l),
(509,567,l),
(473,567,l),
(622,0,l),
(786,0,l),
(967,700,l),
(810,700,l),
(677,129,l),
(717,129,l),
(573,700,l),
(409,700,l),
(267,129,l),
(306,129,l),
(173,700,l),
(16,700,l),
(198,0,l)
);
}
);
width = 983;
},
{
associatedMasterId = m002;
layerId = "61F56607-383A-4625-9FCC-44CDCF2F703C";
name = "14 Jul 24 at 12:33";
shapes = (
{
closed = 1;
nodes = (
(293,0,l),
(463,569,l),
(633,0,l),
(748,0,l),
(898,700,l),
(805,700,l),
(688,116,l),
(517,700,l),
(409,700,l),
(238,116,l),
(121,700,l),
(28,700,l),
(178,0,l)
);
}
);
width = 926;
},
{
associatedMasterId = m003;
layerId = "5ACD06B8-073E-40FC-B562-77ADC4AD2B58";
name = "14 Jul 24 at 12:35";
shapes = (
{
closed = 1;
nodes = (
(332,0,l),
(168,0,l),
(18,700,l),
(175,700,l),
(262,213,l),
(408,700,l),
(556,700,l),
(702,213,l),
(789,700,l),
(946,700,l),
(796,0,l),
(632,0,l),
(482,485,l)
);
}
);
width = 964;
}
);
unicode = 87;
},
{
glyphname = X;
lastChange = "2025-01-01 08:41:50 +0000";
layers = (
{
layerId = m01;
shapes = (
{
closed = 1;
nodes = (
(573,-1,l),
(112,699,l),
(41,699,l),
(503,-1,l)
);
},
{
closed = 1;
nodes = (
(90,-1,l),
(550,699,l),
(479,699,l),
(20,-1,l)
);
}
);
width = 593;
},
{
layerId = m002;
shapes = (
{
closed = 1;
nodes = (
(580,0,l),
(127,700,l),
(26,700,l),
(480,0,l)
);
},
{
closed = 1;
nodes = (
(115,0,l),
(569,700,l),
(469,700,l),
(16,0,l)
);
}
);
width = 596;
},
{
layerId = m003;
shapes = (
{
closed = 1;
nodes = (
(636,0,l),
(166,700,l),
(7,700,l),
(478,0,l)
);
},
{
closed = 1;
nodes = (
(164,0,l),
(634,700,l),
(475,700,l),
(6,0,l)
);
}
);
width = 642;
}
);
unicode = 88;
},
{
glyphname = Y;
lastChange = "2025-01-01 07:01:17 +0000";
layers = (
{
anchors = (
{
name = bottom;
pos = (286,0);
},
{
name = top;
pos = (286,700);
}
);
layerId = m01;
shapes = (
{
closed = 1;
nodes = (
(317,0,l),
(314,294,l),
(558,700,l),
(491,700,l),
(286,350,l),
(80,700,l),
(6,700,l),
(257,294,l),
(254,0,l)
);
}
);
width = 564;
},
{
anchors = (
{
name = bottom;
pos = (294,0);
},
{
name = top;
pos = (294,700);
}
);
layerId = m002;
shapes = (
{
closed = 1;
nodes = (
(339,0,l),
(336,294,l),
(577,700,l),
(484,700,l),
(293,375,l),
(105,700,l),
(5,700,l),
(254,294,l),
(251,0,l)
);
}
);
width = 582;
},
{
anchors = (
{
name = bottom;
pos = (324,0);
},
{
name = top;
pos = (323,700);
}
);
layerId = m003;
shapes = (
{
closed = 1;
nodes = (
(397,0,l),
(394,289,l),
(645,700,l),
(487,700,l),
(323,411,l),
(161,700,l),
(0,700,l),
(253,289,l),
(250,0,l)
);
}
);
width = 645;
}
);
unicode = 89;
},
{
glyphname = Z;
lastChange = "2025-01-01 07:01:22 +0000";
layers = (
{
anchors = (
{
name = bottom;
pos = (264,0);
},
{
name = top;
pos = (264,700);
}
);
layerId = m01;
shapes = (
{
closed = 1;
nodes = (
(483,1,l),
(483,57,l),
(114,57,l),
(483,642,l),
(483,700,l),
(46,700,l),
(46,644,l),
(416,644,l),
(46,59,l),
(46,1,l)
);
}
);
width = 533;
},
{
anchors = (
{
name = bottom;
pos = (271,0);
},
{
name = top;
pos = (271,700);
}
);
layerId = m002;
shapes = (
{
closed = 1;
nodes = (
(495,1,l),
(495,81,l),
(150,81,l),
(495,618,l),
(495,700,l),
(46,700,l),
(46,620,l),
(391,620,l),
(46,83,l),
(46,1,l)
);
}
);
width = 545;
},
{
anchors = (
{
name = bottom;
pos = (271,0);
},
{
name = top;
pos = (271,700);
}
);
layerId = m003;
shapes = (
{
closed = 1;
nodes = (
(517,1,l),
(517,127,l),
(199,127,l),
(517,578,l),
(517,700,l),
(30,700,l),
(30,574,l),
(350,574,l),
(30,123,l),
(30,1,l)
);
}
);
width = 549;
}
);
unicode = 90;
},
{
glyphname = a;
kernLeft = a;
kernRight = a;
lastChange = "2026-03-31 13:56:05 +0000";
layers = (
{
anchors = (
{
name = bottom;
pos = (265,-10);
},
{
name = top;
pos = (265,512);
}
);
layerId = m01;
shapes = (
{
closed = 1;
nodes = (
(354,-12,o),
(399,97,o),
(399,97,c),
(399,8,o),
(455,-12,o),
(518,0,c),
(518,48,l),
(496,48,o),
(455,43,o),
(455,97,cs),
(455,338,ls),
(455,450,o),
(391,512,o),
(255,512,cs),
(176,512,o),
(104,476,o),
(65,400,c),
(117,373,l),
(138,420,o),
(186,460,o),
(255,460,cs),
(357,460,o),
(399,409,o),
(399,333,cs),
(399,318,l),
(171,318,o),
(42,278,o),
(42,135,cs),
(42,43,o),
(114,-12,o),
(198,-12,cs)
);
},
{
closed = 1;
nodes = (
(143,38,o),
(100,81,o),
(100,131,cs),
(100,228,o),
(174,268,o),
(399,268,c),
(399,233,ls),
(399,132,o),
(322,38,o),
(206,38,cs)
);
}
);
width = 543;
},
{
anchors = (
{
name = bottom;
pos = (317,-10);
},
{
name = top;
pos = (318,520);
}
);
layerId = m003;
shapes = (
{
closed = 1;
nodes = (
(363,-12,o),
(380,97,o),
(380,97,c),
(400,-25,o),
(532,-10,o),
(576,7,c),
(576,124,l),
(527,116,o),
(513,121,o),
(513,168,cs),
(513,340,ls),
(513,451,o),
(435,520,o),
(285,520,cs),
(164,520,o),
(89,459,o),
(65,387,c),
(170,342,l),
(184,385,o),
(222,412,o),
(277,412,cs),
(345,412,o),
(380,383,o),
(380,331,cs),
(380,327,l),
(163,327,o),
(40,273,o),
(40,144,cs),
(40,51,o),
(113,-12,o),
(227,-12,cs)
);
},
{
closed = 1;
nodes = (
(227,93,o),
(180,109,o),
(180,151,cs),
(180,199,o),
(208,239,o),
(380,239,c),
(380,206,ls),
(380,124,o),
(318,93,o),
(248,93,cs)
);
}
);
width = 611;
},
{
anchors = (
{
name = bottom;
pos = (271,-10);
},
{
name = top;
pos = (271,512);
}
);
layerId = m002;
shapes = (
{
closed = 1;
nodes = (
(350,-12,o),
(391,96,o),
(391,96,c),
(391,12,o),
(461,-12,o),
(537,0,c),
(538,80,l),
(494,80,o),
(475,80,o),
(475,120,cs),
(475,330,ls),
(475,445,o),
(401,512,o),
(264,512,cs),
(153,512,o),
(91,462,o),
(61,392,c),
(130,356,l),
(147,413,o),
(205,442,o),
(260,442,cs),
(330,442,o),
(391,414,o),
(391,339,cs),
(391,326,l),
(135,326,o),
(42,261,o),
(42,141,cs),
(42,49,o),
(117,-12,o),
(200,-12,cs)
);
},
{
closed = 1;
nodes = (
(169,62,o),
(124,96,o),
(124,141,cs),
(124,210,o),
(167,260,o),
(391,260,c),
(391,225,ls),
(391,120,o),
(278,62,o),
(216,62,cs)
);
}
);
width = 578;
},
{
associatedMasterId = m003;
layerId = "75EC2996-E87C-4405-B059-48FBE7BE3912";
name = "6 May 24 at 07:51";
shapes = (
{
closed = 1;
nodes = (
(198,190,o),
(236,239,o),
(423,239,c),
(423,208,ls),
(423,126,o),
(351,93,o),
(281,93,cs),
(245,93,o),
(198,109,o),
(198,142,cs)
);
},
{
closed = 1;
nodes = (
(58,51,o),
(131,-12,o),
(245,-12,cs),
(391,-12,o),
(430,97,o),
(430,97,c),
(430,37,o),
(469,0,o),
(544,0,cs),
(569,0,o),
(613,4,o),
(627,12,c),
(627,107,l),
(577,96,o),
(563,114,o),
(563,154,cs),
(563,340,ls),
(563,459,o),
(444,520,o),
(315,520,cs),
(135,520,o),
(71,393,o),
(71,393,c),
(175,339,l),
(192,368,o),
(237,405,o),
(307,405,cs),
(373,405,o),
(423,366,o),
(423,331,cs),
(423,329,l),
(187,329,o),
(58,273,o),
(58,144,cs)
);
}
);
width = 629;
}
);
unicode = 97;
},
{
glyphname = ae;
kernLeft = o;
kernRight = e;
lastChange = "2025-01-01 06:42:54 +0000";
layers = (
{
anchors = (
{
name = top;
pos = (452,512);
}
);
layerId = m01;
shapes = (
{
closed = 1;
nodes = (
(778,-13,o),
(845,62,o),
(870,144,c),
(817,154,l),
(798,100,o),
(749,37,o),
(653,37,cs),
(534,37,o),
(472,118,o),
(472,245,cs),
(472,368,o),
(520,462,o),
(650,462,cs),
(757,462,o),
(812,381,o),
(812,302,c),
(461,302,l),
(461,252,l),
(872,252,l),
(872,267,l),
(872,422,o),
(774,512,o),
(646,512,cs),
(509,512,o),
(423,412,o),
(423,248,cs),
(423,87,o),
(503,-13,o),
(649,-13,cs)
);
},
{
closed = 1;
nodes = (
(341,-12,o),
(440,65,o),
(440,163,c),
(464,145,l),
(464,338,ls),
(464,450,o),
(408,512,o),
(272,512,cs),
(193,512,o),
(121,476,o),
(82,400,c),
(134,373,l),
(155,420,o),
(203,460,o),
(272,460,cs),
(374,460,o),
(423,409,o),
(416,333,cs),
(413,301,l),
(173,301,o),
(56,271,o),
(56,132,cs),
(56,40,o),
(137,-12,o),
(221,-12,cs)
);
},
{
closed = 1;
nodes = (
(160,38,o),
(117,81,o),
(117,131,cs),
(117,228,o),
(176,251,o),
(413,251,c),
(413,230,ls),
(413,129,o),
(339,38,o),
(223,38,cs)
);
}
);
width = 924;
},
{
anchors = (
{
name = top;
pos = (471,512);
}
);
layerId = m002;
shapes = (
{
closed = 1;
nodes = (
(793,-13,o),
(861,55,o),
(886,137,c),
(804,151,l),
(785,97,o),
(729,63,o),
(672,63,cs),
(547,63,o),
(514,152,o),
(514,247,cs),
(514,369,o),
(560,436,o),
(669,436,cs),
(763,436,o),
(802,360,o),
(802,311,c),
(509,311,l),
(509,241,l),
(888,241,l),
(888,261,l),
(888,434,o),
(789,512,o),
(665,512,cs),
(528,512,o),
(441,414,o),
(441,250,cs),
(441,89,o),
(528,-13,o),
(668,-13,cs)
);
},
{
closed = 1;
nodes = (
(353,-12,o),
(458,73,o),
(458,147,c),
(484,148,l),
(484,332,ls),
(484,447,o),
(422,512,o),
(290,512,cs),
(179,512,o),
(117,462,o),
(87,392,c),
(156,356,l),
(173,413,o),
(231,442,o),
(286,442,cs),
(356,442,o),
(417,414,o),
(417,339,cs),
(417,313,l),
(161,313,o),
(68,261,o),
(68,141,cs),
(68,49,o),
(148,-12,o),
(231,-12,cs)
);
},
{
closed = 1;
nodes = (
(195,62,o),
(150,96,o),
(150,141,cs),
(150,210,o),
(193,247,o),
(417,247,c),
(417,215,ls),
(417,110,o),
(304,62,o),
(242,62,cs)
);
}
);
width = 941;
},
{
anchors = (
{
name = top;
pos = (461,520);
}
);
layerId = m003;
shapes = (
{
closed = 1;
nodes = (
(732,-13,o),
(828,23,o),
(875,134,c),
(743,173,l),
(724,130,o),
(677,107,o),
(647,107,cs),
(558,107,o),
(519,164,o),
(519,256,cs),
(519,337,o),
(558,400,o),
(642,400,cs),
(709,400,o),
(747,346,o),
(747,311,c),
(486,311,l),
(487,225,l),
(890,225,l),
(890,248,l),
(890,418,o),
(793,520,o),
(643,520,cs),
(512,520,o),
(400,436,o),
(400,256,cs),
(400,82,o),
(510,-13,o),
(645,-13,cs)
);
},
{
closed = 1;
nodes = (
(457,-12,o),
(460,173,o),
(460,173,c),
(488,174,l),
(488,340,ls),
(488,451,o),
(435,520,o),
(285,520,cs),
(164,520,o),
(89,459,o),
(65,387,c),
(170,342,l),
(184,385,o),
(222,412,o),
(277,412,cs),
(345,412,o),
(380,374,o),
(380,322,cs),
(380,318,l),
(156,318,o),
(40,273,o),
(40,144,cs),
(40,51,o),
(113,-12,o),
(227,-12,cs)
);
},
{
closed = 1;
nodes = (
(227,93,o),
(180,109,o),
(180,151,cs),
(180,199,o),
(208,226,o),
(380,226,c),
(380,206,ls),
(380,124,o),
(318,93,o),
(248,93,cs)
);
}
);
width = 935;
}
);
unicode = 230;
},
{
glyphname = b;
kernRight = o;
lastChange = "2026-03-31 13:35:18 +0000";
layers = (
{
layerId = m01;
shapes = (
{
closed = 1;
nodes = (
(152,700,l),
(96,700,l),
(96,0,l),
(152,0,l),
(152,98,l),
(172,43,o),
(241,-12,o),
(326,-12,cs),
(451,-12,o),
(538,81,o),
(538,250,cs),
(538,414,o),
(443,512,o),
(326,512,cs),
(235,512,o),
(172,457,o),
(152,402,c)
);
},
{
closed = 1;
nodes = (
(413,462,o),
(479,376,o),
(479,248,cs),
(479,123,o),
(427,38,o),
(314,38,cs),
(235,38,o),
(152,108,o),
(151,250,c),
(152,392,o),
(235,462,o),
(314,462,cs)
);
}
);
width = 600;
},
{
layerId = m002;
shapes = (
{
closed = 1;
nodes = (
(176,700,l),
(92,700,l),
(92,0,l),
(176,0,l),
(176,98,l),
(195,43,o),
(247,-12,o),
(335,-12,cs),
(474,-12,o),
(561,81,o),
(561,250,cs),
(561,414,o),
(474,512,o),
(340,512,cs),
(271,512,o),
(198,476,o),
(176,407,c)
);
},
{
closed = 1;
nodes = (
(428,436,o),
(476,352,o),
(476,248,cs),
(476,144,o),
(428,63,o),
(330,63,cs),
(231,63,o),
(177,140,o),
(177,250,cs),
(177,352,o),
(231,436,o),
(327,436,cs)
);
}
);
width = 614;
},
{
layerId = m003;
shapes = (
{
closed = 1;
nodes = (
(221,700,l),
(81,700,l),
(80,0,l),
(221,0,l),
(221,93,l),
(247,38,o),
(302,-12,o),
(380,-12,cs),
(511,-12,o),
(599,87,o),
(599,255,cs),
(599,420,o),
(516,520,o),
(385,520,cs),
(302,520,o),
(247,479,o),
(221,425,c)
);
},
{
closed = 1;
nodes = (
(407,413,o),
(453,351,o),
(453,255,cs),
(453,168,o),
(407,98,o),
(335,98,cs),
(267,98,o),
(221,167,o),
(221,255,cs),
(221,350,o),
(267,411,o),
(335,412,cs)
);
}
);
width = 633;
}
);
unicode = 98;
},
{
glyphname = c;
kernLeft = o;
lastChange = "2025-01-08 14:12:06 +0000";
layers = (
{
anchors = (
{
name = bottom;
pos = (284,-12);
},
{
name = top;
pos = (280,512);
}
);
layerId = m01;
shapes = (
{
closed = 1;
nodes = (
(435,468,o),
(363,512,o),
(280,512,cs),
(160,512,o),
(56,422,o),
(56,250,cs),
(56,78,o),
(160,-12,o),
(280,-12,cs),
(380,-12,o),
(432,35,o),
(471,121,c),
(419,142,l),
(398,86,o),
(351,38,o),
(280,38,cs),
(173,38,o),
(114,121,o),
(114,250,cs),
(114,379,o),
(173,462,o),
(280,462,cs),
(350,462,o),
(401,413,o),
(422,363,c),
(474,383,l)
);
}
);
width = 518;
},
{
anchors = (
{
name = bottom;
pos = (275,-12);
},
{
name = top;
pos = (292,512);
}
);
layerId = m002;
shapes = (
{
closed = 1;
nodes = (
(455,464,o),
(380,512,o),
(292,512,c),
(166,512,o),
(54,424,o),
(54,248,cs),
(54,74,o),
(166,-13,o),
(292,-13,cs),
(393,-13,o),
(455,37,o),
(490,120,c),
(414,150,l),
(393,99,o),
(350,63,o),
(290,63,cs),
(186,63,o),
(138,140,o),
(138,251,cs),
(138,359,o),
(185,436,o),
(290,436,cs),
(350,436,o),
(393,402,o),
(414,351,c),
(490,381,l)
);
}
);
width = 536;
},
{
anchors = (
{
name = bottom;
pos = (291,-12);
},
{
name = top;
pos = (309,520);
}
);
layerId = m003;
shapes = (
{
closed = 1;
nodes = (
(479,473,o),
(401,520,o),
(313,520,cs),
(150,520,o),
(44,420,o),
(44,254,cs),
(44,88,o),
(150,-12,o),
(313,-12,cs),
(401,-12,o),
(479,35,o),
(518,127,c),
(402,173,l),
(390,141,o),
(354,108,o),
(308,108,cs),
(236,108,o),
(190,163,o),
(190,255,cs),
(190,347,o),
(236,400,o),
(308,400,cs),
(354,400,o),
(390,367,o),
(402,335,c),
(518,381,l)
);
}
);
width = 550;
},
{
associatedMasterId = m01;
layerId = "D6DBBF6B-18E3-4F95-B026-A0427CA97C42";
name = "26 Mar 24 at 21:35";
visible = 1;
width = 529;
}
);
unicode = 99;
},
{
glyphname = d;
kernLeft = o;
lastChange = "2026-03-31 13:43:53 +0000";
layers = (
{
anchors = (
{
name = bottom;
pos = (304,-12);
}
);
layerId = m01;
shapes = (
{
closed = 1;
nodes = (
(442,-4,o),
(502,-19,o),
(561,-9,c),
(561,39,l),
(532,39,o),
(498,38,o),
(498,88,c),
(498,700,l),
(442,700,l),
(442,404,l),
(419,473,o),
(334,512,o),
(268,512,c),
(151,512,o),
(56,414,o),
(56,250,c),
(56,81,o),
(145,-12,o),
(268,-12,c),
(334,-12,o),
(419,19,o),
(442,88,c)
);
},
{
closed = 1;
nodes = (
(167,38,o),
(115,123,o),
(115,248,c),
(115,376,o),
(181,462,o),
(280,462,c),
(376,462,o),
(442,388,o),
(443,250,c),
(442,112,o),
(376,38,o),
(280,38,c)
);
}
);
width = 600;
},
{
anchors = (
{
name = bottom;
pos = (327,-12);
}
);
layerId = m002;
shapes = (
{
closed = 1;
nodes = (
(456,0,o),
(517,-12,o),
(585,7,c),
(585,79,l),
(546,75,o),
(522,80,o),
(522,133,cs),
(522,700,l),
(438,700,l),
(438,406,l),
(419,461,o),
(367,512,o),
(279,512,cs),
(140,512,o),
(53,419,o),
(53,250,cs),
(53,86,o),
(136,-12,o),
(274,-12,cs),
(343,-12,o),
(420,25,o),
(442,94,c)
);
},
{
closed = 1;
nodes = (
(186,64,o),
(138,148,o),
(138,252,cs),
(138,356,o),
(186,437,o),
(284,437,cs),
(383,437,o),
(437,360,o),
(437,250,cs),
(437,148,o),
(383,64,o),
(287,64,cs)
);
}
);
width = 617;
},
{
anchors = (
{
name = bottom;
pos = (325,-12);
}
);
layerId = m003;
shapes = (
{
closed = 1;
nodes = (
(445,-12,o),
(548,-29,o),
(622,14,c),
(622,124,l),
(587,116,o),
(559,128,o),
(559,168,cs),
(560,700,l),
(420,700,l),
(420,415,l),
(394,470,o),
(344,520,o),
(261,520,cs),
(130,520,o),
(42,421,o),
(42,253,cs),
(42,88,o),
(125,-12,o),
(256,-12,cs),
(344,-12,o),
(396,32,o),
(424,101,c)
);
},
{
closed = 1;
nodes = (
(235,95,o),
(189,157,o),
(189,253,cs),
(189,340,o),
(235,410,o),
(307,410,cs),
(375,410,o),
(421,341,o),
(421,253,cs),
(421,158,o),
(375,97,o),
(307,96,cs)
);
}
);
width = 660;
},
{
associatedMasterId = m01;
layerId = "F3AABDD4-5D52-40E7-9352-25D68A3D59C9";
name = "5 Apr 24 at 08:05";
shapes = (
{
closed = 1;
nodes = (
(378,462,o),
(444,388,o),
(445,250,cs),
(444,108,o),
(361,38,o),
(282,38,cs),
(169,38,o),
(117,123,o),
(117,248,cs),
(117,376,o),
(183,462,o),
(282,462,cs)
);
},
{
closed = 1;
nodes = (
(500,700,l),
(444,700,l),
(444,404,l),
(421,473,o),
(336,512,o),
(270,512,cs),
(153,512,o),
(58,414,o),
(58,250,cs),
(58,81,o),
(153,-12,o),
(270,-12,cs),
(355,-12,o),
(424,41,o),
(444,96,c),
(444,25,o),
(484,0,o),
(523,-1,cs),
(548,-2,o),
(558,3,o),
(572,11,c),
(572,64,l),
(529,48,o),
(500,69,o),
(500,119,cs)
);
}
);
width = 652;
}
);
unicode = 100;
},
{
glyphname = dcaron;
lastChange = "2024-11-01 00:50:46 +0000";
layers = (
{
layerId = m01;
shapes = (
{
ref = d;
},
{
closed = 1;
nodes = (
(667,700,l),
(574,700,l),
(561,582,l),
(611,582,l)
);
}
);
width = 667;
},
{
layerId = m002;
shapes = (
{
ref = d;
},
{
closed = 1;
nodes = (
(708,701,l),
(598,701,l),
(587,564,l),
(659,564,l)
);
}
);
width = 708;
},
{
layerId = m003;
shapes = (
{
ref = d;
},
{
closed = 1;
nodes = (
(760,701,l),
(630,701,l),
(611,531,l),
(706,531,l)
);
}
);
width = 760;
}
);
unicode = 271;
},
{
glyphname = dcroat;
lastChange = "2024-09-20 10:31:53 +0000";
layers = (
{
layerId = m01;
shapes = (
{
ref = d;
},
{
closed = 1;
nodes = (
(311,562,l),
(577,562,l),
(577,609,l),
(311,609,l)
);
}
);
width = 617;
},
{
layerId = m002;
shapes = (
{
ref = d;
},
{
closed = 1;
nodes = (
(302,564,l),
(611,564,l),
(611,632,l),
(302,632,l)
);
}
);
width = 653;
},
{
layerId = m003;
shapes = (
{
ref = d;
},
{
closed = 1;
nodes = (
(298,540,l),
(641,540,l),
(641,640,l),
(298,640,l)
);
}
);
width = 679;
}
);
unicode = 273;
},
{
glyphname = eth;
kernLeft = o;
kernRight = o;
lastChange = "2025-01-01 06:43:10 +0000";
layers = (
{
anchors = (
{
name = bottom;
pos = (281,0);
},
{
name = top;
pos = (281,720);
}
);
layerId = m01;
shapes = (
{
closed = 1;
nodes = (
(431,-12,o),
(505,105,o),
(505,289,cs),
(505,472,o),
(438,622,o),
(228,713,c),
(202,664,l),
(259,647,o),
(428,542,o),
(438,389,c),
(409,453,o),
(346,489,o),
(274,489,cs),
(160,489,o),
(56,405,o),
(56,239,cs),
(56,72,o),
(160,-12,o),
(274,-12,cs)
);
},
{
closed = 1;
nodes = (
(173,38,o),
(115,113,o),
(115,239,cs),
(115,365,o),
(173,439,o),
(274,439,cs),
(367,439,o),
(434,365,o),
(434,239,cs),
(434,113,o),
(375,38,o),
(274,38,cs)
);
},
{
closed = 1;
nodes = (
(464,635,l),
(443,678,l),
(206,562,l),
(228,519,l)
);
}
);
width = 561;
},
{
anchors = (
{
name = bottom;
pos = (288,0);
},
{
name = top;
pos = (288,720);
}
);
layerId = m002;
shapes = (
{
closed = 1;
nodes = (
(442,-12,o),
(519,120,o),
(519,284,cs),
(519,529,o),
(408,654,o),
(242,725,c),
(207,660,l),
(260,640,o),
(403,558,o),
(419,429,c),
(383,471,o),
(325,488,o),
(281,488,cs),
(167,488,o),
(56,402,o),
(56,238,cs),
(56,74,o),
(160,-12,o),
(284,-12,cs)
);
},
{
closed = 1;
nodes = (
(192,60,o),
(140,128,o),
(140,238,cs),
(140,348,o),
(194,416,o),
(284,416,cs),
(377,416,o),
(429,348,o),
(429,238,cs),
(429,128,o),
(377,60,o),
(284,60,cs)
);
},
{
closed = 1;
nodes = (
(489,644,l),
(460,702,l),
(207,571,l),
(236,512,l)
);
}
);
width = 575;
},
{
anchors = (
{
name = bottom;
pos = (292,0);
},
{
name = top;
pos = (292,720);
}
);
layerId = m003;
shapes = (
{
closed = 1;
nodes = (
(452,-12,o),
(548,129,o),
(548,307,cs),
(548,533,o),
(416,677,o),
(225,744,c),
(175,651,l),
(214,642,o),
(375,578,o),
(416,432,c),
(394,466,o),
(333,498,o),
(274,498,cs),
(153,498,o),
(36,419,o),
(36,243,cs),
(36,76,o),
(161,-12,o),
(290,-12,cs)
);
},
{
closed = 1;
nodes = (
(218,108,o),
(178,161,o),
(178,243,cs),
(178,323,o),
(219,378,o),
(287,378,cs),
(365,378,o),
(400,323,o),
(400,243,cs),
(400,161,o),
(364,108,o),
(287,108,cs)
);
},
{
closed = 1;
nodes = (
(500,650,l),
(460,722,l),
(182,583,l),
(221,511,l)
);
}
);
width = 584;
}
);
unicode = 240;
},
{
glyphname = e;
kernLeft = o;
kernRight = o;
lastChange = "2025-01-01 00:32:49 +0000";
layers = (
{
anchors = (
{
name = bottom;
pos = (285,-13);
},
{
name = top;
pos = (285,512);
}
);
layerId = m01;
shapes = (
{
closed = 1;
nodes = (
(422,-13,o),
(489,62,o),
(514,144,c),
(461,154,l),
(442,100,o),
(393,37,o),
(297,37,cs),
(178,37,o),
(116,118,o),
(116,245,cs),
(116,368,o),
(164,462,o),
(294,462,cs),
(401,462,o),
(456,368,o),
(456,289,c),
(105,289,l),
(105,239,l),
(516,239,l),
(516,267,l),
(516,422,o),
(418,512,o),
(290,512,cs),
(153,512,o),
(58,412,o),
(58,248,cs),
(58,87,o),
(147,-13,o),
(293,-13,cs)
);
}
);
width = 568;
},
{
anchors = (
{
name = bottom;
pos = (287,-13);
},
{
name = top;
pos = (287,512);
}
);
layerId = m002;
shapes = (
{
closed = 1;
nodes = (
(421,-13,o),
(489,55,o),
(514,137,c),
(432,151,l),
(413,97,o),
(357,63,o),
(300,63,cs),
(175,63,o),
(142,150,o),
(142,245,cs),
(142,367,o),
(188,436,o),
(297,436,cs),
(391,436,o),
(430,345,o),
(430,304,c),
(137,304,l),
(137,234,l),
(516,234,l),
(516,261,l),
(516,434,o),
(417,512,o),
(293,512,cs),
(156,512,o),
(57,412,o),
(57,248,cs),
(57,87,o),
(156,-13,o),
(296,-13,cs)
);
}
);
width = 569;
},
{
anchors = (
{
name = bottom;
pos = (291,-13);
},
{
name = top;
pos = (291,520);
}
);
layerId = m003;
shapes = (
{
closed = 1;
nodes = (
(388,-13,o),
(484,23,o),
(531,134,c),
(399,173,l),
(380,130,o),
(333,107,o),
(303,107,cs),
(214,107,o),
(175,164,o),
(175,256,cs),
(175,337,o),
(214,400,o),
(298,400,cs),
(365,400,o),
(403,336,o),
(403,301,c),
(142,301,l),
(143,215,l),
(546,215,l),
(546,248,l),
(546,418,o),
(449,520,o),
(299,520,cs),
(168,520,o),
(38,436,o),
(38,256,cs),
(38,82,o),
(166,-13,o),
(301,-13,cs)
);
}
);
width = 591;
},
{
associatedMasterId = m003;
layerId = "35791070-3456-4186-8F4C-DCAEEFC69CEB";
name = "28 Feb 24 at 11:45";
shapes = (
{
closed = 1;
nodes = (
(395,-13,o),
(490,19,o),
(537,122,c),
(402,149,l),
(385,115,o),
(339,107,o),
(309,107,cs),
(216,107,o),
(179,161,o),
(179,253,cs),
(179,334,o),
(216,400,o),
(304,400,cs),
(375,400,o),
(410,335,o),
(410,300,c),
(141,300,l),
(142,210,l),
(553,210,l),
(553,245,l),
(553,415,o),
(456,520,o),
(302,520,cs),
(167,520,o),
(37,436,o),
(37,256,cs),
(37,82,o),
(165,-13,o),
(304,-13,cs)
);
}
);
visible = 1;
width = 582;
},
{
associatedMasterId = m01;
layerId = "DC9D73E7-764C-4C88-8E22-C9A4CAB6D2B5";
name = "26 Mar 24 at 21:50";
shapes = (
{
closed = 1;
nodes = (
(416,-12,o),
(550,70,o),
(550,254,cs),
(550,440,o),
(422,520,o),
(293,520,cs),
(168,520,o),
(34,440,o),
(34,254,cs),
(34,70,o),
(160,-12,o),
(293,-12,cs)
);
},
{
closed = 1;
nodes = (
(219,108,o),
(180,164,o),
(180,254,cs),
(180,342,o),
(220,400,o),
(293,400,cs),
(367,400,o),
(404,342,o),
(404,254,cs),
(404,164,o),
(366,108,o),
(293,108,cs)
);
},
{
closed = 0;
nodes = (
(293,520,l)
);
}
);
visible = 1;
width = 572;
}
);
unicode = 101;
},
{
glyphname = eogonek;
lastChange = "2024-11-01 00:25:12 +0000";
layers = (
{
layerId = m01;
shapes = (
{
ref = e;
},
{
closed = 1;
nodes = (
(467,-143,o),
(492,-134,o),
(506,-121,c),
(482,-70,l),
(453,-92,o),
(406,-78,o),
(406,-40,cs),
(406,-12,o),
(417,3,o),
(474,67,c),
(447,86,l),
(373,49,o),
(343,0,o),
(343,-55,cs),
(343,-110,o),
(387,-143,o),
(441,-143,cs)
);
}
);
width = 568;
},
{
layerId = m002;
shapes = (
{
ref = e;
},
{
closed = 1;
nodes = (
(465,-152,o),
(496,-140,o),
(510,-127,c),
(487,-64,l),
(445,-91,o),
(403,-79,o),
(403,-39,cs),
(403,-10,o),
(431,16,o),
(464,51,c),
(429,83,l),
(361,52,o),
(330,-4,o),
(330,-59,cs),
(330,-116,o),
(376,-152,o),
(429,-152,cs)
);
}
);
width = 569;
},
{
layerId = m003;
shapes = (
{
ref = e;
},
{
closed = 1;
nodes = (
(489,-183,o),
(526,-165,o),
(547,-145,c),
(509,-70,l),
(472,-101,o),
(428,-78,o),
(428,-35,cs),
(428,-15,o),
(437,13,o),
(483,60,c),
(458,96,l),
(361,50,o),
(326,3,o),
(325,-74,cs),
(324,-139,o),
(381,-183,o),
(441,-183,cs)
);
}
);
width = 592;
}
);
unicode = 281;
},
{
glyphname = eopen;
lastChange = "2024-10-21 03:33:22 +0000";
layers = (
{
layerId = m01;
shapes = (
{
closed = 1;
nodes = (
(445,143,l),
(427,76,o),
(363,38,o),
(277,38,cs),
(167,38,o),
(116,79,o),
(116,136,cs),
(116,184,o),
(160,240,o),
(290,240,cs),
(290,240,o),
(348,240,o),
(348,240,c),
(349,294,l),
(291,294,l),
(168,294,o),
(139,339,o),
(139,375,cs),
(139,423,o),
(172,462,o),
(273,462,cs),
(341,462,o),
(391,442,o),
(411,403,c),
(455,425,l),
(422,488,o),
(348,512,o),
(273,512,cs),
(152,512,o),
(81,456,o),
(81,374,cs),
(81,320,o),
(112,278,o),
(154,265,c),
(85,239,o),
(58,184,o),
(58,134,cs),
(58,31,o),
(145,-12,o),
(276,-12,cs),
(381,-12,o),
(471,38,o),
(491,128,c)
);
}
);
width = 543;
},
{
layerId = m002;
shapes = (
{
closed = 1;
nodes = (
(421,159,l),
(402,87,o),
(344,64,o),
(279,64,cs),
(180,64,o),
(141,98,o),
(141,147,cs),
(141,194,o),
(177,239,o),
(287,239,cs),
(287,239,o),
(340,239,o),
(340,239,c),
(341,312,l),
(288,312,l),
(192,312,o),
(163,335,o),
(163,371,cs),
(163,398,o),
(186,436,o),
(278,436,cs),
(321,436,o),
(361,426,o),
(383,387,c),
(449,421,l),
(430,479,o),
(341,512,o),
(274,512,cs),
(143,512,o),
(79,457,o),
(79,375,cs),
(79,321,o),
(113,288,o),
(155,275,c),
(98,252,o),
(57,203,o),
(57,142,cs),
(57,38,o),
(140,-12,o),
(278,-12,cs),
(381,-12,o),
(467,39,o),
(492,139,c)
);
}
);
width = 545;
},
{
layerId = m003;
shapes = (
{
closed = 1;
nodes = (
(404,177,l),
(391,140,o),
(359,108,o),
(289,108,cs),
(212,108,o),
(184,131,o),
(184,164,cs),
(184,201,o),
(211,221,o),
(287,221,cs),
(287,221,o),
(338,221,o),
(338,221,c),
(339,309,l),
(288,309,l),
(238,309,o),
(209,325,o),
(209,354,cs),
(209,381,o),
(230,400,o),
(283,400,cs),
(330,400,o),
(354,382,o),
(363,358,c),
(482,415,l),
(463,479,o),
(375,520,o),
(279,520,cs),
(143,520,o),
(66,461,o),
(66,379,cs),
(66,325,o),
(100,282,o),
(142,269,c),
(68,243,o),
(38,209,o),
(38,148,cs),
(38,44,o),
(137,-12,o),
(288,-12,cs),
(424,-12,o),
(499,56,o),
(524,149,c)
);
}
);
width = 569;
}
);
unicode = 603;
},
{
glyphname = f;
lastChange = "2025-01-01 06:24:31 +0000";
layers = (
{
layerId = m01;
shapes = (
{
closed = 1;
nodes = (
(200,0,l),
(200,450,l),
(327,450,l),
(327,500,l),
(200,500,l),
(200,575,ls),
(200,648,o),
(228,666,o),
(276,666,cs),
(289,666,o),
(306,665,o),
(322,662,c),
(322,712,l),
(305,717,o),
(283,720,o),
(267,720,cs),
(182,720,o),
(144,669,o),
(144,576,cs),
(144,500,l),
(52,500,l),
(52,450,l),
(144,450,l),
(144,0,l)
);
}
);
width = 346;
},
{
layerId = m002;
shapes = (
{
closed = 1;
nodes = (
(227,0,l),
(227,424,l),
(355,424,l),
(355,500,l),
(227,500,l),
(227,575,ls),
(227,629,o),
(254,648,o),
(303,648,cs),
(316,648,o),
(334,647,o),
(350,644,c),
(350,712,l),
(333,717,o),
(310,720,o),
(294,720,cs),
(185,720,o),
(143,669,o),
(143,576,cs),
(143,500,l),
(47,500,l),
(47,424,l),
(143,424,l),
(143,0,l)
);
}
);
width = 375;
},
{
layerId = m003;
shapes = (
{
closed = 1;
nodes = (
(272,0,l),
(272,388,l),
(388,388,l),
(388,508,l),
(272,508,l),
(272,539,ls),
(272,576,o),
(287,604,o),
(336,604,cs),
(349,604,o),
(366,603,o),
(382,600,c),
(383,712,l),
(366,717,o),
(331,720,o),
(296,720,cs),
(213,720,o),
(135,686,o),
(133,576,cs),
(132,508,l),
(32,508,l),
(32,388,l),
(132,388,l),
(132,0,l)
);
}
);
width = 400;
}
);
unicode = 102;
},
{
glyphname = g;
kernLeft = g;
lastChange = "2025-01-08 14:11:44 +0000";
layers = (
{
anchors = (
{
name = top;
pos = (287,512);
}
);
layerId = m01;
shapes = (
{
closed = 1;
nodes = (
(443,-103,o),
(387,-176,o),
(273,-176,cs),
(172,-176,o),
(126,-109,o),
(111,-81,c),
(61,-115,l),
(89,-171,o),
(149,-230,o),
(273,-230,cs),
(398,-230,o),
(499,-175,o),
(499,13,c),
(499,500,l),
(442,500,l),
(442,402,l),
(422,457,o),
(353,512,o),
(268,512,cs),
(151,512,o),
(56,419,o),
(56,250,cs),
(56,86,o),
(149,-12,o),
(268,-12,cs),
(334,-12,o),
(420,27,o),
(443,96,c),
(443,13,ls)
);
},
{
closed = 1;
nodes = (
(181,38,o),
(114,124,o),
(114,252,cs),
(114,377,o),
(167,462,o),
(280,462,cs),
(359,462,o),
(442,392,o),
(443,250,cs),
(442,112,o),
(376,38,o),
(280,38,cs)
);
}
);
width = 569;
},
{
anchors = (
{
name = top;
pos = (292,512);
}
);
guides = (
{
angle = 270;
pos = (52,419);
}
);
layerId = m002;
shapes = (
{
closed = 1;
nodes = (
(437,-96,o),
(394,-156,o),
(284,-156,cs),
(217,-156,o),
(161,-117,o),
(136,-60,c),
(64,-107,l),
(100,-195,o),
(194,-229,o),
(281,-230,cs),
(413,-232,o),
(521,-171,o),
(521,17,cs),
(521,500,l),
(437,500,l),
(437,402,l),
(418,457,o),
(366,512,o),
(278,512,cs),
(139,512,o),
(52,419,o),
(52,250,cs),
(52,86,o),
(139,-12,o),
(273,-12,cs),
(342,-12,o),
(415,27,o),
(437,96,c),
(437,17,ls)
);
},
{
closed = 1;
nodes = (
(185,64,o),
(137,148,o),
(137,252,cs),
(137,356,o),
(185,437,o),
(283,437,cs),
(382,437,o),
(436,360,o),
(436,250,cs),
(436,148,o),
(382,64,o),
(286,64,cs)
);
}
);
width = 607;
},
{
anchors = (
{
name = top;
pos = (309,520);
}
);
layerId = m003;
shapes = (
{
closed = 1;
nodes = (
(425,-80,o),
(373,-123,o),
(288,-123,cs),
(221,-123,o),
(168,-76,o),
(146,-29,c),
(38,-102,l),
(71,-180,o),
(164,-237,o),
(285,-237,cs),
(466,-237,o),
(561,-142,o),
(561,0,cs),
(562,508,l),
(428,508,l),
(428,419,l),
(401,474,o),
(354,520,o),
(270,520,cs),
(139,520,o),
(48,421,o),
(48,253,cs),
(48,88,o),
(134,-12,o),
(265,-12,cs),
(348,-12,o),
(401,25,o),
(425,79,c),
(425,0,ls)
);
},
{
closed = 1;
nodes = (
(240,95,o),
(194,157,o),
(194,253,cs),
(194,340,o),
(240,410,o),
(312,410,cs),
(380,410,o),
(426,341,o),
(426,253,cs),
(426,158,o),
(380,97,o),
(312,96,cs)
);
}
);
width = 632;
}
);
unicode = 103;
},
{
glyphname = h;
lastChange = "2025-01-08 15:04:12 +0000";
layers = (
{
layerId = m01;
shapes = (
{
closed = 1;
nodes = (
(152,0,l),
(152,270,ls),
(152,366,o),
(207,462,o),
(306,462,cs),
(387,462,o),
(448,411,o),
(448,310,cs),
(448,0,l),
(504,0,l),
(504,322,ls),
(504,442,o),
(419,512,o),
(322,512,cs),
(203,512,o),
(161,431,o),
(152,396,c),
(152,700,l),
(96,700,l),
(96,0,l)
);
}
);
width = 592;
},
{
layerId = m002;
shapes = (
{
closed = 1;
nodes = (
(164,0,l),
(164,270,ls),
(164,366,o),
(211,436,o),
(303,436,cs),
(370,436,o),
(415,403,o),
(415,316,cs),
(415,0,l),
(499,0,l),
(499,328,ls),
(499,448,o),
(428,512,o),
(331,512,cs),
(219,512,o),
(173,441,o),
(164,406,c),
(164,700,l),
(80,700,l),
(80,0,l)
);
}
);
width = 579;
},
{
layerId = m003;
shapes = (
{
closed = 1;
nodes = (
(220,0,l),
(220,239,ls),
(220,347,o),
(248,408,o),
(331,408,cs),
(388,408,o),
(416,370,o),
(416,296,cs),
(416,0,l),
(556,0,l),
(556,315,ls),
(556,435,o),
(498,520,o),
(364,520,cs),
(296,520,o),
(241,479,o),
(220,430,c),
(220,700,l),
(80,700,l),
(80,0,l)
);
}
);
width = 624;
}
);
unicode = 104;
},
{
glyphname = hbar;
lastChange = "2024-09-20 10:41:52 +0000";
layers = (
{
layerId = m01;
shapes = (
{
pos = (77,0);
ref = h;
},
{
closed = 1;
nodes = (
(96,562,l),
(362,562,l),
(362,609,l),
(96,609,l)
);
}
);
width = 669;
},
{
layerId = m002;
shapes = (
{
pos = (89,0);
ref = h;
},
{
closed = 1;
nodes = (
(92,564,l),
(401,564,l),
(401,632,l),
(92,632,l)
);
}
);
width = 686;
},
{
layerId = m003;
shapes = (
{
pos = (84,0);
ref = h;
},
{
closed = 1;
nodes = (
(80,540,l),
(423,540,l),
(423,640,l),
(80,640,l)
);
}
);
width = 712;
}
);
unicode = 295;
},
{
glyphname = i;
kernLeft = i;
kernRight = i;
lastChange = "2025-01-01 06:27:21 +0000";
layers = (
{
guides = (
{
pos = (-47,680);
},
{
pos = (-42,585);
},
{
pos = (-47,632);
}
);
layerId = m01;
shapes = (
{
closed = 1;
nodes = (
(163,585,o),
(184,607,o),
(184,632,cs),
(184,658,o),
(163,680,o),
(138,680,cs),
(112,680,o),
(90,658,o),
(90,632,cs),
(90,607,o),
(112,585,o),
(138,585,cs)
);
},
{
closed = 1;
nodes = (
(165,0,l),
(165,500,l),
(109,500,l),
(109,0,l)
);
}
);
width = 274;
},
{
guides = (
{
pos = (-27,700);
},
{
pos = (-26,590);
},
{
pos = (-27,645);
}
);
layerId = m002;
shapes = (
{
closed = 1;
nodes = (
(157,590,o),
(181,615,o),
(181,645,cs),
(181,675,o),
(157,700,o),
(127,700,cs),
(97,700,o),
(72,675,o),
(72,645,cs),
(72,615,o),
(97,590,o),
(127,590,cs)
);
},
{
closed = 1;
nodes = (
(169,0,l),
(169,500,l),
(85,500,l),
(85,0,l)
);
}
);
width = 253;
},
{
guides = (
{
pos = (15,559);
}
);
layerId = m003;
shapes = (
{
closed = 1;
nodes = (
(182,559,o),
(218,598,o),
(218,644,cs),
(218,690,o),
(182,729,o),
(134,729,cs),
(89,729,o),
(50,690,o),
(50,644,cs),
(50,598,o),
(89,559,o),
(134,559,cs)
);
},
{
closed = 1;
nodes = (
(204,0,l),
(204,508,l),
(64,508,l),
(64,0,l)
);
}
);
width = 268;
}
);
unicode = 105;
},
{
glyphname = idotless;
lastChange = "2024-09-03 03:36:43 +0000";
layers = (
{
anchors = (
{
name = bottom;
pos = (117,0);
},
{
name = top;
pos = (118,500);
}
);
layerId = m01;
shapes = (
{
closed = 1;
nodes = (
(146,0,l),
(146,500,l),
(90,500,l),
(90,0,l)
);
}
);
width = 236;
},
{
anchors = (
{
name = bottom;
pos = (114,0);
},
{
name = top;
pos = (113,500);
}
);
layerId = m002;
shapes = (
{
closed = 1;
nodes = (
(156,0,l),
(156,500,l),
(72,500,l),
(72,0,l)
);
}
);
width = 228;
},
{
anchors = (
{
name = bottom;
pos = (120,0);
},
{
name = top;
pos = (119,508);
}
);
layerId = m003;
shapes = (
{
closed = 1;
nodes = (
(190,0,l),
(190,508,l),
(50,508,l),
(50,0,l)
);
}
);
width = 240;
}
);
unicode = 305;
},
{
glyphname = j;
lastChange = "2026-03-30 19:56:16 +0000";
layers = (
{
guides = (
{
pos = (-37,680);
},
{
pos = (-32,585);
},
{
pos = (-37,632);
}
);
layerId = m01;
shapes = (
{
closed = 1;
nodes = (
(132,-238,o),
(178,-182,o),
(178,-88,cs),
(179,500,l),
(123,500,l),
(122,-89,ls),
(122,-175,o),
(54,-168,o),
(0,-168,c),
(0,-224,l)
);
},
{
closed = 1;
nodes = (
(173,585,o),
(194,607,o),
(194,632,cs),
(194,658,o),
(173,680,o),
(148,680,cs),
(122,680,o),
(100,658,o),
(100,632,cs),
(100,607,o),
(122,585,o),
(148,585,cs)
);
}
);
width = 278;
},
{
layerId = m002;
shapes = (
{
closed = 1;
nodes = (
(54,-235,o),
(208,-230,o),
(208,-66,cs),
(209,500,l),
(125,500,l),
(125,-65,l),
(125,-166,o),
(34,-148,o),
(2,-148,c),
(2,-222,l)
);
},
{
closed = 1;
nodes = (
(195,590,o),
(219,615,o),
(219,645,cs),
(219,675,o),
(195,700,o),
(165,700,cs),
(135,700,o),
(110,675,o),
(110,645,cs),
(110,615,o),
(135,590,o),
(165,590,cs)
);
}
);
width = 289;
},
{
layerId = m003;
shapes = (
{
closed = 1;
nodes = (
(132,-241,o),
(219,-185,o),
(219,-31,cs),
(220,508,l),
(80,508,l),
(80,0,ls),
(80,-86,o),
(20,-86,o),
(-39,-86,c),
(-40,-222,l)
);
},
{
closed = 1;
nodes = (
(198,559,o),
(234,598,o),
(234,644,cs),
(234,690,o),
(198,729,o),
(150,729,cs),
(105,729,o),
(66,690,o),
(66,644,cs),
(66,598,o),
(105,559,o),
(150,559,cs)
);
}
);
width = 284;
}
);
unicode = 106;
},
{
glyphname = jdotless;
lastChange = "2024-09-03 07:18:16 +0000";
layers = (
{
anchors = (
{
name = top;
pos = (150,500);
}
);
layerId = m01;
shapes = (
{
closed = 1;
nodes = (
(140,-232,o),
(178,-181,o),
(178,-88,cs),
(179,500,l),
(123,500,l),
(122,-87,ls),
(120,-160,o),
(94,-178,o),
(46,-178,cs),
(33,-178,o),
(16,-177,o),
(0,-174,c),
(0,-224,l),
(17,-229,o),
(39,-232,o),
(55,-232,cs)
);
}
);
width = 265;
},
{
anchors = (
{
name = top;
pos = (166,500);
}
);
layerId = m002;
shapes = (
{
closed = 1;
nodes = (
(167,-230,o),
(208,-179,o),
(208,-86,cs),
(209,500,l),
(125,500,l),
(125,-85,ls),
(125,-139,o),
(98,-158,o),
(49,-158,cs),
(36,-158,o),
(18,-157,o),
(2,-154,c),
(2,-222,l),
(19,-227,o),
(42,-230,o),
(58,-230,cs)
);
}
);
width = 279;
},
{
anchors = (
{
name = top;
pos = (150,508);
}
);
layerId = m003;
shapes = (
{
closed = 1;
nodes = (
(159,-230,o),
(219,-169,o),
(219,-76,cs),
(220,508,l),
(80,508,l),
(80,-28,ls),
(80,-66,o),
(58,-90,o),
(22,-90,cs),
(9,-90,o),
(-23,-89,o),
(-39,-86,c),
(-40,-222,l),
(-23,-227,o),
(15,-230,o),
(31,-230,cs)
);
}
);
width = 270;
}
);
unicode = 567;
},
{
glyphname = k;
lastChange = "2025-01-01 10:05:42 +0000";
layers = (
{
anchors = (
{
name = bottom;
pos = (261,0);
}
);
layerId = m01;
shapes = (
{
closed = 1;
nodes = (
(243,291,l),
(261,301,l),
(452,500,l),
(382,500,l),
(107,219,l),
(107,145,l)
);
},
{
closed = 1;
nodes = (
(152,0,l),
(152,700,l),
(96,700,l),
(96,0,l)
);
},
{
closed = 1;
nodes = (
(468,0,l),
(267,331,l),
(229,294,l),
(403,0,l)
);
}
);
width = 483;
},
{
anchors = (
{
name = bottom;
pos = (283,0);
}
);
layerId = m002;
shapes = (
{
closed = 1;
nodes = (
(267,272,l),
(291,288,l),
(499,500,l),
(395,500,l),
(115,219,l),
(115,120,l)
);
},
{
closed = 1;
nodes = (
(176,0,l),
(176,700,l),
(92,700,l),
(92,0,l)
);
},
{
closed = 1;
nodes = (
(515,0,l),
(311,322,l),
(249,269,l),
(413,0,l)
);
}
);
width = 525;
},
{
anchors = (
{
name = bottom;
pos = (315,0);
}
);
layerId = m003;
shapes = (
{
closed = 1;
nodes = (
(311,241,l),
(335,251,l),
(570,508,l),
(392,508,l),
(102,210,l),
(177,116,l)
);
},
{
closed = 1;
nodes = (
(220,0,l),
(220,712,l),
(80,711,l),
(80,-1,l)
);
},
{
closed = 1;
nodes = (
(588,0,l),
(367,351,l),
(245,280,l),
(420,0,l)
);
}
);
width = 588;
}
);
unicode = 107;
},
{
glyphname = l;
lastChange = "2025-01-01 06:27:30 +0000";
layers = (
{
anchors = (
{
name = bottom;
pos = (118,0);
},
{
name = top;
pos = (119,700);
}
);
layerId = m01;
shapes = (
{
closed = 1;
nodes = (
(146,0,l),
(146,700,l),
(90,700,l),
(90,0,l)
);
}
);
width = 236;
},
{
anchors = (
{
name = bottom;
pos = (113,0);
},
{
name = top;
pos = (113,700);
}
);
layerId = m002;
shapes = (
{
closed = 1;
nodes = (
(156,0,l),
(156,700,l),
(72,700,l),
(72,0,l)
);
}
);
width = 228;
},
{
anchors = (
{
name = bottom;
pos = (148,0);
},
{
name = top;
pos = (149,700);
}
);
layerId = m003;
shapes = (
{
closed = 1;
nodes = (
(218,0,l),
(218,700,l),
(78,700,l),
(78,0,l)
);
}
);
width = 296;
}
);
unicode = 108;
},
{
glyphname = lcaron;
lastChange = "2025-01-01 06:47:35 +0000";
layers = (
{
layerId = m01;
shapes = (
{
ref = l;
},
{
closed = 1;
nodes = (
(319,700,l),
(226,700,l),
(213,582,l),
(263,582,l)
);
}
);
width = 319;
},
{
layerId = m002;
shapes = (
{
ref = l;
},
{
closed = 1;
nodes = (
(343,700,l),
(233,700,l),
(222,563,l),
(294,563,l)
);
}
);
width = 343;
},
{
layerId = m003;
shapes = (
{
ref = l;
},
{
closed = 1;
nodes = (
(418,700,l),
(288,700,l),
(269,530,l),
(364,530,l)
);
}
);
width = 418;
}
);
unicode = 318;
},
{
glyphname = ldot;
lastChange = "2025-01-01 08:53:17 +0000";
layers = (
{
layerId = m01;
shapes = (
{
ref = l;
},
{
closed = 1;
nodes = (
(322,303,o),
(343,325,o),
(343,349,cs),
(343,375,o),
(322,397,o),
(298,397,cs),
(272,397,o),
(250,375,o),
(250,349,cs),
(250,325,o),
(272,303,o),
(298,303,cs)
);
}
);
width = 369;
},
{
layerId = m002;
shapes = (
{
ref = l;
},
{
closed = 1;
nodes = (
(333,285,o),
(362,315,o),
(362,350,cs),
(362,386,o),
(333,416,o),
(298,416,cs),
(262,416,o),
(232,386,o),
(232,350,cs),
(232,315,o),
(262,285,o),
(298,285,cs)
);
}
);
width = 382;
},
{
layerId = m003;
shapes = (
{
ref = l;
},
{
closed = 1;
nodes = (
(422,262,o),
(463,302,o),
(463,352,cs),
(463,400,o),
(422,439,o),
(374,439,cs),
(325,439,o),
(284,400,o),
(284,352,cs),
(284,302,o),
(325,262,o),
(374,262,cs)
);
}
);
width = 467;
}
);
unicode = 320;
},
{
glyphname = lslash;
lastChange = "2025-01-01 06:46:51 +0000";
layers = (
{
layerId = m01;
shapes = (
{
pos = (13,0);
ref = l;
},
{
closed = 1;
nodes = (
(284,423,l),
(253,468,l),
(-10,284,l),
(20,238,l)
);
}
);
width = 294;
},
{
layerId = m002;
shapes = (
{
pos = (43,0);
ref = l;
},
{
closed = 1;
nodes = (
(321,420,l),
(278,480,l),
(0,286,l),
(42,226,l)
);
}
);
width = 331;
},
{
layerId = m003;
shapes = (
{
pos = (49,0);
ref = l;
},
{
closed = 1;
nodes = (
(407,432,l),
(339,518,l),
(-12,278,l),
(55,190,l)
);
}
);
width = 399;
}
);
unicode = 322;
},
{
glyphname = m;
kernLeft = n;
kernRight = n;
lastChange = "2026-03-31 13:47:23 +0000";
layers = (
{
layerId = m01;
shapes = (
{
closed = 1;
nodes = (
(152,0,l),
(152,270,ls),
(152,366,o),
(207,462,o),
(306,462,cs),
(387,462,o),
(448,411,o),
(448,310,cs),
(448,0,l),
(504,0,l),
(504,322,ls),
(504,442,o),
(419,512,o),
(322,512,cs),
(203,512,o),
(161,431,o),
(152,396,c),
(152,500,l),
(96,500,l),
(96,0,l)
);
},
{
closed = 1;
nodes = (
(856,0,l),
(856,322,ls),
(856,442,o),
(771,512,o),
(674,512,cs),
(555,512,o),
(502,414,o),
(493,379,c),
(504,270,l),
(504,373,o),
(559,462,o),
(658,462,cs),
(739,462,o),
(800,411,o),
(800,310,cs),
(800,0,l)
);
}
);
width = 914;
},
{
layerId = m002;
shapes = (
{
closed = 1;
nodes = (
(176,0,l),
(176,270,ls),
(176,366,o),
(223,436,o),
(315,436,cs),
(382,436,o),
(427,403,o),
(427,316,cs),
(427,0,l),
(511,0,l),
(511,328,ls),
(511,448,o),
(440,512,o),
(343,512,cs),
(231,512,o),
(185,441,o),
(176,406,c),
(176,500,l),
(92,500,l),
(92,0,l)
);
},
{
closed = 1;
nodes = (
(846,0,l),
(846,328,ls),
(846,448,o),
(775,512,o),
(678,512,cs),
(566,512,o),
(510,432,o),
(501,397,c),
(511,270,l),
(511,366,o),
(558,436,o),
(650,436,cs),
(717,436,o),
(762,403,o),
(762,316,cs),
(762,0,l)
);
}
);
width = 904;
},
{
layerId = m003;
shapes = (
{
closed = 1;
nodes = (
(220,0,l),
(220,239,ls),
(220,347,o),
(252,408,o),
(335,408,cs),
(392,408,o),
(421,373,o),
(421,296,cs),
(421,0,l),
(561,0,l),
(561,315,ls),
(561,435,o),
(498,520,o),
(369,520,cs),
(301,520,o),
(241,479,o),
(220,430,c),
(220,508,l),
(80,508,l),
(80,0,l)
);
},
{
closed = 1;
nodes = (
(902,0,l),
(902,315,ls),
(902,435,o),
(839,520,o),
(710,520,cs),
(646,520,o),
(573,496,o),
(545,410,c),
(561,239,l),
(561,347,o),
(593,408,o),
(676,408,cs),
(733,408,o),
(762,373,o),
(762,296,cs),
(762,0,l)
);
}
);
width = 954;
},
{
associatedMasterId = m01;
layerId = "9734DA5E-3835-4262-844E-572FF4DD55DE";
name = "5 Apr 24 at 07:53";
shapes = (
{
closed = 1;
nodes = (
(152,0,l),
(152,270,ls),
(152,366,o),
(200,458,o),
(299,458,cs),
(380,458,o),
(448,411,o),
(448,310,cs),
(448,0,l),
(504,0,l),
(504,322,ls),
(504,442,o),
(424,512,o),
(327,512,cs),
(208,512,o),
(161,431,o),
(152,396,c),
(152,500,l),
(96,500,l),
(96,0,l)
);
},
{
closed = 1;
nodes = (
(504,270,l),
(504,366,o),
(552,458,o),
(651,458,cs),
(732,458,o),
(800,411,o),
(800,310,cs),
(800,0,l),
(856,0,l),
(856,322,ls),
(856,442,o),
(776,512,o),
(679,512,cs),
(560,512,o),
(513,431,o),
(504,396,c)
);
}
);
width = 926;
}
);
unicode = 109;
},
{
glyphname = n;
kernLeft = n;
kernRight = n;
lastChange = "2024-12-31 22:40:41 +0000";
layers = (
{
anchors = (
{
name = bottom;
pos = (307,0);
},
{
name = top;
pos = (307,512);
}
);
layerId = m01;
shapes = (
{
closed = 1;
nodes = (
(152,0,l),
(152,270,ls),
(152,366,o),
(207,462,o),
(306,462,cs),
(387,462,o),
(448,411,o),
(448,310,cs),
(448,0,l),
(504,0,l),
(504,322,ls),
(504,442,o),
(419,512,o),
(322,512,cs),
(203,512,o),
(161,431,o),
(152,396,c),
(152,500,l),
(96,500,l),
(96,0,l)
);
}
);
width = 592;
},
{
anchors = (
{
name = bottom;
pos = (307,0);
},
{
name = top;
pos = (307,512);
}
);
layerId = m002;
shapes = (
{
closed = 1;
nodes = (
(176,0,l),
(176,270,ls),
(176,366,o),
(223,436,o),
(315,436,cs),
(382,436,o),
(427,403,o),
(427,316,cs),
(427,0,l),
(511,0,l),
(511,328,ls),
(511,448,o),
(440,512,o),
(343,512,cs),
(231,512,o),
(185,441,o),
(176,406,c),
(176,500,l),
(92,500,l),
(92,0,l)
);
}
);
width = 587;
},
{
anchors = (
{
name = bottom;
pos = (326,0);
},
{
name = top;
pos = (331,520);
}
);
layerId = m003;
shapes = (
{
closed = 1;
nodes = (
(220,0,l),
(220,239,ls),
(220,347,o),
(248,408,o),
(331,408,cs),
(388,408,o),
(416,370,o),
(416,296,cs),
(416,0,l),
(556,0,l),
(556,315,ls),
(556,435,o),
(498,520,o),
(364,520,cs),
(296,520,o),
(241,479,o),
(220,430,c),
(220,508,l),
(80,508,l),
(80,0,l)
);
}
);
width = 624;
}
);
unicode = 110;
},
{
glyphname = nhookleft;
kernLeft = j;
kernRight = n;
lastChange = "2025-01-01 10:05:03 +0000";
layers = (
{
guides = (
{
pos = (184,-165);
}
);
layerId = m003;
shapes = (
{
pos = (30,0);
ref = n;
},
{
closed = 1;
nodes = (
(189,-165,o),
(250,-104,o),
(250,-11,cs),
(250,70,l),
(110,70,l),
(110,37,ls),
(110,-1,o),
(88,-25,o),
(52,-25,cs),
(39,-25,o),
(7,-24,o),
(-9,-21,c),
(-10,-157,l),
(7,-162,o),
(45,-165,o),
(61,-165,cs)
);
}
);
width = 654;
},
{
guides = (
{
pos = (552,-133);
}
);
layerId = m01;
shapes = (
{
pos = (7,0);
ref = n;
},
{
closed = 1;
nodes = (
(120,-133,o),
(159,-88,o),
(159,5,cs),
(159,11,l),
(103,11,l),
(103,6,ls),
(103,-67,o),
(74,-79,o),
(26,-79,cs),
(13,-79,o),
(-4,-78,o),
(-20,-75,c),
(-20,-125,l),
(-3,-130,o),
(19,-133,o),
(35,-133,cs)
);
}
);
width = 599;
},
{
guides = (
{
pos = (311,-142);
}
);
layerId = m002;
shapes = (
{
pos = (21,0);
ref = n;
},
{
closed = 1;
nodes = (
(155,-142,o),
(197,-91,o),
(197,2,cs),
(197,90,l),
(113,90,l),
(113,3,ls),
(113,-51,o),
(86,-70,o),
(37,-70,cs),
(24,-70,o),
(6,-69,o),
(-10,-66,c),
(-10,-134,l),
(7,-139,o),
(30,-142,o),
(46,-142,cs)
);
}
);
width = 608;
}
);
unicode = 626;
},
{
glyphname = nhookretroflex;
lastChange = "2025-01-01 10:08:14 +0000";
layers = (
{
guides = (
{
pos = (162,-165);
}
);
layerId = m003;
shapes = (
{
pos = (8,0);
ref = n;
},
{
closed = 1;
nodes = (
(629,-165,o),
(667,-162,o),
(684,-157,c),
(683,-21,l),
(667,-24,o),
(635,-25,o),
(622,-25,cs),
(586,-25,o),
(564,-1,o),
(564,37,cs),
(564,57,l),
(424,57,l),
(424,-5,ls),
(424,-98,o),
(485,-165,o),
(613,-165,cs)
);
}
);
width = 674;
},
{
guides = (
{
pos = (545,-133);
}
);
layerId = m01;
shapes = (
{
ref = n;
},
{
closed = 1;
nodes = (
(588,-133,o),
(610,-130,o),
(627,-125,c),
(627,-75,l),
(611,-78,o),
(594,-79,o),
(581,-79,cs),
(533,-79,o),
(504,-61,o),
(504,12,cs),
(504,31,l),
(448,31,l),
(448,11,ls),
(448,-82,o),
(487,-133,o),
(572,-133,cs)
);
}
);
width = 583;
},
{
guides = (
{
pos = (290,-142);
}
);
layerId = m002;
shapes = (
{
ref = n;
},
{
closed = 1;
nodes = (
(594,-142,o),
(617,-139,o),
(634,-134,c),
(634,-66,l),
(618,-69,o),
(600,-70,o),
(587,-70,cs),
(538,-70,o),
(511,-51,o),
(511,3,cs),
(511,90,l),
(427,90,l),
(427,2,ls),
(427,-91,o),
(469,-142,o),
(578,-142,cs)
);
}
);
width = 589;
}
);
unicode = 627;
},
{
glyphname = eng;
kernRight = n;
lastChange = "2025-01-01 10:08:25 +0000";
layers = (
{
guides = (
{
pos = (154,-165);
}
);
layerId = m003;
shapes = (
{
ref = n;
},
{
closed = 1;
nodes = (
(495,-165,o),
(554,-104,o),
(555,-11,cs),
(556,70,l),
(416,70,l),
(416,37,ls),
(416,-1,o),
(394,-25,o),
(358,-25,cs),
(345,-25,o),
(313,-24,o),
(297,-21,c),
(296,-157,l),
(313,-162,o),
(351,-165,o),
(367,-165,cs)
);
}
);
width = 624;
},
{
guides = (
{
pos = (545,-133);
}
);
layerId = m01;
shapes = (
{
ref = n;
},
{
closed = 1;
nodes = (
(466,-133,o),
(504,-89,o),
(504,4,cs),
(504,56,l),
(448,56,l),
(448,10,ls),
(448,-63,o),
(420,-79,o),
(372,-79,cs),
(359,-79,o),
(342,-78,o),
(326,-75,c),
(326,-125,l),
(343,-130,o),
(365,-133,o),
(381,-133,cs)
);
}
);
width = 582;
},
{
guides = (
{
pos = (290,-142);
}
);
layerId = m002;
shapes = (
{
ref = n;
},
{
closed = 1;
nodes = (
(469,-142,o),
(511,-91,o),
(511,2,cs),
(511,90,l),
(427,90,l),
(427,3,ls),
(427,-51,o),
(400,-70,o),
(351,-70,cs),
(338,-70,o),
(320,-69,o),
(304,-66,c),
(304,-134,l),
(321,-139,o),
(344,-142,o),
(360,-142,cs)
);
}
);
width = 587;
}
);
unicode = 331;
},
{
glyphname = o;
kernLeft = o;
kernRight = o;
lastChange = "2025-01-01 03:19:00 +0000";
layers = (
{
anchors = (
{
name = bottom;
pos = (284,-12);
},
{
name = top;
pos = (284,512);
}
);
layerId = m01;
shapes = (
{
closed = 1;
nodes = (
(408,-12,o),
(512,78,o),
(512,250,cs),
(512,422,o),
(408,512,o),
(284,512,cs),
(160,512,o),
(56,422,o),
(56,250,cs),
(56,78,o),
(160,-12,o),
(284,-12,cs)
);
},
{
closed = 1;
nodes = (
(173,38,o),
(114,121,o),
(114,250,cs),
(114,379,o),
(173,462,o),
(284,462,cs),
(395,462,o),
(454,379,o),
(454,250,cs),
(454,121,o),
(395,38,o),
(284,38,cs)
);
}
);
width = 568;
},
{
anchors = (
{
name = bottom;
pos = (290,-12);
},
{
name = top;
pos = (290,512);
}
);
layerId = m002;
shapes = (
{
closed = 1;
nodes = (
(414,-12,o),
(524,78,o),
(524,250,cs),
(524,422,o),
(420,512,o),
(290,512,cs),
(166,512,o),
(56,422,o),
(56,250,cs),
(56,78,o),
(160,-12,o),
(290,-12,cs)
);
},
{
closed = 1;
nodes = (
(192,64,o),
(140,135,o),
(140,250,cs),
(140,365,o),
(194,436,o),
(290,436,cs),
(388,436,o),
(440,365,o),
(440,250,cs),
(440,135,o),
(388,64,o),
(290,64,cs)
);
}
);
width = 580;
},
{
anchors = (
{
name = bottom;
pos = (303,-12);
},
{
name = top;
pos = (303,520);
}
);
layerId = m003;
shapes = (
{
closed = 1;
nodes = (
(434,-12,o),
(568,70,o),
(568,254,cs),
(568,440,o),
(440,520,o),
(303,520,cs),
(174,520,o),
(36,440,o),
(36,254,cs),
(36,70,o),
(166,-12,o),
(303,-12,cs)
);
},
{
closed = 1;
nodes = (
(225,108,o),
(182,164,o),
(182,254,cs),
(182,342,o),
(226,400,o),
(303,400,cs),
(385,400,o),
(422,342,o),
(422,254,cs),
(422,164,o),
(384,108,o),
(303,108,cs)
);
}
);
width = 604;
}
);
unicode = 111;
},
{
glyphname = ohorn;
kernLeft = o;
kernRight = ohorn;
lastChange = "2024-11-01 03:03:31 +0000";
layers = (
{
layerId = m01;
shapes = (
{
closed = 1;
nodes = (
(518,434,o),
(602,512,o),
(553,634,c),
(492,615,l),
(523,545,o),
(495,483,o),
(431,483,cs),
(401,483,o),
(370,498,o),
(340,505,c),
(340,462,l),
(431,434,l)
);
},
{
ref = o;
}
);
width = 568;
},
{
layerId = m002;
shapes = (
{
closed = 1;
nodes = (
(556,430,o),
(618,513,o),
(569,635,c),
(489,613,l),
(518,554,o),
(508,484,o),
(440,484,cs),
(417,484,o),
(375,500,o),
(352,504,c),
(352,447,l),
(422,430,l)
);
},
{
ref = o;
}
);
width = 580;
},
{
layerId = m003;
shapes = (
{
closed = 1;
nodes = (
(602,413,o),
(687,522,o),
(633,657,c),
(519,626,l),
(548,567,o),
(544,494,o),
(463,494,cs),
(427,494,o),
(404,508,o),
(350,516,c),
(350,433,l),
(469,413,l)
);
},
{
ref = o;
}
);
width = 685;
}
);
unicode = 417;
},
{
glyphname = oslash;
kernLeft = o;
kernRight = o;
lastChange = "2024-11-02 02:04:03 +0000";
layers = (
{
layerId = m01;
shapes = (
{
pos = (7,0);
ref = o;
},
{
closed = 1;
nodes = (
(84,-27,l),
(528,493,l),
(491,523,l),
(49,6,l)
);
}
);
width = 576;
},
{
layerId = m002;
shapes = (
{
pos = (13,0);
ref = o;
},
{
closed = 1;
nodes = (
(97,-34,l),
(549,488,l),
(495,532,l),
(45,13,l)
);
}
);
width = 595;
},
{
layerId = m003;
shapes = (
{
pos = (6,0);
ref = o;
},
{
closed = 1;
nodes = (
(102,-51,l),
(587,495,l),
(508,556,l),
(25,13,l)
);
}
);
width = 613;
}
);
unicode = 248;
},
{
glyphname = oe;
kernLeft = o;
kernRight = e;
lastChange = "2024-11-02 02:03:38 +0000";
layers = (
{
anchors = (
{
name = bottom;
pos = (862,-13);
},
{
name = top;
pos = (858,512);
}
);
layerId = m01;
shapes = (
{
closed = 1;
nodes = (
(408,-12,o),
(503,78,o),
(503,250,cs),
(503,422,o),
(408,512,o),
(284,512,cs),
(160,512,o),
(56,422,o),
(56,250,cs),
(56,78,o),
(160,-12,o),
(284,-12,cs)
);
},
{
closed = 1;
nodes = (
(173,38,o),
(114,121,o),
(114,250,cs),
(114,379,o),
(173,462,o),
(284,462,cs),
(395,462,o),
(454,379,o),
(454,250,cs),
(454,121,o),
(395,38,o),
(284,38,cs)
);
},
{
closed = 1;
nodes = (
(823,-13,o),
(890,62,o),
(915,144,c),
(862,154,l),
(843,100,o),
(794,37,o),
(698,37,cs),
(579,37,o),
(517,118,o),
(517,245,cs),
(517,368,o),
(565,462,o),
(695,462,cs),
(802,462,o),
(857,368,o),
(857,289,c),
(506,289,l),
(506,239,l),
(917,239,l),
(917,267,l),
(917,422,o),
(819,512,o),
(691,512,cs),
(554,512,o),
(465,412,o),
(465,248,cs),
(465,87,o),
(548,-13,o),
(694,-13,cs)
);
}
);
width = 973;
},
{
anchors = (
{
name = bottom;
pos = (876,-13);
},
{
name = top;
pos = (872,512);
}
);
layerId = m002;
shapes = (
{
closed = 1;
nodes = (
(414,-12,o),
(514,78,o),
(514,250,cs),
(514,422,o),
(420,512,o),
(290,512,cs),
(166,512,o),
(56,422,o),
(56,250,cs),
(56,78,o),
(160,-12,o),
(290,-12,cs)
);
},
{
closed = 1;
nodes = (
(192,64,o),
(140,135,o),
(140,250,cs),
(140,365,o),
(194,436,o),
(290,436,cs),
(388,436,o),
(440,365,o),
(440,250,cs),
(440,135,o),
(388,64,o),
(290,64,cs)
);
},
{
closed = 1;
nodes = (
(807,-13,o),
(875,55,o),
(900,137,c),
(818,151,l),
(799,97,o),
(743,63,o),
(686,63,cs),
(561,63,o),
(528,150,o),
(528,245,cs),
(528,367,o),
(574,436,o),
(683,436,cs),
(777,436,o),
(816,345,o),
(816,304,c),
(523,304,l),
(523,234,l),
(902,234,l),
(902,261,l),
(902,434,o),
(803,512,o),
(679,512,cs),
(542,512,o),
(452,412,o),
(452,248,cs),
(452,87,o),
(542,-13,o),
(682,-13,cs)
);
}
);
width = 958;
},
{
anchors = (
{
name = bottom;
pos = (334,-13);
},
{
name = top;
pos = (332,520);
}
);
layerId = m003;
shapes = (
{
closed = 1;
nodes = (
(434,-12,o),
(552,70,o),
(552,254,cs),
(552,440,o),
(440,520,o),
(303,520,cs),
(174,520,o),
(36,440,o),
(36,254,cs),
(36,70,o),
(166,-12,o),
(303,-12,cs)
);
},
{
closed = 1;
nodes = (
(225,108,o),
(182,164,o),
(182,254,cs),
(182,342,o),
(226,400,o),
(303,400,cs),
(385,400,o),
(422,342,o),
(422,254,cs),
(422,164,o),
(384,108,o),
(303,108,cs)
);
},
{
closed = 1;
nodes = (
(778,-13,o),
(874,23,o),
(921,134,c),
(789,173,l),
(770,130,o),
(723,107,o),
(693,107,cs),
(604,107,o),
(565,164,o),
(565,256,cs),
(565,337,o),
(604,400,o),
(688,400,cs),
(755,400,o),
(793,336,o),
(793,301,c),
(532,301,l),
(533,215,l),
(936,215,l),
(936,248,l),
(936,418,o),
(839,520,o),
(689,520,cs),
(558,520,o),
(442,436,o),
(442,256,cs),
(442,82,o),
(556,-13,o),
(691,-13,cs)
);
}
);
width = 972;
}
);
unicode = 339;
},
{
glyphname = p;
kernRight = o;
lastChange = "2025-01-01 06:27:43 +0000";
layers = (
{
layerId = m01;
shapes = (
{
closed = 1;
nodes = (
(172,43,o),
(235,-12,o),
(326,-12,cs),
(443,-12,o),
(538,86,o),
(538,250,cs),
(538,419,o),
(457,512,o),
(326,512,cs),
(241,512,o),
(172,457,o),
(152,402,c),
(152,500,l),
(96,500,l),
(96,-230,l),
(152,-230,l),
(152,98,l)
);
},
{
closed = 1;
nodes = (
(235,38,o),
(152,108,o),
(151,250,c),
(152,392,o),
(235,462,o),
(314,462,cs),
(427,462,o),
(479,377,o),
(479,252,cs),
(479,124,o),
(413,38,o),
(314,38,cs)
);
}
);
width = 594;
},
{
layerId = m002;
shapes = (
{
closed = 1;
nodes = (
(198,24,o),
(271,-12,o),
(340,-12,cs),
(474,-12,o),
(561,86,o),
(561,250,cs),
(561,419,o),
(474,512,o),
(335,512,cs),
(247,512,o),
(195,457,o),
(176,402,c),
(176,500,l),
(92,500,l),
(92,-230,l),
(176,-230,l),
(176,93,l)
);
},
{
closed = 1;
nodes = (
(231,64,o),
(177,148,o),
(177,250,cs),
(177,360,o),
(231,437,o),
(330,437,cs),
(428,437,o),
(476,356,o),
(476,252,cs),
(476,148,o),
(428,64,o),
(327,64,cs)
);
}
);
width = 615;
},
{
layerId = m003;
shapes = (
{
closed = 1;
nodes = (
(217,29,o),
(267,-12,o),
(350,-12,cs),
(481,-12,o),
(569,88,o),
(569,253,cs),
(569,421,o),
(476,520,o),
(345,520,cs),
(267,520,o),
(217,470,o),
(191,415,c),
(191,508,l),
(50,508,l),
(51,-230,l),
(191,-230,l),
(191,83,l)
);
},
{
closed = 1;
nodes = (
(237,97,o),
(191,158,o),
(191,253,cs),
(191,341,o),
(237,410,o),
(305,410,cs),
(377,410,o),
(423,340,o),
(423,253,cs),
(423,157,o),
(377,95,o),
(305,96,cs)
);
}
);
width = 613;
}
);
unicode = 112;
},
{
glyphname = thorn;
lastChange = "2024-10-21 04:16:12 +0000";
layers = (
{
layerId = m01;
shapes = (
{
closed = 1;
nodes = (
(172,43,o),
(235,-12,o),
(326,-12,cs),
(443,-12,o),
(538,86,o),
(538,250,cs),
(538,419,o),
(457,512,o),
(326,512,cs),
(241,512,o),
(172,457,o),
(152,402,c),
(152,700,l),
(96,700,l),
(96,-230,l),
(152,-230,l),
(152,98,l)
);
},
{
closed = 1;
nodes = (
(235,38,o),
(152,108,o),
(151,250,c),
(152,392,o),
(235,462,o),
(314,462,cs),
(427,462,o),
(479,377,o),
(479,252,cs),
(479,124,o),
(413,38,o),
(314,38,cs)
);
}
);
width = 594;
},
{
layerId = m002;
shapes = (
{
closed = 1;
nodes = (
(198,24,o),
(271,-12,o),
(340,-12,cs),
(474,-12,o),
(561,86,o),
(561,250,cs),
(561,419,o),
(474,512,o),
(335,512,cs),
(247,512,o),
(195,457,o),
(176,402,c),
(176,700,l),
(92,700,l),
(92,-230,l),
(176,-230,l),
(176,93,l)
);
},
{
closed = 1;
nodes = (
(231,64,o),
(177,148,o),
(177,250,cs),
(177,360,o),
(231,437,o),
(330,437,cs),
(428,437,o),
(476,356,o),
(476,252,cs),
(476,148,o),
(428,64,o),
(327,64,cs)
);
}
);
width = 615;
},
{
layerId = m003;
shapes = (
{
closed = 1;
nodes = (
(219,29,o),
(269,-12,o),
(352,-12,cs),
(483,-12,o),
(571,88,o),
(571,253,cs),
(571,421,o),
(478,520,o),
(347,520,cs),
(269,520,o),
(219,470,o),
(193,415,c),
(193,700,l),
(52,700,l),
(53,-230,l),
(193,-230,l),
(193,83,l)
);
},
{
closed = 1;
nodes = (
(239,97,o),
(193,158,o),
(193,253,cs),
(193,341,o),
(239,410,o),
(307,410,cs),
(379,410,o),
(425,340,o),
(425,253,cs),
(425,157,o),
(379,95,o),
(307,96,cs)
);
}
);
width = 600;
}
);
unicode = 254;
},
{
glyphname = q;
kernLeft = o;
lastChange = "2026-03-31 13:45:48 +0000";
layers = (
{
layerId = m01;
shapes = (
{
closed = 1;
nodes = (
(553,-186,l),
(517,-189,o),
(494,-181,o),
(494,-133,cs),
(493,496,l),
(437,496,l),
(437,398,l),
(417,453,o),
(348,508,o),
(263,508,cs),
(132,508,o),
(51,415,o),
(51,246,cs),
(51,82,o),
(146,-16,o),
(263,-16,cs),
(354,-16,o),
(417,39,o),
(437,94,c),
(438,-133,ls),
(438,-240,o),
(506,-245,o),
(553,-234,c)
);
},
{
closed = 1;
nodes = (
(176,34,o),
(110,120,o),
(110,248,cs),
(110,373,o),
(162,458,o),
(275,458,cs),
(354,458,o),
(437,388,o),
(438,246,cs),
(437,104,o),
(354,34,o),
(275,34,cs)
);
}
);
width = 560;
},
{
layerId = m002;
shapes = (
{
closed = 1;
nodes = (
(584,-152,l),
(540,-158,o),
(522,-143,o),
(524,-103,c),
(524,500,l),
(441,500,l),
(441,402,l),
(420,457,o),
(368,512,o),
(280,512,cs),
(149,512,o),
(54,419,o),
(54,250,cs),
(54,86,o),
(144,-12,o),
(275,-12,cs),
(344,-12,o),
(419,27,o),
(440,96,c),
(440,-103,ls),
(440,-230,o),
(538,-245,o),
(584,-230,c)
);
},
{
closed = 1;
nodes = (
(186,64,o),
(138,148,o),
(138,252,cs),
(138,356,o),
(186,437,o),
(284,437,cs),
(383,437,o),
(437,360,o),
(437,250,cs),
(437,148,o),
(383,64,o),
(287,64,cs)
);
}
);
width = 584;
},
{
layerId = m003;
shapes = (
{
closed = 1;
nodes = (
(625,-104,l),
(585,-108,o),
(562,-100,o),
(562,-60,cs),
(563,508,l),
(422,508,l),
(422,415,l),
(396,470,o),
(346,520,o),
(268,520,cs),
(137,520,o),
(44,421,o),
(44,253,cs),
(44,88,o),
(132,-12,o),
(263,-12,cs),
(346,-12,o),
(396,29,o),
(422,83,c),
(421,-60,ls),
(420,-230,o),
(550,-255,o),
(625,-230,c)
);
},
{
closed = 1;
nodes = (
(236,95,o),
(190,157,o),
(190,253,cs),
(190,340,o),
(236,410,o),
(308,410,cs),
(376,410,o),
(422,341,o),
(422,253,cs),
(422,158,o),
(376,97,o),
(308,96,cs)
);
}
);
width = 655;
}
);
unicode = 113;
},
{
glyphname = r;
lastChange = "2026-03-31 13:47:12 +0000";
layers = (
{
anchors = (
{
name = bottom;
pos = (125,0);
},
{
name = top;
pos = (203,500);
}
);
layerId = m01;
shapes = (
{
closed = 1;
nodes = (
(152,0,l),
(152,270,ls),
(152,366,o),
(207,456,o),
(306,456,cs),
(324,456,o),
(342,454,o),
(358,449,c),
(358,509,l),
(346,511,o),
(334,512,o),
(322,512,cs),
(203,512,o),
(161,431,o),
(152,396,c),
(152,500,l),
(96,500,l),
(96,0,l)
);
}
);
width = 355;
},
{
anchors = (
{
name = bottom;
pos = (136,0);
},
{
name = top;
pos = (214,500);
}
);
layerId = m002;
shapes = (
{
closed = 1;
nodes = (
(176,0,l),
(176,270,ls),
(176,366,o),
(221,420,o),
(302,436,cs),
(327,441,o),
(362,436,o),
(382,430,c),
(382,508,l),
(373,510,o),
(349,512,o),
(339,512,cs),
(236,512,o),
(196,454,o),
(176,401,c),
(176,500,l),
(92,500,l),
(92,0,l)
);
}
);
width = 402;
},
{
anchors = (
{
name = bottom;
pos = (149,0);
},
{
name = top;
pos = (237,520);
}
);
layerId = m003;
shapes = (
{
closed = 1;
nodes = (
(220,0,l),
(220,221,ls),
(220,317,o),
(242,375,o),
(321,391,cs),
(346,396,o),
(381,391,o),
(401,385,c),
(401,516,l),
(392,519,o),
(368,520,o),
(358,520,cs),
(290,520,o),
(240,477,o),
(220,424,c),
(220,508,l),
(80,508,l),
(80,0,l)
);
}
);
width = 419;
}
);
unicode = 114;
},
{
glyphname = s;
lastChange = "2026-03-31 13:48:40 +0000";
layers = (
{
anchors = (
{
name = bottom;
pos = (252,-12);
},
{
name = top;
pos = (253,512);
}
);
layerId = m01;
shapes = (
{
closed = 1;
nodes = (
(396,-12,o),
(451,53,o),
(451,134,cs),
(451,331,o),
(128,228,o),
(128,371,cs),
(128,432,o),
(186,462,o),
(252,462,cs),
(328,462,o),
(376,418,o),
(376,367,c),
(436,367,l),
(436,429,o),
(402,512,o),
(253,512,cs),
(130,512,o),
(70,441,o),
(70,368,cs),
(70,168,o),
(393,269,o),
(393,134,cs),
(393,70,o),
(339,38,o),
(254,38,cs),
(189,38,o),
(110,80,o),
(110,156,c),
(50,156,l),
(50,57,o),
(149,-12,o),
(252,-12,cs)
);
}
);
width = 505;
},
{
anchors = (
{
name = bottom;
pos = (251,-12);
},
{
name = top;
pos = (243,512);
}
);
layerId = m002;
shapes = (
{
closed = 1;
nodes = (
(398,-12,o),
(456,60,o),
(456,141,cs),
(456,338,o),
(137,253,o),
(137,365,cs),
(137,407,o),
(169,436,o),
(242,436,cs),
(322,436,o),
(360,400,o),
(360,367,c),
(446,367,l),
(446,429,o),
(396,512,o),
(243,512,cs),
(113,512,o),
(53,433,o),
(53,360,cs),
(53,161,o),
(372,258,o),
(372,137,cs),
(372,87,o),
(327,64,o),
(253,64,cs),
(195,64,o),
(132,93,o),
(132,156,c),
(42,156,l),
(42,57,o),
(142,-12,o),
(251,-12,c)
);
}
);
width = 473;
},
{
anchors = (
{
name = bottom;
pos = (275,-12);
},
{
name = top;
pos = (272,520);
}
);
layerId = m003;
shapes = (
{
closed = 1;
nodes = (
(429,-12,o),
(514,53,o),
(514,162,cs),
(514,347,o),
(195,287,o),
(195,361,cs),
(195,389,o),
(216,406,o),
(271,406,cs),
(328,406,o),
(364,380,o),
(364,351,c),
(500,351,l),
(500,424,o),
(444,520,o),
(272,520,cs),
(117,520,o),
(56,447,o),
(56,355,cs),
(56,157,o),
(375,224,o),
(375,155,cs),
(375,116,o),
(339,102,o),
(282,102,cs),
(216,102,o),
(172,126,o),
(172,175,c),
(36,176,l),
(36,77,o),
(117,-12,o),
(275,-12,c)
);
}
);
width = 554;
},
{
associatedMasterId = m003;
layerId = "F69D4450-EE1F-4301-BB03-F9CA77403C17";
name = "10 Aug 24 at 16:46";
shapes = (
{
closed = 1;
nodes = (
(434,-12,o),
(514,66,o),
(514,145,cs),
(514,351,o),
(195,285,o),
(195,361,cs),
(195,389,o),
(216,406,o),
(271,406,cs),
(328,406,o),
(364,380,o),
(364,351,c),
(500,351,l),
(500,424,o),
(444,520,o),
(272,520,cs),
(117,520,o),
(56,448,o),
(56,364,cs),
(56,156,o),
(375,226,o),
(375,155,cs),
(375,116,o),
(339,102,o),
(282,102,cs),
(216,102,o),
(172,126,o),
(172,175,c),
(36,176,l),
(36,77,o),
(117,-12,o),
(275,-12,c)
);
}
);
visible = 1;
width = 554;
}
);
unicode = 115;
},
{
glyphname = germandbls;
lastChange = "2024-11-01 00:37:25 +0000";
layers = (
{
layerId = m01;
shapes = (
{
closed = 1;
nodes = (
(207,122,l),
(207,46,o),
(270,-12,o),
(367,-12,cs),
(457,-12,o),
(530,41,o),
(530,140,cs),
(530,303,o),
(361,302,o),
(361,379,cs),
(361,431,o),
(421,461,o),
(421,557,cs),
(421,646,o),
(352,712,o),
(256,712,cs),
(147,712,o),
(84,642,o),
(84,506,cs),
(84,0,l),
(140,0,l),
(140,506,ls),
(140,598,o),
(169,662,o),
(259,662,cs),
(321,662,o),
(363,608,o),
(363,557,cs),
(363,473,o),
(303,458,o),
(303,379,cs),
(303,260,o),
(472,286,o),
(472,138,cs),
(472,74,o),
(430,38,o),
(368,38,cs),
(300,38,o),
(259,82,o),
(259,122,c)
);
}
);
width = 570;
},
{
layerId = m002;
shapes = (
{
closed = 1;
nodes = (
(215,140,l),
(215,58,o),
(268,-12,o),
(390,-12,cs),
(492,-12,o),
(561,54,o),
(561,157,cs),
(561,316,o),
(396,327,o),
(396,393,cs),
(396,445,o),
(449,460,o),
(449,552,cs),
(449,642,o),
(370,712,o),
(272,712,cs),
(149,712,o),
(86,631,o),
(86,506,cs),
(86,0,l),
(174,0,l),
(174,506,ls),
(174,583,o),
(194,636,o),
(275,636,cs),
(327,636,o),
(365,595,o),
(365,552,cs),
(365,480,o),
(312,472,o),
(312,393,cs),
(312,268,o),
(477,284,o),
(477,155,cs),
(477,97,o),
(442,64,o),
(390,64,cs),
(328,64,o),
(298,95,o),
(298,140,c)
);
}
);
width = 596;
},
{
layerId = m003;
shapes = (
{
closed = 1;
nodes = (
(247,163,l),
(247,43,o),
(330,-12,o),
(445,-12,cs),
(580,-12,o),
(643,68,o),
(643,170,cs),
(643,334,o),
(476,332,o),
(476,392,cs),
(476,443,o),
(512,462,o),
(512,537,cs),
(512,626,o),
(429,712,o),
(302,712,cs),
(129,712,o),
(80,602,o),
(80,463,cs),
(80,0,l),
(220,0,l),
(220,457,ls),
(220,554,o),
(245,598,o),
(303,598,cs),
(342,598,o),
(373,570,o),
(373,537,cs),
(373,465,o),
(336,459,o),
(336,392,cs),
(336,256,o),
(506,271,o),
(506,171,cs),
(506,126,o),
(486,102,o),
(446,102,cs),
(404,102,o),
(378,122,o),
(378,163,c)
);
}
);
width = 673;
}
);
unicode = 223;
},
{
glyphname = t;
lastChange = "2026-03-31 13:45:33 +0000";
layers = (
{
anchors = (
{
name = bottom;
pos = (196,-3);
},
{
name = top;
pos = (159,629);
}
);
layerId = m01;
shapes = (
{
closed = 1;
nodes = (
(269,-11,o),
(291,-8,o),
(308,-3,c),
(308,47,l),
(292,44,o),
(275,43,o),
(262,43,cs),
(214,43,o),
(186,61,o),
(186,134,cs),
(186,449,l),
(315,449,l),
(315,499,l),
(186,499,l),
(186,627,l),
(134,627,l),
(134,570,ls),
(134,506,o),
(124,500,o),
(63,500,cs),
(40,500,l),
(40,449,l),
(130,449,l),
(130,133,ls),
(130,40,o),
(168,-11,o),
(253,-11,cs)
);
}
);
width = 355;
},
{
anchors = (
{
name = bottom;
pos = (214,-8);
},
{
name = top;
pos = (157,627);
}
);
layerId = m002;
shapes = (
{
closed = 1;
nodes = (
(282,-12,o),
(304,-9,o),
(321,-4,c),
(321,64,l),
(305,61,o),
(288,60,o),
(275,60,cs),
(226,60,o),
(200,78,o),
(200,132,cs),
(200,423,l),
(329,423,l),
(329,499,l),
(200,499,l),
(200,627,l),
(116,627,l),
(116,570,ls),
(116,512,o),
(103,500,o),
(49,500,cs),
(26,500,l),
(26,423,l),
(116,423,l),
(116,132,ls),
(116,39,o),
(157,-12,o),
(266,-12,cs)
);
}
);
width = 356;
},
{
anchors = (
{
name = bottom;
pos = (230,-4);
},
{
name = top;
pos = (187,628);
}
);
layerId = m003;
shapes = (
{
closed = 1;
nodes = (
(317,-12,o),
(346,-9,o),
(363,-4,c),
(362,126,l),
(346,123,o),
(323,122,o),
(310,122,cs),
(283,122,o),
(254,137,o),
(254,184,cs),
(254,387,l),
(370,387,l),
(370,507,l),
(254,507,l),
(254,627,l),
(120,627,l),
(120,582,ls),
(120,527,o),
(100,508,o),
(37,508,cs),
(18,508,l),
(18,387,l),
(114,387,l),
(114,149,ls),
(114,42,o),
(170,-12,o),
(301,-12,cs)
);
}
);
width = 400;
}
);
unicode = 116;
},
{
glyphname = tcaron;
lastChange = "2024-11-07 17:13:11 +0000";
layers = (
{
layerId = m01;
shapes = (
{
closed = 1;
nodes = (
(303,582,l),
(359,700,l),
(266,700,l),
(253,582,l)
);
},
{
ref = t;
}
);
width = 359;
},
{
layerId = m002;
shapes = (
{
closed = 1;
nodes = (
(333,562,l),
(382,699,l),
(272,699,l),
(261,562,l)
);
},
{
ref = t;
}
);
width = 382;
},
{
layerId = m003;
shapes = (
{
closed = 1;
nodes = (
(400,562,l),
(455,702,l),
(325,702,l),
(305,562,l)
);
},
{
ref = t;
}
);
width = 455;
}
);
unicode = 357;
},
{
glyphname = u;
lastChange = "2025-01-01 06:28:10 +0000";
layers = (
{
anchors = (
{
name = bottom;
pos = (285,-12);
},
{
name = top;
pos = (285,500);
}
);
layerId = m01;
shapes = (
{
closed = 1;
nodes = (
(438,500,l),
(438,230,ls),
(438,134,o),
(383,38,o),
(284,38,cs),
(203,38,o),
(142,89,o),
(142,190,cs),
(142,500,l),
(86,500,l),
(86,178,ls),
(86,58,o),
(171,-12,o),
(268,-12,cs),
(387,-12,o),
(429,69,o),
(438,104,c),
(438,0,l),
(494,0,l),
(494,500,l)
);
}
);
width = 584;
},
{
anchors = (
{
name = bottom;
pos = (290,-12);
},
{
name = top;
pos = (290,500);
}
);
layerId = m002;
shapes = (
{
closed = 1;
nodes = (
(421,500,l),
(421,230,ls),
(421,134,o),
(374,64,o),
(282,64,cs),
(215,64,o),
(170,97,o),
(170,184,cs),
(170,500,l),
(86,500,l),
(86,172,ls),
(86,52,o),
(157,-12,o),
(254,-12,cs),
(366,-12,o),
(412,59,o),
(421,94,c),
(421,0,l),
(505,0,l),
(505,500,l)
);
}
);
width = 597;
},
{
anchors = (
{
name = bottom;
pos = (287,-12);
},
{
name = top;
pos = (292,520);
}
);
layerId = m003;
shapes = (
{
closed = 1;
nodes = (
(396,508,l),
(396,269,ls),
(396,161,o),
(368,100,o),
(285,100,cs),
(228,100,o),
(200,138,o),
(200,212,cs),
(200,508,l),
(60,508,l),
(60,193,ls),
(60,73,o),
(118,-12,o),
(252,-12,cs),
(320,-12,o),
(375,29,o),
(396,78,c),
(396,0,l),
(536,0,l),
(536,508,l)
);
}
);
width = 616;
}
);
unicode = 117;
},
{
glyphname = uhorn;
kernLeft = u;
kernRight = uhorn;
lastChange = "2024-11-01 03:09:39 +0000";
layers = (
{
layerId = m01;
shapes = (
{
ref = u;
},
{
closed = 1;
nodes = (
(581,451,o),
(665,529,o),
(616,651,c),
(555,632,l),
(586,562,o),
(558,500,o),
(494,500,c),
(494,451,l)
);
}
);
width = 640;
},
{
layerId = m002;
shapes = (
{
ref = u;
},
{
closed = 1;
nodes = (
(625,446,o),
(687,529,o),
(638,651,c),
(558,629,l),
(587,570,o),
(583,500,o),
(502,500,c),
(502,446,l)
);
}
);
width = 675;
},
{
layerId = m003;
shapes = (
{
ref = u;
},
{
closed = 1;
nodes = (
(666,427,o),
(754,536,o),
(700,671,c),
(586,640,l),
(615,581,o),
(614,508,o),
(533,508,c),
(533,427,l)
);
}
);
width = 736;
}
);
unicode = 432;
},
{
glyphname = v;
kernLeft = v;
kernRight = v;
lastChange = "2025-01-01 10:03:03 +0000";
layers = (
{
layerId = m01;
shapes = (
{
closed = 1;
nodes = (
(214,0,l),
(274,0,l),
(87,500,l),
(15,500,l)
);
},
{
closed = 1;
nodes = (
(399,500,l),
(214,0,l),
(274,0,l),
(464,500,l)
);
}
);
width = 480;
},
{
layerId = m002;
shapes = (
{
closed = 1;
nodes = (
(204,0,l),
(287,0,l),
(113,500,l),
(14,500,l)
);
},
{
closed = 1;
nodes = (
(391,500,l),
(214,0,l),
(295,0,l),
(482,500,l)
);
}
);
width = 496;
},
{
layerId = m003;
shapes = (
{
closed = 1;
nodes = (
(204,0,l),
(329,0,l),
(147,508,l),
(3,508,l)
);
},
{
closed = 1;
nodes = (
(407,508,l),
(219,0,l),
(338,0,l),
(541,508,l)
);
}
);
width = 544;
}
);
unicode = 118;
},
{
glyphname = w;
kernLeft = w;
kernRight = w;
lastChange = "2025-01-01 10:08:00 +0000";
layers = (
{
anchors = (
{
name = bottom;
pos = (414,0);
},
{
name = top;
pos = (414,500);
}
);
guides = (
{
angle = 270;
pos = (414,596);
},
{
angle = 270;
pos = (232,568);
},
{
angle = 270;
pos = (601,594);
}
);
layerId = m01;
shapes = (
{
closed = 1;
nodes = (
(268,0,l),
(427,473,l),
(403,473,l),
(563,0,l),
(623,0,l),
(790,500,l),
(727,500,l),
(589,61,l),
(602,61,l),
(455,500,l),
(377,500,l),
(233,61,l),
(247,61,l),
(108,500,l),
(40,500,l),
(207,0,l)
);
}
);
width = 830;
},
{
anchors = (
{
name = bottom;
pos = (427,0);
},
{
name = top;
pos = (427,500);
}
);
layerId = m002;
shapes = (
{
closed = 1;
nodes = (
(295,0,l),
(445,420,l),
(409,420,l),
(558,0,l),
(648,0,l),
(812,500,l),
(725,500,l),
(595,62,l),
(616,62,l),
(470,500,l),
(387,500,l),
(244,62,l),
(263,62,l),
(131,500,l),
(36,500,l),
(205,0,l)
);
}
);
width = 848;
},
{
anchors = (
{
name = bottom;
pos = (460,-12);
},
{
name = top;
pos = (460,520);
}
);
layerId = m003;
shapes = (
{
closed = 1;
nodes = (
(344,0,l),
(474,408,l),
(445,408,l),
(572,0,l),
(709,0,l),
(886,508,l),
(750,508,l),
(626,95,l),
(650,95,l),
(537,508,l),
(391,508,l),
(271,95,l),
(295,95,l),
(178,508,l),
(32,508,l),
(207,0,l)
);
}
);
width = 918;
},
{
associatedMasterId = m002;
layerId = "30F2B960-0829-4076-A92C-CF2E7BC166CC";
name = m;
shapes = (
{
closed = 1;
nodes = (
(68,0,l),
(68,270,ls),
(68,366,o),
(115,436,o),
(207,436,cs),
(274,436,o),
(319,403,o),
(319,316,cs),
(319,0,l),
(403,0,l),
(403,328,ls),
(403,448,o),
(332,512,o),
(235,512,cs),
(123,512,o),
(77,441,o),
(68,406,c),
(68,500,l),
(-16,500,l),
(-16,0,l)
);
},
{
closed = 1;
nodes = (
(738,0,l),
(738,328,ls),
(738,448,o),
(667,512,o),
(570,512,cs),
(458,512,o),
(402,432,o),
(393,397,c),
(403,270,l),
(403,366,o),
(450,436,o),
(542,436,cs),
(609,436,o),
(654,403,o),
(654,316,cs),
(654,0,l)
);
}
);
width = 730;
},
{
associatedMasterId = m002;
layerId = "54EF5A92-DF5C-4F27-901D-AD1120EB6B99";
name = v;
shapes = (
{
closed = 1;
nodes = (
(130,0,l),
(213,0,l),
(39,500,l),
(-60,500,l)
);
},
{
closed = 1;
nodes = (
(317,500,l),
(140,0,l),
(221,0,l),
(408,500,l)
);
}
);
width = 730;
},
{
associatedMasterId = m003;
layerId = "6140675B-CD52-4F0B-8FAC-842A7E23690F";
name = "29 Jul 24 at 14:44";
shapes = (
{
closed = 1;
nodes = (
(332,0,l),
(442,394,l),
(395,394,l),
(500,0,l),
(673,0,l),
(812,508,l),
(671,508,l),
(566,60,l),
(609,60,l),
(490,508,l),
(345,508,l),
(225,60,l),
(270,60,l),
(165,508,l),
(25,508,l),
(164,0,l)
);
}
);
width = 837;
},
{
associatedMasterId = m003;
layerId = "C266404C-C364-4E5A-B81C-638BAB07B38C";
name = "29 Jul 24 at 14:44";
shapes = (
{
closed = 1;
nodes = (
(142,0,l),
(142,239,ls),
(142,347,o),
(174,408,o),
(257,408,cs),
(314,408,o),
(343,373,o),
(343,296,cs),
(343,0,l),
(483,0,l),
(483,315,ls),
(483,435,o),
(420,520,o),
(291,520,cs),
(223,520,o),
(163,479,o),
(142,430,c),
(142,508,l),
(2,508,l),
(2,0,l)
);
},
{
closed = 1;
nodes = (
(483,239,l),
(483,347,o),
(515,408,o),
(598,408,cs),
(655,408,o),
(684,373,o),
(684,296,cs),
(684,0,l),
(824,0,l),
(824,315,ls),
(824,435,o),
(761,520,o),
(632,520,cs),
(568,520,o),
(490,490,o),
(468,404,c)
);
}
);
width = 837;
},
{
associatedMasterId = m01;
guides = (
{
angle = 270;
pos = (415,596);
},
{
angle = 270;
pos = (233,568);
},
{
angle = 270;
pos = (602,594);
}
);
layerId = "CC5DFB62-56C2-4ABB-B478-555D61F8676C";
name = "29 Jul 24 at 16:40";
shapes = (
{
closed = 1;
nodes = (
(80,0,l),
(80,270,ls),
(80,366,o),
(135,458,o),
(234,458,cs),
(315,458,o),
(376,411,o),
(376,310,cs),
(376,0,l),
(432,0,l),
(432,322,ls),
(432,442,o),
(347,512,o),
(250,512,cs),
(131,512,o),
(89,431,o),
(80,396,c),
(80,500,l),
(24,500,l),
(24,0,l)
);
},
{
closed = 1;
nodes = (
(432,270,l),
(432,373,o),
(487,458,o),
(586,458,cs),
(667,458,o),
(728,411,o),
(728,310,cs),
(728,0,l),
(784,0,l),
(784,322,ls),
(784,442,o),
(699,512,o),
(602,512,cs),
(483,512,o),
(430,414,o),
(421,379,c)
);
}
);
width = 830;
}
);
unicode = 119;
},
{
glyphname = x;
lastChange = "2025-01-01 10:06:08 +0000";
layers = (
{
layerId = m01;
shapes = (
{
closed = 1;
nodes = (
(465,0,l),
(259,287,l),
(253,296,l),
(107,500,l),
(36,500,l),
(217,248,l),
(226,235,l),
(394,0,l)
);
},
{
closed = 1;
nodes = (
(89,0,l),
(251,227,l),
(260,239,l),
(447,500,l),
(378,500,l),
(228,290,l),
(216,274,l),
(20,0,l)
);
}
);
width = 491;
},
{
layerId = m002;
shapes = (
{
closed = 1;
nodes = (
(470,0,l),
(268,283,l),
(261,292,l),
(112,500,l),
(12,500,l),
(203,233,l),
(210,224,l),
(370,0,l)
);
},
{
closed = 1;
nodes = (
(102,0,l),
(256,215,l),
(266,229,l),
(460,500,l),
(365,500,l),
(216,292,l),
(204,275,l),
(7,0,l)
);
}
);
width = 477;
},
{
layerId = m003;
shapes = (
{
closed = 1;
nodes = (
(549,0,l),
(320,306,l),
(310,313,l),
(166,508,l),
(12,508,l),
(228,218,l),
(237,212,l),
(395,0,l)
);
},
{
closed = 1;
nodes = (
(155,0,l),
(314,213,l),
(323,220,l),
(538,508,l),
(389,508,l),
(242,310,l),
(233,304,l),
(6,0,l)
);
}
);
width = 555;
}
);
unicode = 120;
},
{
glyphname = y;
kernLeft = v;
kernRight = v;
lastChange = "2025-01-01 10:08:09 +0000";
layers = (
{
anchors = (
{
name = top;
pos = (266,500);
}
);
layerId = m01;
shapes = (
{
closed = 1;
nodes = (
(207,-230,o),
(234,-164,o),
(285,-34,cs),
(494,500,l),
(430,500,l),
(266,71,l),
(86,500,l),
(17,500,l),
(237,0,l),
(192,-126,o),
(163,-170,o),
(116,-170,c),
(98,-170,o),
(79,-169,o),
(67,-166,c),
(67,-222,l),
(80,-226,o),
(92,-230,o),
(113,-230,cs)
);
}
);
width = 510;
},
{
anchors = (
{
name = top;
pos = (265,500);
}
);
layerId = m002;
shapes = (
{
closed = 1;
nodes = (
(216,-230,o),
(245,-164,o),
(294,-34,cs),
(495,500,l),
(400,500,l),
(265,110,l),
(105,500,l),
(9,500,l),
(221,3,l),
(187,-126,o),
(155,-152,o),
(104,-152,c),
(86,-152,o),
(71,-151,o),
(59,-148,c),
(59,-222,l),
(72,-226,o),
(101,-230,o),
(122,-230,cs)
);
}
);
width = 507;
},
{
anchors = (
{
name = top;
pos = (274,520);
}
);
layerId = m003;
shapes = (
{
closed = 1;
nodes = (
(222,-230,o),
(287,-177,o),
(340,-34,cs),
(541,508,l),
(400,508,l),
(285,141,l),
(144,508,l),
(4,508,l),
(212,3,l),
(193,-78,o),
(142,-104,o),
(96,-104,c),
(86,-104,o),
(59,-103,o),
(47,-100,c),
(46,-220,l),
(59,-224,o),
(92,-230,o),
(132,-230,cs)
);
}
);
width = 543;
},
{
associatedMasterId = m002;
layerId = "D87BC176-5E8B-42A9-9E7C-690C4401C1BD";
name = "14 Jul 24 at 12:20";
shapes = (
{
closed = 1;
nodes = (
(209,0,l),
(292,0,l),
(118,500,l),
(22,500,l)
);
},
{
closed = 1;
nodes = (
(396,500,l),
(219,0,l),
(300,0,l),
(484,500,l)
);
}
);
visible = 1;
width = 498;
}
);
unicode = 121;
},
{
glyphname = z;
lastChange = "2025-01-01 00:21:39 +0000";
layers = (
{
anchors = (
{
name = bottom;
pos = (239,0);
},
{
name = top;
pos = (239,500);
}
);
layerId = m01;
shapes = (
{
closed = 1;
nodes = (
(419,1,l),
(419,51,l),
(116,51,l),
(417,454,l),
(417,501,l),
(50,501,l),
(50,451,l),
(348,451,l),
(50,51,l),
(50,1,l)
);
}
);
width = 475;
},
{
anchors = (
{
name = bottom;
pos = (246,0);
},
{
name = top;
pos = (246,500);
}
);
layerId = m002;
shapes = (
{
closed = 1;
nodes = (
(429,1,l),
(429,77,l),
(154,77,l),
(427,428,l),
(427,501,l),
(54,501,l),
(54,425,l),
(327,425,l),
(54,75,l),
(54,1,l)
);
}
);
width = 483;
},
{
anchors = (
{
name = bottom;
pos = (252,0);
},
{
name = top;
pos = (257,508);
}
);
layerId = m003;
shapes = (
{
closed = 1;
nodes = (
(472,1,l),
(472,121,l),
(225,121,l),
(471,396,l),
(470,508,l),
(40,508,l),
(41,388,l),
(287,388,l),
(41,114,l),
(40,1,l)
);
}
);
width = 516;
}
);
unicode = 122;
},
{
glyphname = a.ss01;
kernLeft = o;
lastChange = "2026-03-30 19:52:00 +0000";
layers = (
{
anchors = (
{
name = bottom;
pos = (282,-12);
},
{
name = top;
pos = (281,512);
}
);
layerId = m01;
shapes = (
{
closed = 1;
nodes = (
(334,-12,o),
(419,23,o),
(442,92,c),
(442,0,l),
(498,0,l),
(498,500,l),
(442,500,l),
(442,406,l),
(422,461,o),
(353,512,o),
(268,512,cs),
(151,512,o),
(56,419,o),
(56,250,cs),
(56,86,o),
(151,-12,o),
(268,-12,cs)
);
},
{
closed = 1;
nodes = (
(181,38,o),
(115,124,o),
(115,252,cs),
(115,377,o),
(167,462,o),
(280,462,cs),
(359,462,o),
(442,392,o),
(443,250,cs),
(442,112,o),
(376,38,o),
(280,38,cs)
);
}
);
width = 568;
},
{
anchors = (
{
name = bottom;
pos = (291,-12);
},
{
name = top;
pos = (291,512);
}
);
layerId = m002;
shapes = (
{
closed = 1;
nodes = (
(344,-12,o),
(417,27,o),
(439,96,c),
(439,0,l),
(523,0,l),
(523,500,l),
(439,500,l),
(439,402,l),
(420,457,o),
(368,512,o),
(280,512,cs),
(141,512,o),
(54,419,o),
(54,250,cs),
(54,86,o),
(141,-12,o),
(275,-12,cs)
);
},
{
closed = 1;
nodes = (
(187,64,o),
(139,148,o),
(139,252,cs),
(139,356,o),
(187,437,o),
(285,437,cs),
(384,437,o),
(438,360,o),
(438,250,cs),
(438,148,o),
(384,64,o),
(288,64,cs)
);
}
);
width = 609;
},
{
anchors = (
{
name = bottom;
pos = (285,-12);
},
{
name = top;
pos = (285,520);
}
);
layerId = m003;
shapes = (
{
closed = 1;
nodes = (
(341,-12,o),
(390,29,o),
(416,83,c),
(416,0,l),
(555,0,l),
(556,508,l),
(416,508,l),
(416,415,l),
(390,470,o),
(341,520,o),
(257,520,cs),
(126,520,o),
(38,421,o),
(38,253,cs),
(38,88,o),
(116,-12,o),
(252,-12,cs)
);
},
{
closed = 1;
nodes = (
(230,95,o),
(184,157,o),
(184,253,cs),
(184,340,o),
(230,410,o),
(302,410,cs),
(370,410,o),
(416,341,o),
(416,253,cs),
(416,158,o),
(370,97,o),
(302,96,cs)
);
}
);
width = 610;
}
);
},
{
glyphname = g.ss01;
kernLeft = g2;
kernRight = g2;
lastChange = "2024-11-22 05:01:58 +0000";
layers = (
{
anchors = (
{
name = bottom;
pos = (281,-230);
},
{
name = top;
pos = (269,512);
}
);
layerId = m01;
shapes = (
{
closed = 1;
nodes = (
(448,-230,o),
(527,-156,o),
(527,-54,cs),
(527,17,o),
(461,77,o),
(349,77,cs),
(170,77,ls),
(128,77,o),
(114,109,o),
(114,129,cs),
(114,159,o),
(142,182,o),
(180,192,c),
(134,218,l),
(74,192,o),
(57,157,o),
(57,115,cs),
(57,78,o),
(84,44,o),
(112,35,c),
(48,16,o),
(32,-51,o),
(32,-74,cs),
(32,-173,o),
(117,-230,o),
(278,-230,cs)
);
},
{
closed = 1;
nodes = (
(150,-180,o),
(90,-140,o),
(90,-69,cs),
(90,-24,o),
(130,27,o),
(203,27,c),
(342,27,l),
(419,28,o),
(469,-6,o),
(469,-59,cs),
(469,-110,o),
(437,-180,o),
(273,-180,cs)
);
},
{
closed = 1;
nodes = (
(386,176,o),
(463,243,o),
(463,345,cs),
(463,445,o),
(386,512,o),
(269,512,cs),
(155,512,o),
(76,445,o),
(76,345,cs),
(76,243,o),
(155,176,o),
(269,176,cs)
);
},
{
closed = 1;
nodes = (
(180,226,o),
(132,279,o),
(132,345,cs),
(132,409,o),
(180,462,o),
(269,462,cs),
(359,462,o),
(407,409,o),
(407,345,cs),
(407,279,o),
(359,226,o),
(269,226,cs)
);
},
{
closed = 1;
nodes = (
(434,484,o),
(488,508,o),
(537,495,c),
(537,553,l),
(444,569,o),
(402,516,o),
(392,475,c),
(421,455,l)
);
}
);
width = 562;
},
{
anchors = (
{
name = bottom;
pos = (301,-230);
},
{
name = top;
pos = (290,520);
}
);
layerId = m003;
shapes = (
{
closed = 1;
nodes = (
(508,-230,o),
(581,-137,o),
(581,-35,cs),
(581,41,o),
(512,104,o),
(391,104,cs),
(223,104,ls),
(189,104,o),
(168,112,o),
(168,137,cs),
(168,154,o),
(182,160,o),
(196,166,c),
(129,226,l),
(66,198,o),
(45,161,o),
(45,110,cs),
(45,61,o),
(69,28,o),
(114,7,c),
(61,-10,o),
(38,-50,o),
(38,-92,cs),
(38,-167,o),
(110,-230,o),
(294,-230,cs)
);
},
{
closed = 1;
nodes = (
(200,-117,o),
(171,-90,o),
(171,-55,cs),
(171,-33,o),
(195,-6,o),
(232,-6,c),
(372,-6,l),
(413,-6,o),
(439,-21,o),
(439,-56,cs),
(439,-91,o),
(385,-117,o),
(289,-117,cs)
);
},
{
closed = 1;
nodes = (
(430,145,o),
(518,226,o),
(518,333,cs),
(518,440,o),
(430,520,o),
(290,520,cs),
(154,520,o),
(64,440,o),
(64,333,cs),
(64,226,o),
(154,145,o),
(290,145,cs)
);
},
{
closed = 1;
nodes = (
(229,257,o),
(201,293,o),
(201,333,cs),
(201,372,o),
(232,410,o),
(290,410,c),
(352,410,o),
(381,372,o),
(381,333,cs),
(381,293,o),
(352,257,o),
(290,257,cs)
);
},
{
closed = 1;
nodes = (
(484,471,o),
(551,469,o),
(580,456,c),
(580,568,l),
(487,584,o),
(423,525,o),
(419,480,c),
(471,442,l)
);
}
);
width = 601;
},
{
anchors = (
{
name = bottom;
pos = (290,-230);
},
{
name = top;
pos = (268,512);
}
);
layerId = m002;
shapes = (
{
closed = 1;
nodes = (
(455,-230,o),
(534,-156,o),
(534,-54,cs),
(534,22,o),
(484,82,o),
(354,82,cs),
(178,82,ls),
(136,82,o),
(119,104,o),
(119,129,cs),
(119,159,o),
(150,182,o),
(188,192,c),
(117,218,l),
(57,192,o),
(31,156,o),
(31,114,cs),
(31,77,o),
(52,37,o),
(96,16,c),
(32,-3,o),
(15,-67,o),
(15,-93,cs),
(15,-167,o),
(95,-230,o),
(276,-230,cs)
);
},
{
closed = 1;
nodes = (
(150,-154,o),
(99,-114,o),
(99,-69,cs),
(99,-23,o),
(141,6,o),
(199,6,c),
(349,6,l),
(415,6,o),
(450,-21,o),
(450,-69,cs),
(450,-114,o),
(411,-154,o),
(271,-154,cs)
);
},
{
closed = 1;
nodes = (
(389,162,o),
(471,236,o),
(471,338,cs),
(471,438,o),
(389,512,o),
(268,512,cs),
(150,512,o),
(66,438,o),
(66,338,cs),
(66,236,o),
(150,162,o),
(268,162,cs)
);
},
{
closed = 1;
nodes = (
(185,238,o),
(144,281,o),
(144,338,cs),
(144,393,o),
(185,436,o),
(268,436,cs),
(353,436,o),
(393,393,o),
(393,338,cs),
(393,281,o),
(353,238,o),
(268,238,cs)
);
},
{
closed = 1;
nodes = (
(447,471,o),
(507,473,o),
(545,467,c),
(545,555,l),
(452,571,o),
(402,520,o),
(398,475,c),
(434,442,l)
);
}
);
width = 580;
},
{
associatedMasterId = m01;
layerId = "3EA75350-8DAD-4CD2-A32D-BF5A6E43F144";
name = "10 Aug 24 at 16:59";
shapes = (
{
closed = 1;
nodes = (
(443,-229,o),
(522,-148,o),
(522,-46,cs),
(522,20,o),
(479,87,o),
(352,87,cs),
(174,87,ls),
(105,87,o),
(113,176,o),
(173,176,cs),
(184,176,o),
(255,176,o),
(267,176,cs),
(399,176,o),
(469,247,o),
(469,340,cs),
(469,375,o),
(457,419,o),
(424,452,c),
(437,481,o),
(481,505,o),
(530,492,c),
(530,555,l),
(437,571,o),
(399,522,o),
(395,477,c),
(369,495,o),
(335,512,o),
(260,512,cs),
(119,512,o),
(56,420,o),
(56,340,cs),
(56,280,o),
(86,222,o),
(133,197,c),
(97,193,o),
(60,163,o),
(60,126,cs),
(60,85,o),
(89,58,o),
(122,49,c),
(58,30,o),
(37,-31,o),
(37,-73,cs),
(37,-172,o),
(122,-229,o),
(278,-229,cs)
);
},
{
closed = 1;
nodes = (
(155,-179,o),
(94,-137,o),
(94,-66,cs),
(94,-25,o),
(116,22,o),
(173,37,c),
(345,37,l),
(426,38,o),
(464,-2,o),
(464,-49,cs),
(464,-100,o),
(432,-179,o),
(273,-179,cs)
);
},
{
closed = 1;
nodes = (
(154,225,o),
(114,275,o),
(114,344,cs),
(114,408,o),
(154,463,o),
(259,463,cs),
(368,463,o),
(411,408,o),
(411,345,cs),
(411,275,o),
(368,225,o),
(259,225,cs)
);
}
);
width = 562;
},
{
associatedMasterId = m002;
layerId = "C08E6C22-B8C2-4688-8674-8526B1088BC5";
name = "10 Aug 24 at 17:56";
shapes = (
{
closed = 0;
nodes = (
(408,480,l),
(390,494,o),
(346,512,o),
(262,512,cs),
(116,512,o),
(49,424,o),
(49,337,cs),
(49,280,o),
(83,223,o),
(130,198,c),
(94,194,o),
(55,160,o),
(55,123,cs),
(55,87,o),
(79,60,o),
(113,48,c),
(54,27,o),
(30,-31,o),
(30,-73,cs),
(30,-172,o),
(117,-229,o),
(275,-229,cs),
(453,-229,o),
(532,-148,o),
(532,-46,cs),
(532,20,o),
(496,98,o),
(367,98,cs),
(192,98,ls),
(130,98,o),
(124,177,o),
(200,177,cs),
(211,177,o),
(257,177,o),
(269,177,cs),
(404,177,o),
(478,246,o),
(479,340,cs),
(479,375,o),
(467,417,o),
(444,447,c)
);
},
{
closed = 1;
nodes = (
(155,-154,o),
(108,-122,o),
(108,-59,cs),
(108,-22,o),
(134,16,o),
(177,26,c),
(359,26,l),
(431,26,o),
(453,-2,o),
(454,-49,cs),
(455,-100,o),
(416,-154,o),
(275,-154,cs)
);
},
{
closed = 1;
nodes = (
(163,247,o),
(127,289,o),
(127,344,cs),
(127,397,o),
(163,442,o),
(261,442,cs),
(365,442,o),
(401,398,o),
(401,345,cs),
(401,287,o),
(365,247,o),
(261,247,cs)
);
}
);
width = 580;
},
{
associatedMasterId = m003;
layerId = "F79AD273-4246-4744-B8B8-59AC46FF7D92";
name = "10 Aug 24 at 19:33";
shapes = (
{
closed = 1;
nodes = (
(475,-229,o),
(587,-151,o),
(587,-46,cs),
(587,20,o),
(551,111,o),
(394,111,cs),
(218,111,ls),
(174,111,o),
(175,166,o),
(218,166,cs),
(229,166,o),
(286,166,o),
(298,166,cs),
(435,166,o),
(534,242,o),
(534,340,cs),
(534,375,o),
(529,414,o),
(506,444,c),
(519,473,o),
(574,469,o),
(603,456,c),
(603,568,l),
(510,584,o),
(458,533,o),
(454,488,c),
(436,502,o),
(373,520,o),
(291,520,cs),
(129,520,o),
(51,432,o),
(51,337,cs),
(51,266,o),
(89,220,o),
(136,195,c),
(100,191,o),
(55,164,o),
(55,116,cs),
(55,75,o),
(83,46,o),
(116,37,c),
(57,16,o),
(32,-30,o),
(32,-72,cs),
(32,-171,o),
(152,-229,o),
(304,-229,cs)
);
},
{
closed = 1;
nodes = (
(211,-119,o),
(172,-96,o),
(172,-59,cs),
(172,-21,o),
(200,1,o),
(234,1,cs),
(323,1,ls),
(402,1,o),
(446,-4,o),
(446,-51,cs),
(446,-94,o),
(394,-119,o),
(304,-119,cs)
);
},
{
closed = 1;
nodes = (
(230,275,o),
(191,298,o),
(191,343,cs),
(191,387,o),
(230,411,o),
(290,411,cs),
(357,411,o),
(394,386,o),
(394,343,cs),
(394,297,o),
(357,275,o),
(290,275,cs)
);
}
);
width = 633;
}
);
},
{
glyphname = a.ss02;
kernLeft = a;
kernRight = a;
lastChange = "2026-03-31 13:53:39 +0000";
layers = (
{
anchors = (
{
name = bottom;
pos = (279,-10);
},
{
name = top;
pos = (279,512);
}
);
layerId = m01;
shapes = (
{
closed = 1;
nodes = (
(313,-11,o),
(375,18,o),
(416,71,c),
(425,22,o),
(456,0,o),
(493,0,cs),
(518,0,o),
(528,4,o),
(542,12,c),
(542,60,l),
(499,44,o),
(470,64,o),
(470,114,cs),
(470,338,ls),
(470,450,o),
(406,512,o),
(270,512,cs),
(191,512,o),
(119,476,o),
(80,400,c),
(132,373,l),
(153,420,o),
(201,460,o),
(270,460,cs),
(372,460,o),
(414,409,o),
(414,333,cs),
(413,262,l),
(13,262,l),
(13,234,ls),
(13,79,o),
(111,-11,o),
(239,-11,cs)
);
},
{
closed = 1;
nodes = (
(128,39,o),
(73,133,o),
(73,212,c),
(411,212,l),
(400,111,o),
(349,39,o),
(235,39,cs)
);
}
);
width = 581;
},
{
anchors = (
{
name = bottom;
pos = (317,-10);
},
{
name = top;
pos = (318,520);
}
);
layerId = m003;
shapes = (
{
closed = 1;
nodes = (
(311,-12,o),
(363,2,o),
(407,29,c),
(426,11,o),
(456,0,o),
(496,0,cs),
(523,0,o),
(563,6,o),
(577,14,c),
(577,124,l),
(528,113,o),
(514,128,o),
(514,168,cs),
(514,340,ls),
(514,451,o),
(436,520,o),
(286,520,cs),
(165,520,o),
(90,459,o),
(66,387,c),
(171,342,l),
(185,385,o),
(223,412,o),
(278,412,cs),
(346,412,o),
(381,383,o),
(381,331,cs),
(381,293,l),
(11,293,l),
(11,260,ls),
(11,90,o),
(108,-12,o),
(258,-12,cs)
);
},
{
closed = 1;
nodes = (
(192,108,o),
(154,172,o),
(154,207,c),
(378,207,l),
(366,149,o),
(327,108,o),
(259,108,cs)
);
}
);
width = 631;
},
{
anchors = (
{
name = bottom;
pos = (297,-10);
},
{
name = top;
pos = (297,512);
}
);
layerId = m002;
shapes = (
{
closed = 1;
nodes = (
(328,-12,o),
(384,10,o),
(425,51,c),
(441,18,o),
(471,6,o),
(508,6,cs),
(533,6,o),
(546,10,o),
(560,18,c),
(561,86,l),
(512,75,o),
(498,93,o),
(498,133,cs),
(498,336,ls),
(498,451,o),
(424,518,o),
(287,518,cs),
(176,518,o),
(114,468,o),
(84,398,c),
(153,362,l),
(170,419,o),
(228,448,o),
(283,448,cs),
(353,448,o),
(414,420,o),
(414,345,cs),
(414,266,l),
(40,266,l),
(40,239,ls),
(40,66,o),
(139,-12,o),
(263,-12,cs)
);
},
{
closed = 1;
nodes = (
(165,64,o),
(126,155,o),
(126,196,c),
(410,196,l),
(396,111,o),
(349,64,o),
(259,64,cs)
);
}
);
width = 620;
},
{
associatedMasterId = m003;
layerId = "75EC2996-E87C-4405-B059-48FBE7BE3912";
name = "6 May 24 at 07:51";
shapes = (
{
closed = 1;
nodes = (
(198,190,o),
(236,239,o),
(423,239,c),
(423,208,ls),
(423,126,o),
(351,93,o),
(281,93,cs),
(245,93,o),
(198,109,o),
(198,142,cs)
);
},
{
closed = 1;
nodes = (
(58,51,o),
(131,-12,o),
(245,-12,cs),
(391,-12,o),
(430,97,o),
(430,97,c),
(430,37,o),
(469,0,o),
(544,0,cs),
(569,0,o),
(613,4,o),
(627,12,c),
(627,107,l),
(577,96,o),
(563,114,o),
(563,154,cs),
(563,340,ls),
(563,459,o),
(444,520,o),
(315,520,cs),
(135,520,o),
(71,393,o),
(71,393,c),
(175,339,l),
(192,368,o),
(237,405,o),
(307,405,cs),
(373,405,o),
(423,366,o),
(423,331,cs),
(423,329,l),
(187,329,o),
(58,273,o),
(58,144,cs)
);
}
);
width = 629;
}
);
},
{
glyphname = e.ss02;
kernLeft = o;
kernRight = o;
layers = (
{
layerId = m01;
shapes = (
{
closed = 1;
nodes = (
(361,-12,o),
(433,24,o),
(472,100,c),
(420,127,l),
(399,80,o),
(351,40,o),
(282,40,cs),
(180,40,o),
(108,105,o),
(108,181,cs),
(108,182,l),
(336,182,o),
(465,222,o),
(465,365,cs),
(465,457,o),
(393,512,o),
(309,512,cs),
(118,512,o),
(52,345,o),
(52,293,cs),
(52,182,ls),
(52,70,o),
(146,-12,o),
(282,-12,cs)
);
},
{
closed = 1;
nodes = (
(108,267,ls),
(108,368,o),
(185,462,o),
(301,462,cs),
(364,462,o),
(407,419,o),
(407,369,cs),
(407,272,o),
(333,232,o),
(108,232,c)
);
}
);
width = 568;
},
{
layerId = m002;
shapes = (
{
closed = 1;
nodes = (
(389,-12,o),
(451,38,o),
(481,108,c),
(412,144,l),
(395,87,o),
(337,58,o),
(282,58,cs),
(212,58,o),
(131,99,o),
(131,161,cs),
(131,174,l),
(387,174,o),
(480,239,o),
(480,359,cs),
(480,451,o),
(405,512,o),
(322,512,cs),
(172,512,o),
(45,407,o),
(45,238,cs),
(46,170,ls),
(46,70,o),
(141,-12,o),
(278,-12,cs)
);
},
{
closed = 1;
nodes = (
(131,275,ls),
(131,380,o),
(244,438,o),
(306,438,cs),
(353,438,o),
(398,404,o),
(398,359,cs),
(398,290,o),
(355,240,o),
(131,240,c)
);
}
);
width = 569;
},
{
layerId = m003;
shapes = (
{
closed = 1;
nodes = (
(402,-12,o),
(477,49,o),
(501,121,c),
(396,166,l),
(382,123,o),
(344,96,o),
(289,96,cs),
(221,96,o),
(186,125,o),
(186,177,cs),
(186,181,l),
(403,181,o),
(516,235,o),
(516,364,cs),
(516,457,o),
(453,520,o),
(339,520,cs),
(159,520,o),
(53,395,o),
(53,257,cs),
(53,168,ls),
(53,57,o),
(131,-12,o),
(281,-12,cs)
);
},
{
closed = 1;
nodes = (
(186,302,ls),
(186,384,o),
(248,415,o),
(318,415,cs),
(339,415,o),
(386,399,o),
(386,357,cs),
(386,309,o),
(358,269,o),
(186,269,c)
);
}
);
width = 591;
},
{
associatedMasterId = m003;
layerId = "35791070-3456-4186-8F4C-DCAEEFC69CEB";
name = "28 Feb 24 at 11:45";
width = 582;
},
{
associatedMasterId = m01;
layerId = "DC9D73E7-764C-4C88-8E22-C9A4CAB6D2B5";
name = "26 Mar 24 at 21:50";
width = 572;
}
);
},
{
glyphname = ordfeminine;
lastChange = "2024-11-09 02:46:36 +0000";
layers = (
{
guides = (
{
pos = (185,370);
}
);
layerId = m01;
shapes = (
{
closed = 1;
nodes = (
(220,370,o),
(245,441,o),
(245,441,c),
(247,395,o),
(275,378,o),
(308,378,cs),
(324,378,o),
(333,381,o),
(342,386,c),
(342,441,l),
(311,433,o),
(301,445,o),
(301,471,cs),
(301,594,ls),
(301,668,o),
(253,712,o),
(164,712,cs),
(91,712,o),
(54,681,o),
(28,637,c),
(71,604,l),
(87,634,o),
(115,657,o),
(162,657,cs),
(205,657,o),
(245,634,o),
(245,599,cs),
(245,591,l),
(79,591,o),
(20,549,o),
(20,471,cs),
(20,410,o),
(68,370,o),
(122,370,cs)
);
},
{
closed = 1;
nodes = (
(342,307,l),
(22,308,l),
(22,249,l),
(342,248,l)
);
},
{
closed = 1;
nodes = (
(101,426,o),
(78,444,o),
(78,471,cs),
(78,514,o),
(103,541,o),
(245,541,c),
(245,526,ls),
(245,466,o),
(176,426,o),
(135,426,cs)
);
}
);
width = 362;
},
{
guides = (
{
pos = (182,354);
}
);
layerId = m002;
shapes = (
{
closed = 1;
nodes = (
(231,353,o),
(246,427,o),
(246,427,c),
(248,379,o),
(278,361,o),
(323,361,cs),
(340,361,o),
(350,364,o),
(359,370,c),
(359,435,l),
(327,427,o),
(316,440,o),
(316,467,cs),
(316,588,ls),
(316,666,o),
(266,712,o),
(172,712,cs),
(101,712,o),
(57,684,o),
(30,637,c),
(78,595,l),
(88,615,o),
(122,644,o),
(170,644,cs),
(215,644,o),
(246,620,o),
(246,593,cs),
(246,585,l),
(72,585,o),
(20,533,o),
(20,459,cs),
(20,395,o),
(67,353,o),
(128,353,cs)
);
},
{
closed = 1;
nodes = (
(359,307,l),
(20,308,l),
(20,232,l),
(359,231,l)
);
},
{
closed = 1;
nodes = (
(112,421,o),
(91,434,o),
(91,462,cs),
(91,491,o),
(110,523,o),
(246,523,c),
(246,508,ls),
(246,454,o),
(185,421,o),
(142,421,cs)
);
}
);
width = 379;
},
{
guides = (
{
pos = (201,349);
}
);
layerId = m003;
shapes = (
{
closed = 1;
nodes = (
(232,349,o),
(257,420,o),
(257,420,c),
(257,380,o),
(290,357,o),
(342,357,cs),
(362,357,o),
(389,361,o),
(399,367,c),
(399,442,l),
(365,434,o),
(355,445,o),
(355,472,cs),
(355,589,ls),
(355,665,o),
(295,712,o),
(196,712,cs),
(133,712,o),
(76,692,o),
(39,637,c),
(103,580,l),
(115,600,o),
(149,621,o),
(191,621,cs),
(231,621,o),
(257,602,o),
(257,581,cs),
(257,578,l),
(103,580,o),
(32,537,o),
(32,456,cs),
(32,393,o),
(69,349,o),
(148,349,cs)
);
},
{
closed = 1;
nodes = (
(399,308,l),
(30,308,l),
(30,198,l),
(399,198,l)
);
},
{
closed = 1;
nodes = (
(160,439,o),
(142,448,o),
(142,467,cs),
(142,487,o),
(167,501,o),
(256,501,c),
(256,497,ls),
(256,466,o),
(229,439,o),
(195,439,cs)
);
}
);
width = 429;
}
);
unicode = 170;
},
{
glyphname = ordmasculine;
lastChange = "2024-11-09 02:46:36 +0000";
layers = (
{
guides = (
{
pos = (169,370);
}
);
layerId = m01;
shapes = (
{
closed = 1;
nodes = (
(21,249,l),
(317,248,l),
(317,307,l),
(21,308,l)
);
},
{
closed = 1;
nodes = (
(252,370,o),
(320,429,o),
(320,541,cs),
(320,653,o),
(252,712,o),
(169,712,cs),
(86,712,o),
(18,653,o),
(18,541,cs),
(18,429,o),
(86,370,o),
(169,370,cs)
);
},
{
closed = 1;
nodes = (
(111,427,o),
(77,470,o),
(77,540,cs),
(77,610,o),
(111,656,o),
(169,656,cs),
(227,656,o),
(261,611,o),
(261,541,cs),
(261,471,o),
(227,427,o),
(169,427,cs)
);
}
);
width = 338;
},
{
guides = (
{
pos = (181,354);
}
);
layerId = m002;
shapes = (
{
closed = 1;
nodes = (
(20,232,l),
(342,231,l),
(342,307,l),
(20,308,l)
);
},
{
closed = 1;
nodes = (
(271,354,o),
(342,416,o),
(342,533,cs),
(342,650,o),
(271,712,o),
(181,712,cs),
(91,712,o),
(20,650,o),
(20,533,cs),
(20,416,o),
(91,354,o),
(181,354,c)
);
},
{
closed = 1;
nodes = (
(125,428,o),
(93,468,o),
(93,532,cs),
(93,596,o),
(125,639,o),
(181,639,cs),
(237,639,o),
(269,597,o),
(269,533,cs),
(269,469,o),
(237,428,o),
(181,428,c)
);
}
);
width = 362;
},
{
layerId = m003;
shapes = (
{
closed = 1;
nodes = (
(25,198,l),
(378,198,l),
(378,308,l),
(25,308,l)
);
},
{
closed = 1;
nodes = (
(292,349,o),
(383,405,o),
(383,530,cs),
(383,657,o),
(296,712,o),
(202,712,cs),
(114,712,o),
(20,657,o),
(20,530,cs),
(20,405,o),
(109,349,o),
(202,349,cs)
);
},
{
closed = 1;
nodes = (
(162,456,o),
(141,485,o),
(141,530,cs),
(141,575,o),
(163,605,o),
(202,605,cs),
(244,605,o),
(262,575,o),
(262,530,cs),
(262,485,o),
(244,456,o),
(202,456,c)
);
}
);
width = 403;
}
);
unicode = 186;
},
{
glyphname = zero;
lastChange = "2025-01-01 06:36:27 +0000";
layers = (
{
layerId = m01;
shapes = (
{
closed = 1;
nodes = (
(507,-13,o),
(570,171,o),
(570,354,cs),
(570,547,o),
(505,712,o),
(313,712,cs),
(120,712,o),
(54,547,o),
(54,354,cs),
(54,171,o),
(118,-13,o),
(313,-13,cs)
);
},
{
closed = 1;
nodes = (
(175,42,o),
(116,177,o),
(116,355,cs),
(116,536,o),
(175,657,o),
(314,657,cs),
(447,657,o),
(508,536,o),
(508,355,cs),
(508,177,o),
(447,42,o),
(313,42,cs)
);
},
{
closed = 1;
nodes = (
(211,68,l),
(481,635,l),
(416,635,l),
(146,68,l)
);
}
);
width = 624;
},
{
layerId = m002;
shapes = (
{
closed = 1;
nodes = (
(507,-13,o),
(576,171,o),
(576,354,cs),
(576,547,o),
(505,712,o),
(313,712,cs),
(119,712,o),
(48,547,o),
(48,354,cs),
(48,171,o),
(117,-13,o),
(313,-13,cs)
);
},
{
closed = 1;
nodes = (
(189,67,o),
(140,197,o),
(140,355,cs),
(140,516,o),
(189,632,o),
(314,632,cs),
(433,632,o),
(484,516,o),
(484,355,cs),
(484,197,o),
(433,67,o),
(313,67,cs)
);
},
{
closed = 1;
nodes = (
(230,75,l),
(488,625,l),
(398,625,l),
(140,75,l)
);
}
);
width = 624;
},
{
layerId = m003;
shapes = (
{
closed = 1;
nodes = (
(538,-13,o),
(625,161,o),
(625,354,cs),
(625,557,o),
(536,712,o),
(340,712,cs),
(141,712,o),
(52,557,o),
(52,354,cs),
(52,161,o),
(139,-13,o),
(340,-13,c)
);
},
{
closed = 1;
nodes = (
(236,117,o),
(192,213,o),
(192,355,cs),
(192,500,o),
(236,582,o),
(341,582,cs),
(440,582,o),
(485,500,o),
(485,355,cs),
(485,213,o),
(440,117,o),
(340,117,cs)
);
},
{
closed = 1;
nodes = (
(282,86,l),
(527,610,l),
(397,610,l),
(152,86,l)
);
}
);
width = 677;
}
);
unicode = 48;
},
{
glyphname = one;
lastChange = "2025-01-01 06:37:07 +0000";
layers = (
{
layerId = m01;
shapes = (
{
closed = 1;
nodes = (
(369,0,l),
(369,57,l),
(242,57,l),
(242,699,l),
(195,699,l),
(195,586,o),
(178,563,o),
(60,563,c),
(60,512,l),
(182,512,l),
(182,57,l),
(55,57,l),
(55,0,l)
);
}
);
width = 424;
},
{
layerId = m002;
shapes = (
{
closed = 1;
nodes = (
(403,0,l),
(403,80,l),
(270,80,l),
(270,699,l),
(195,699,l),
(195,606,o),
(170,592,o),
(60,592,c),
(60,512,l),
(182,512,l),
(182,80,l),
(55,80,l),
(55,0,l)
);
}
);
width = 458;
},
{
layerId = m003;
shapes = (
{
closed = 1;
nodes = (
(459,0,l),
(459,126,l),
(330,126,l),
(330,699,l),
(197,699,l),
(197,606,o),
(174,592,o),
(57,592,c),
(57,467,l),
(184,467,l),
(184,126,l),
(53,126,l),
(53,0,l)
);
}
);
width = 512;
}
);
unicode = 49;
},
{
glyphname = two;
lastChange = "2025-01-01 06:36:49 +0000";
layers = (
{
layerId = m01;
shapes = (
{
closed = 1;
nodes = (
(468,1,l),
(468,57,l),
(128,57,l),
(128,290,o),
(455,283,o),
(455,528,cs),
(455,647,o),
(365,712,o),
(250,712,cs),
(190,712,o),
(118,677,o),
(82,615,cs),
(67,589,o),
(58,555,o),
(58,519,c),
(118,519,l),
(118,576,o),
(159,656,o),
(252,656,cs),
(368,656,o),
(395,584,o),
(395,528,cs),
(395,337,o),
(62,306,o),
(62,73,cs),
(62,1,l)
);
}
);
width = 533;
},
{
layerId = m002;
shapes = (
{
closed = 1;
nodes = (
(486,1,l),
(486,81,l),
(153,81,l),
(153,277,o),
(475,284,o),
(475,528,cs),
(475,647,o),
(384,712,o),
(269,712,c),
(189,712,o),
(117,677,o),
(81,615,c),
(66,589,o),
(57,555,o),
(57,519,c),
(145,519,l),
(145,576,o),
(190,632,o),
(268,632,c),
(346,632,o),
(389,584,o),
(389,528,cs),
(389,335,o),
(60,332,o),
(60,81,cs),
(60,1,l)
);
}
);
width = 546;
},
{
layerId = m003;
shapes = (
{
closed = 1;
nodes = (
(519,1,l),
(519,127,l),
(215,127,l),
(215,253,o),
(508,276,o),
(508,518,cs),
(508,642,o),
(400,712,o),
(279,712,c),
(172,712,o),
(109,677,o),
(73,615,c),
(52,579,o),
(49,523,o),
(49,487,c),
(195,487,l),
(195,538,o),
(216,582,o),
(278,582,cs),
(330,582,o),
(354,542,o),
(354,509,cs),
(354,341,o),
(56,332,o),
(56,107,cs),
(56,1,l)
);
}
);
width = 574;
}
);
unicode = 50;
},
{
glyphname = three;
lastChange = "2025-01-01 06:37:45 +0000";
layers = (
{
layerId = m01;
shapes = (
{
closed = 1;
nodes = (
(417,-12,o),
(509,69,o),
(509,208,cs),
(509,324,o),
(440,423,o),
(293,423,c),
(486,639,l),
(486,700,l),
(75,700,l),
(75,644,l),
(413,644,l),
(212,423,l),
(212,370,l),
(262,370,ls),
(384,370,o),
(448,309,o),
(448,212,cs),
(448,128,o),
(397,44,o),
(272,44,cs),
(179,44,o),
(132,88,o),
(113,167,cs),
(110,179,o),
(107,198,o),
(107,210,c),
(48,203,l),
(48,182,o),
(51,162,o),
(56,144,cs),
(83,44,o),
(167,-12,o),
(272,-12,cs)
);
}
);
width = 568;
},
{
layerId = m002;
shapes = (
{
closed = 1;
nodes = (
(410,-12,o),
(522,71,o),
(522,210,cs),
(522,337,o),
(444,423,o),
(321,423,c),
(496,615,l),
(496,700,l),
(69,700,l),
(69,620,l),
(390,620,l),
(203,423,l),
(203,355,l),
(282,355,ls),
(382,355,o),
(430,299,o),
(430,212,cs),
(430,128,o),
(371,68,o),
(282,68,cs),
(209,68,o),
(150,94,o),
(130,173,c),
(127,185,o),
(125,198,o),
(125,210,c),
(35,203,l),
(35,182,o),
(38,162,o),
(42,144,c),
(69,43,o),
(166,-12,o),
(275,-12,cs)
);
}
);
width = 575;
},
{
layerId = m003;
shapes = (
{
closed = 1;
nodes = (
(455,-12,o),
(551,79,o),
(551,218,cs),
(551,347,o),
(468,414,o),
(376,423,c),
(519,574,l),
(519,700,l),
(73,700,l),
(73,574,l),
(362,574,l),
(215,423,l),
(215,318,l),
(291,318,ls),
(362,318,o),
(406,288,o),
(406,215,cs),
(406,153,o),
(353,118,o),
(293,118,cs),
(229,118,o),
(194,144,o),
(178,197,c),
(175,209,o),
(173,222,o),
(173,234,c),
(41,203,l),
(41,182,o),
(44,162,o),
(48,144,c),
(75,43,o),
(174,-12,o),
(297,-12,cs)
);
}
);
width = 598;
}
);
unicode = 51;
},
{
glyphname = four;
lastChange = "2025-01-01 06:37:37 +0000";
layers = (
{
layerId = m01;
shapes = (
{
closed = 1;
nodes = (
(437,1,l),
(437,140,l),
(554,140,l),
(554,200,l),
(437,200,l),
(437,701,l),
(372,701,l),
(45,205,l),
(45,140,l),
(377,140,l),
(377,1,l)
);
},
{
closed = 1;
nodes = (
(377,602,l),
(377,200,l),
(115,200,l)
);
}
);
width = 599;
},
{
layerId = m002;
shapes = (
{
closed = 1;
nodes = (
(452,1,l),
(452,131,l),
(572,131,l),
(572,212,l),
(452,212,l),
(452,701,l),
(361,701,l),
(45,212,l),
(45,132,l),
(364,132,l),
(364,1,l)
);
},
{
closed = 1;
nodes = (
(364,559,l),
(364,212,l),
(140,212,l)
);
}
);
width = 612;
},
{
layerId = m003;
shapes = (
{
closed = 1;
nodes = (
(515,1,l),
(515,121,l),
(622,121,l),
(622,248,l),
(515,248,l),
(515,701,l),
(351,701,l),
(45,238,l),
(45,121,l),
(369,121,l),
(369,1,l)
);
},
{
closed = 1;
nodes = (
(369,504,l),
(369,248,l),
(202,248,l)
);
}
);
width = 661;
}
);
unicode = 52;
},
{
glyphname = five;
lastChange = "2025-01-01 06:35:58 +0000";
layers = (
{
layerId = m01;
shapes = (
{
closed = 1;
nodes = (
(424,-12,o),
(524,77,o),
(524,234,cs),
(524,387,o),
(429,469,o),
(301,469,cs),
(244,469,o),
(179,445,o),
(159,409,c),
(191,640,l),
(469,640,l),
(469,700,l),
(142,700,l),
(97,366,l),
(172,347,l),
(194,386,o),
(237,413,o),
(289,413,cs),
(404,413,o),
(462,330,o),
(462,234,cs),
(462,126,o),
(403,44,o),
(290,44,cs),
(202,44,o),
(137,106,o),
(124,187,c),
(57,163,l),
(84,49,o),
(180,-12,o),
(289,-12,cs)
);
}
);
width = 569;
},
{
layerId = m002;
shapes = (
{
closed = 1;
nodes = (
(430,-12,o),
(542,77,o),
(542,234,cs),
(542,387,o),
(435,469,o),
(307,469,cs),
(250,469,o),
(196,448,o),
(173,417,c),
(198,620,l),
(490,620,l),
(490,700,l),
(131,700,l),
(86,343,l),
(173,322,l),
(195,361,o),
(238,388,o),
(290,388,cs),
(381,388,o),
(450,330,o),
(450,234,cs),
(450,126,o),
(385,68,o),
(296,68,cs),
(222,68,o),
(167,123,o),
(153,195,c),
(63,163,l),
(90,49,o),
(186,-12,o),
(295,-12,cs)
);
}
);
width = 597;
},
{
layerId = m003;
shapes = (
{
closed = 1;
nodes = (
(462,-12,o),
(573,86,o),
(573,243,cs),
(573,396,o),
(466,487,o),
(328,487,cs),
(277,487,o),
(230,472,o),
(218,461,c),
(239,574,l),
(518,574,l),
(518,700,l),
(129,700,l),
(73,333,l),
(202,302,l),
(216,338,o),
(252,367,o),
(304,367,cs),
(368,367,o),
(423,325,o),
(423,243,cs),
(423,178,o),
(376,118,o),
(314,118,cs),
(247,118,o),
(207,155,o),
(195,216,c),
(57,172,l),
(80,74,o),
(167,-12,o),
(317,-12,cs)
);
}
);
width = 616;
}
);
unicode = 53;
},
{
glyphname = six;
lastChange = "2025-01-01 06:37:31 +0000";
layers = (
{
layerId = m01;
shapes = (
{
closed = 1;
nodes = (
(431,-12,o),
(522,90,o),
(522,229,cs),
(522,367,o),
(431,462,o),
(305,462,cs),
(246,462,o),
(212,444,o),
(200,429,c),
(328,700,l),
(258,700,l),
(121,420,ls),
(96,370,o),
(63,308,o),
(63,226,cs),
(63,87,o),
(154,-12,o),
(297,-12,cs)
);
},
{
closed = 1;
nodes = (
(183,44,o),
(125,116,o),
(125,226,cs),
(125,330,o),
(183,406,o),
(294,406,cs),
(399,406,o),
(460,324,o),
(460,226,cs),
(460,110,o),
(399,44,o),
(298,44,cs)
);
}
);
width = 567;
},
{
layerId = m002;
shapes = (
{
closed = 1;
nodes = (
(436,-12,o),
(522,97,o),
(522,233,cs),
(522,368,o),
(430,474,o),
(294,474,cs),
(260,474,o),
(216,464,o),
(204,449,c),
(323,700,l),
(223,700,l),
(98,426,ls),
(75,376,o),
(40,288,o),
(40,231,cs),
(40,92,o),
(126,-12,o),
(280,-12,cs)
);
},
{
closed = 1;
nodes = (
(183,68,o),
(132,147,o),
(132,234,cs),
(132,309,o),
(183,393,o),
(277,393,cs),
(393,393,o),
(430,310,o),
(430,234,cs),
(430,147,o),
(386,68,o),
(281,68,cs)
);
}
);
width = 561;
},
{
layerId = m003;
shapes = (
{
closed = 1;
nodes = (
(459,-12,o),
(563,94,o),
(563,233,cs),
(563,371,o),
(479,477,o),
(338,477,cs),
(292,477,o),
(265,460,o),
(265,460,c),
(376,700,l),
(224,700,l),
(99,434,ls),
(68,367,o),
(51,298,o),
(51,233,cs),
(51,94,o),
(146,-12,o),
(308,-12,cs)
);
},
{
closed = 1;
nodes = (
(229,109,o),
(196,170,o),
(196,237,cs),
(196,291,o),
(229,356,o),
(305,356,cs),
(389,356,o),
(418,291,o),
(418,237,cs),
(418,170,o),
(389,109,o),
(309,109,cs)
);
}
);
width = 600;
}
);
unicode = 54;
},
{
glyphname = seven;
lastChange = "2025-01-01 06:35:49 +0000";
layers = (
{
layerId = m01;
shapes = (
{
closed = 1;
nodes = (
(219,1,l),
(458,646,l),
(458,700,l),
(45,700,l),
(45,644,l),
(393,644,l),
(154,1,l)
);
}
);
width = 493;
},
{
layerId = m002;
shapes = (
{
closed = 1;
nodes = (
(228,1,l),
(473,622,l),
(473,700,l),
(35,700,l),
(35,620,l),
(374,620,l),
(129,1,l)
);
}
);
width = 486;
},
{
layerId = m003;
shapes = (
{
closed = 1;
nodes = (
(262,1,l),
(492,574,l),
(492,700,l),
(35,700,l),
(35,574,l),
(354,574,l),
(119,1,l)
);
}
);
width = 502;
}
);
unicode = 55;
},
{
glyphname = eight;
lastChange = "2025-01-01 06:37:19 +0000";
layers = (
{
layerId = m01;
shapes = (
{
closed = 1;
nodes = (
(440,-12,o),
(547,64,o),
(547,203,cs),
(547,286,o),
(492,348,o),
(429,384,c),
(471,416,o),
(511,465,o),
(511,530,cs),
(511,649,o),
(422,712,o),
(301,712,cs),
(182,712,o),
(92,649,o),
(92,530,cs),
(92,465,o),
(134,415,o),
(174,384,c),
(112,348,o),
(58,286,o),
(58,203,cs),
(58,64,o),
(163,-12,o),
(302,-12,cs)
);
},
{
closed = 1;
nodes = (
(179,44,o),
(120,123,o),
(120,203,cs),
(120,278,o),
(176,350,o),
(301,350,cs),
(426,350,o),
(485,278,o),
(485,203,cs),
(485,123,o),
(428,44,o),
(303,44,cs)
);
},
{
closed = 1;
nodes = (
(197,401,o),
(154,465,o),
(154,530,cs),
(154,586,o),
(194,656,o),
(300,656,cs),
(406,656,o),
(449,586,o),
(449,530,cs),
(449,465,o),
(406,401,o),
(302,401,cs)
);
}
);
width = 605;
},
{
layerId = m002;
shapes = (
{
closed = 1;
nodes = (
(443,-12,o),
(552,64,o),
(552,203,cs),
(552,286,o),
(509,348,o),
(446,384,c),
(488,416,o),
(516,465,o),
(516,530,cs),
(516,649,o),
(427,712,o),
(298,712,cs),
(171,712,o),
(81,649,o),
(81,530,cs),
(81,465,o),
(111,415,o),
(151,384,c),
(89,348,o),
(47,286,o),
(47,203,cs),
(47,64,o),
(154,-12,o),
(299,-12,cs)
);
},
{
closed = 1;
nodes = (
(200,68,o),
(139,123,o),
(139,203,cs),
(139,278,o),
(195,340,o),
(298,340,cs),
(401,340,o),
(460,278,o),
(460,203,cs),
(460,123,o),
(401,68,o),
(300,68,cs)
);
},
{
closed = 1;
nodes = (
(212,418,o),
(169,465,o),
(169,530,cs),
(169,586,o),
(209,636,o),
(297,636,cs),
(385,636,o),
(428,586,o),
(428,530,cs),
(428,465,o),
(385,418,o),
(299,418,cs)
);
}
);
width = 600;
},
{
layerId = m003;
shapes = (
{
closed = 1;
nodes = (
(478,-12,o),
(598,74,o),
(598,203,cs),
(598,286,o),
(555,348,o),
(492,384,c),
(534,416,o),
(562,465,o),
(562,530,cs),
(562,639,o),
(473,712,o),
(325,712,cs),
(180,712,o),
(89,639,o),
(89,530,cs),
(89,465,o),
(119,415,o),
(159,384,c),
(97,348,o),
(55,286,o),
(55,203,cs),
(55,74,o),
(166,-12,o),
(326,-12,cs)
);
},
{
closed = 1;
nodes = (
(244,116,o),
(209,157,o),
(209,212,cs),
(209,260,o),
(244,306,o),
(325,306,cs),
(414,306,o),
(444,260,o),
(444,212,cs),
(444,157,o),
(414,116,o),
(327,116,cs)
);
},
{
closed = 1;
nodes = (
(278,433,o),
(239,458,o),
(239,512,cs),
(239,550,o),
(275,584,o),
(324,584,cs),
(372,584,o),
(412,550,o),
(412,512,cs),
(412,458,o),
(372,433,o),
(326,433,cs)
);
}
);
width = 653;
}
);
unicode = 56;
},
{
glyphname = nine;
lastChange = "2025-01-01 00:13:20 +0000";
layers = (
{
layerId = m01;
shapes = (
{
closed = 1;
nodes = (
(156,712,o),
(65,610,o),
(65,471,cs),
(65,333,o),
(156,238,o),
(282,238,cs),
(341,238,o),
(375,256,o),
(387,271,c),
(259,0,l),
(329,0,l),
(466,280,ls),
(491,330,o),
(524,392,o),
(524,474,cs),
(524,613,o),
(433,712,o),
(290,712,cs)
);
},
{
closed = 1;
nodes = (
(404,656,o),
(462,584,o),
(462,474,cs),
(462,370,o),
(404,294,o),
(293,294,cs),
(188,294,o),
(127,376,o),
(127,474,cs),
(127,590,o),
(188,656,o),
(289,656,cs)
);
}
);
width = 587;
},
{
layerId = m002;
shapes = (
{
closed = 1;
nodes = (
(125,712,o),
(39,603,o),
(39,467,cs),
(39,328,o),
(131,222,o),
(267,222,cs),
(301,222,o),
(345,232,o),
(357,247,c),
(238,0,l),
(338,0,l),
(463,270,ls),
(486,320,o),
(521,408,o),
(521,469,cs),
(521,608,o),
(435,712,o),
(281,712,cs)
);
},
{
closed = 1;
nodes = (
(378,632,o),
(429,553,o),
(429,466,cs),
(429,386,o),
(378,303,o),
(284,303,cs),
(168,303,o),
(131,386,o),
(131,466,cs),
(131,553,o),
(175,632,o),
(280,632,cs)
);
}
);
width = 561;
},
{
layerId = m003;
shapes = (
{
closed = 1;
nodes = (
(159,712,o),
(55,606,o),
(55,467,cs),
(55,324,o),
(139,223,o),
(280,223,cs),
(326,223,o),
(353,240,o),
(353,240,c),
(242,0,l),
(394,0,l),
(519,271,ls),
(550,338,o),
(567,407,o),
(567,467,cs),
(567,606,o),
(472,712,o),
(310,712,cs)
);
},
{
closed = 1;
nodes = (
(389,591,o),
(422,535,o),
(422,468,cs),
(422,414,o),
(389,344,o),
(313,344,cs),
(229,344,o),
(200,414,o),
(200,468,cs),
(200,535,o),
(229,591,o),
(309,591,cs)
);
}
);
width = 597;
}
);
unicode = 57;
},
{
glyphname = .notdef;
lastChange = "2026-03-30 21:27:55 +0000";
layers = (
{
layerId = m01;
shapes = (
{
closed = 1;
nodes = (
(698,674,l),
(706,674,o),
(714,667,o),
(714,658,c),
(714,-96,l),
(714,-105,o),
(706,-112,o),
(698,-112,c),
(590,-112,l),
(580,-112,o),
(566,-112,o),
(557,-112,c),
(557,-112,o),
(238,-92,o),
(238,382,c),
(238,386,o),
(222,394,o),
(222,378,c),
(222,-96,l),
(222,-105,o),
(215,-112,o),
(206,-112,c),
(17,-112,l),
(8,-112,o),
(0,-105,o),
(0,-96,c),
(0,658,l),
(0,667,o),
(8,674,o),
(17,674,c),
(182,674,l),
(190,674,o),
(206,674,o),
(214,674,c),
(485,192,l),
(484,658,l),
(485,667,o),
(492,674,o),
(501,674,c)
);
}
);
width = 714;
},
{
layerId = m002;
shapes = (
{
closed = 1;
nodes = (
(698,674,l),
(706,674,o),
(714,667,o),
(714,658,c),
(714,-96,l),
(714,-105,o),
(706,-112,o),
(698,-112,c),
(590,-112,l),
(580,-112,o),
(566,-112,o),
(557,-112,c),
(557,-112,o),
(238,-92,o),
(238,382,c),
(238,386,o),
(222,394,o),
(222,378,c),
(222,-96,l),
(222,-105,o),
(215,-112,o),
(206,-112,c),
(17,-112,l),
(8,-112,o),
(0,-105,o),
(0,-96,c),
(0,658,l),
(0,667,o),
(8,674,o),
(17,674,c),
(182,674,l),
(190,674,o),
(206,674,o),
(214,674,c),
(485,192,l),
(484,658,l),
(485,667,o),
(492,674,o),
(501,674,c)
);
}
);
width = 714;
},
{
layerId = m003;
shapes = (
{
closed = 1;
nodes = (
(698,674,l),
(706,674,o),
(714,667,o),
(714,658,c),
(714,-96,l),
(714,-105,o),
(706,-112,o),
(698,-112,c),
(590,-112,l),
(580,-112,o),
(566,-112,o),
(557,-112,c),
(557,-112,o),
(238,-92,o),
(238,382,c),
(238,386,o),
(222,394,o),
(222,378,c),
(222,-96,l),
(222,-105,o),
(215,-112,o),
(206,-112,c),
(17,-112,l),
(8,-112,o),
(0,-105,o),
(0,-96,c),
(0,658,l),
(0,667,o),
(8,674,o),
(17,674,c),
(182,674,l),
(190,674,o),
(206,674,o),
(214,674,c),
(485,192,l),
(484,658,l),
(485,667,o),
(492,674,o),
(501,674,c)
);
}
);
width = 714;
}
);
},
{
glyphname = period;
kernLeft = ".";
kernRight = ".";
lastChange = "2025-01-01 03:18:33 +0000";
layers = (
{
layerId = m01;
shapes = (
{
closed = 1;
nodes = (
(164,-12,o),
(186,10,o),
(186,37,cs),
(186,66,o),
(164,88,o),
(136,88,cs),
(108,88,o),
(85,66,o),
(85,37,cs),
(85,10,o),
(108,-12,o),
(136,-12,cs)
);
}
);
width = 271;
},
{
associatedMasterId = m01;
layerId = "2626C257-C8D1-4BEC-A76B-04061BD798F2";
name = foreground;
width = 309;
},
{
layerId = m002;
shapes = (
{
closed = 1;
nodes = (
(181,-12,o),
(210,18,o),
(210,53,cs),
(210,89,o),
(181,119,o),
(146,119,cs),
(110,119,o),
(80,89,o),
(80,53,cs),
(80,18,o),
(110,-12,o),
(146,-12,cs)
);
}
);
width = 290;
},
{
layerId = m003;
shapes = (
{
closed = 1;
nodes = (
(218,-16,o),
(259,24,o),
(259,74,cs),
(259,122,o),
(218,161,o),
(170,161,cs),
(121,161,o),
(80,122,o),
(80,74,cs),
(80,24,o),
(121,-16,o),
(170,-16,cs)
);
}
);
width = 328;
}
);
unicode = 46;
},
{
glyphname = comma;
kernLeft = ".";
kernRight = ".";
lastChange = "2024-12-31 20:56:16 +0000";
layers = (
{
layerId = m01;
shapes = (
{
closed = 1;
nodes = (
(137,-92,o),
(173,-35,o),
(173,27,cs),
(173,62,o),
(156,88,o),
(119,88,cs),
(90,88,o),
(71,63,o),
(71,38,cs),
(71,14,o),
(92,-7,o),
(117,-7,cs),
(118,-7,o),
(122,-7,o),
(123,-7,c),
(123,-58,o),
(71,-69,o),
(71,-69,c),
(71,-69,o),
(70,-92,o),
(71,-92,cs)
);
}
);
width = 244;
},
{
associatedMasterId = m01;
layerId = "7090993E-1050-418C-BDF4-9BE23E3E6164";
name = foreground;
shapes = (
{
closed = 1;
nodes = (
(132,0,o),
(136,0,o),
(139,1,c),
(139,-76,o),
(60,-92,o),
(60,-92,c),
(60,-92,o),
(59,-131,o),
(60,-131,cs),
(171,-131,o),
(214,-21,o),
(214,50,c),
(214,94,o),
(190,142,o),
(131,142,cs),
(91,142,o),
(60,105,o),
(60,67,cs),
(60,32,o),
(92,0,o),
(129,0,cs)
);
}
);
width = 274;
},
{
layerId = m002;
shapes = (
{
closed = 1;
nodes = (
(148,-119,o),
(184,-26,o),
(185,38,c),
(185,76,o),
(166,119,o),
(112,119,cs),
(75,119,o),
(50,86,o),
(50,53,cs),
(50,21,o),
(79,-7,o),
(110,-7,cs),
(112,-7,o),
(116,-7,o),
(119,-6,c),
(119,-74,o),
(50,-89,o),
(50,-89,c),
(50,-89,o),
(49,-119,o),
(50,-119,cs)
);
}
);
width = 235;
},
{
layerId = m003;
shapes = (
{
closed = 1;
nodes = (
(182,-144,o),
(229,-21,o),
(229,58,cs),
(229,106,o),
(203,160,o),
(138,160,cs),
(89,160,o),
(58,118,o),
(58,76,cs),
(58,37,o),
(91,2,o),
(135,2,cs),
(139,2,o),
(144,2,o),
(147,3,c),
(147,-83,o),
(58,-101,o),
(58,-101,c),
(58,-101,o),
(57,-144,o),
(58,-144,cs)
);
}
);
width = 293;
}
);
unicode = 44;
},
{
glyphname = colon;
kernLeft = colon;
kernRight = colon;
lastChange = "2024-12-31 20:57:29 +0000";
layers = (
{
layerId = m01;
shapes = (
{
closed = 1;
nodes = (
(183,-12,o),
(205,10,o),
(205,37,cs),
(205,66,o),
(183,88,o),
(155,88,cs),
(127,88,o),
(104,66,o),
(104,37,cs),
(104,10,o),
(127,-12,o),
(155,-12,cs)
);
},
{
closed = 1;
nodes = (
(183,354,o),
(205,376,o),
(205,403,cs),
(205,432,o),
(183,454,o),
(155,454,cs),
(127,454,o),
(104,432,o),
(104,403,cs),
(104,376,o),
(127,354,o),
(155,354,cs)
);
}
);
width = 309;
},
{
associatedMasterId = m01;
layerId = "1129757A-F034-4623-96F5-2C126444C93D";
name = foreground;
shapes = (
{
closed = 1;
nodes = (
(196,-12,o),
(229,23,o),
(229,62,cs),
(229,104,o),
(196,139,o),
(156,139,cs),
(115,139,o),
(80,104,o),
(80,62,cs),
(80,23,o),
(115,-12,o),
(156,-12,cs)
);
},
{
closed = 1;
nodes = (
(196,289,o),
(229,324,o),
(229,363,cs),
(229,405,o),
(196,440,o),
(156,440,cs),
(115,440,o),
(80,405,o),
(80,363,cs),
(80,324,o),
(115,289,o),
(156,289,cs)
);
}
);
width = 309;
},
{
layerId = m002;
shapes = (
{
closed = 1;
nodes = (
(191,-12,o),
(220,18,o),
(220,53,cs),
(220,89,o),
(191,119,o),
(156,119,cs),
(120,119,o),
(90,89,o),
(90,53,cs),
(90,18,o),
(120,-12,o),
(156,-12,cs)
);
},
{
closed = 1;
nodes = (
(191,349,o),
(220,379,o),
(220,414,cs),
(220,450,o),
(191,480,o),
(156,480,cs),
(120,480,o),
(90,450,o),
(90,414,cs),
(90,379,o),
(120,349,o),
(156,349,cs)
);
}
);
width = 310;
},
{
layerId = m003;
shapes = (
{
closed = 1;
nodes = (
(214,-12,o),
(253,27,o),
(253,75,cs),
(253,122,o),
(214,160,o),
(167,160,cs),
(119,160,o),
(80,122,o),
(80,75,cs),
(80,27,o),
(119,-12,o),
(167,-12,cs)
);
},
{
closed = 1;
nodes = (
(214,329,o),
(253,368,o),
(253,416,cs),
(253,463,o),
(214,501,o),
(167,501,cs),
(119,501,o),
(80,463,o),
(80,416,cs),
(80,368,o),
(119,329,o),
(167,329,cs)
);
}
);
width = 333;
}
);
unicode = 58;
},
{
glyphname = semicolon;
kernLeft = colon;
kernRight = colon;
lastChange = "2024-12-31 20:57:20 +0000";
layers = (
{
layerId = m01;
shapes = (
{
closed = 1;
nodes = (
(150,-92,o),
(186,-35,o),
(186,27,cs),
(186,62,o),
(169,88,o),
(132,88,cs),
(103,88,o),
(84,63,o),
(84,38,cs),
(84,14,o),
(105,-7,o),
(130,-7,cs),
(131,-7,o),
(135,-7,o),
(136,-7,c),
(136,-58,o),
(84,-69,o),
(84,-69,c),
(84,-69,o),
(83,-92,o),
(84,-92,cs)
);
},
{
closed = 1;
nodes = (
(164,354,o),
(186,376,o),
(186,403,cs),
(186,432,o),
(164,454,o),
(136,454,cs),
(108,454,o),
(85,432,o),
(85,403,cs),
(85,376,o),
(108,354,o),
(136,354,cs)
);
}
);
width = 270;
},
{
associatedMasterId = m01;
layerId = "7C7B3130-D28B-462C-85A7-59917ACED75E";
name = foreground;
shapes = (
{
closed = 1;
nodes = (
(180,289,o),
(213,324,o),
(213,363,cs),
(213,405,o),
(180,440,o),
(140,440,cs),
(99,440,o),
(64,405,o),
(64,363,cs),
(64,324,o),
(99,289,o),
(140,289,cs)
);
},
{
closed = 1;
nodes = (
(132,0,o),
(136,0,o),
(139,1,c),
(139,-76,o),
(60,-92,o),
(60,-92,c),
(60,-92,o),
(59,-131,o),
(60,-131,cs),
(171,-131,o),
(214,-21,o),
(214,50,c),
(214,94,o),
(190,142,o),
(131,142,cs),
(91,142,o),
(60,105,o),
(60,67,cs),
(60,32,o),
(92,0,o),
(129,0,cs)
);
}
);
width = 274;
},
{
layerId = m002;
shapes = (
{
closed = 1;
nodes = (
(171,-119,o),
(207,-26,o),
(208,38,c),
(208,76,o),
(189,119,o),
(135,119,cs),
(98,119,o),
(73,86,o),
(73,53,cs),
(73,21,o),
(102,-7,o),
(133,-7,cs),
(135,-7,o),
(139,-7,o),
(142,-6,c),
(142,-74,o),
(73,-89,o),
(73,-89,c),
(73,-89,o),
(72,-119,o),
(73,-119,cs)
);
},
{
closed = 1;
nodes = (
(177,349,o),
(206,379,o),
(206,414,cs),
(206,450,o),
(177,480,o),
(142,480,cs),
(106,480,o),
(76,450,o),
(76,414,cs),
(76,379,o),
(106,349,o),
(142,349,cs)
);
}
);
width = 265;
},
{
layerId = m003;
shapes = (
{
closed = 1;
nodes = (
(205,-144,o),
(252,-21,o),
(252,58,cs),
(252,106,o),
(226,160,o),
(161,160,cs),
(112,160,o),
(81,118,o),
(81,76,cs),
(81,37,o),
(114,2,o),
(158,2,cs),
(162,2,o),
(167,2,o),
(170,3,c),
(170,-83,o),
(81,-101,o),
(81,-101,c),
(81,-101,o),
(80,-144,o),
(81,-144,cs)
);
},
{
closed = 1;
nodes = (
(214,329,o),
(253,368,o),
(253,416,cs),
(253,463,o),
(214,501,o),
(167,501,cs),
(119,501,o),
(80,463,o),
(80,416,cs),
(80,368,o),
(119,329,o),
(167,329,cs)
);
}
);
width = 333;
}
);
unicode = 59;
},
{
glyphname = exclam;
lastChange = "2024-09-02 03:26:09 +0000";
layers = (
{
layerId = m01;
shapes = (
{
closed = 1;
nodes = (
(178,162,l),
(192,700,l),
(117,700,l),
(134,162,l)
);
},
{
closed = 1;
nodes = (
(181,-12,o),
(203,10,o),
(203,36,cs),
(203,64,o),
(181,85,o),
(154,85,cs),
(127,85,o),
(105,64,o),
(105,36,cs),
(105,10,o),
(127,-12,o),
(154,-12,cs)
);
}
);
width = 308;
},
{
associatedMasterId = m01;
layerId = "A93029F6-5A44-47E5-8EBB-60AEDDECB850";
name = foreground;
shapes = (
{
closed = 1;
nodes = (
(205,215,l),
(218,720,l),
(89,720,l),
(105,215,l)
);
},
{
closed = 1;
nodes = (
(196,-12,o),
(229,23,o),
(229,62,cs),
(229,104,o),
(196,139,o),
(156,139,cs),
(115,139,o),
(80,104,o),
(80,62,cs),
(80,23,o),
(115,-12,o),
(156,-12,cs)
);
}
);
width = 309;
},
{
layerId = m002;
shapes = (
{
closed = 1;
nodes = (
(191,215,l),
(204,700,l),
(97,700,l),
(113,215,l)
);
},
{
closed = 1;
nodes = (
(185,-12,o),
(213,17,o),
(213,51,cs),
(213,86,o),
(185,115,o),
(151,115,cs),
(116,115,o),
(87,86,o),
(87,51,cs),
(87,17,o),
(116,-12,o),
(151,-12,cs)
);
}
);
width = 300;
},
{
layerId = m003;
shapes = (
{
closed = 1;
nodes = (
(242,231,l),
(256,700,l),
(105,700,l),
(120,231,l)
);
},
{
closed = 1;
nodes = (
(228,-12,o),
(267,27,o),
(267,75,cs),
(267,122,o),
(228,160,o),
(181,160,cs),
(133,160,o),
(94,122,o),
(94,75,cs),
(94,27,o),
(133,-12,o),
(181,-12,cs)
);
}
);
width = 361;
}
);
unicode = 33;
},
{
glyphname = exclamdown;
lastChange = "2024-09-02 03:26:09 +0000";
layers = (
{
layerId = m01;
shapes = (
{
closed = 1;
nodes = (
(117,-200,l),
(192,-200,l),
(178,338,l),
(134,338,l)
);
},
{
closed = 1;
nodes = (
(127,512,o),
(105,490,o),
(105,464,cs),
(105,436,o),
(127,415,o),
(154,415,cs),
(181,415,o),
(203,436,o),
(203,464,cs),
(203,490,o),
(181,512,o),
(154,512,cs)
);
}
);
width = 308;
},
{
layerId = m002;
shapes = (
{
closed = 1;
nodes = (
(100,-200,l),
(207,-200,l),
(194,285,l),
(116,285,l)
);
},
{
closed = 1;
nodes = (
(119,512,o),
(90,483,o),
(90,449,cs),
(90,414,o),
(119,385,o),
(154,385,cs),
(188,385,o),
(216,414,o),
(216,449,cs),
(216,483,o),
(188,512,o),
(154,512,cs)
);
}
);
width = 306;
},
{
layerId = m003;
shapes = (
{
closed = 1;
nodes = (
(105,-192,l),
(256,-192,l),
(242,277,l),
(120,277,l)
);
},
{
closed = 1;
nodes = (
(133,520,o),
(94,481,o),
(94,433,cs),
(94,386,o),
(133,348,o),
(181,348,cs),
(228,348,o),
(267,386,o),
(267,433,cs),
(267,481,o),
(228,520,o),
(181,520,cs)
);
}
);
width = 361;
}
);
unicode = 161;
},
{
glyphname = question;
lastChange = "2024-11-02 02:07:58 +0000";
layers = (
{
hints = (
{
horizontal = 1;
origin = (0,16);
target = (0,6);
type = Stem;
},
{
horizontal = 1;
place = (-12,200);
target = (0,22);
type = Stem;
},
{
origin = (0,12);
target = (0,13);
type = Stem;
},
{
origin = (0,22);
target = (0,1);
type = Stem;
},
{
origin = (0,19);
target = (0,3);
type = Stem;
},
{
origin = (0,22);
target = (0,1);
type = Stem;
}
);
layerId = m01;
shapes = (
{
closed = 1;
nodes = (
(260,188,l),
(260,392,o),
(452,332,o),
(452,537,cs),
(452,649,o),
(366,719,o),
(253,719,cs),
(180,719,o),
(117,685,o),
(81,623,c),
(66,597,o),
(57,566,o),
(57,530,c),
(119,530,l),
(119,611,o),
(181,663,o),
(252,663,cs),
(328,663,o),
(390,616,o),
(390,536,cs),
(390,372,o),
(198,426,o),
(198,188,c)
);
},
{
closed = 1;
nodes = (
(256,-12,o),
(278,10,o),
(278,36,cs),
(278,64,o),
(256,85,o),
(229,85,cs),
(202,85,o),
(180,64,o),
(180,36,cs),
(180,10,o),
(202,-12,o),
(229,-12,cs)
);
}
);
width = 502;
},
{
associatedMasterId = m01;
layerId = "CB6FE323-AA22-456B-834C-E280C3EC3E3D";
name = foreground;
shapes = (
{
closed = 1;
nodes = (
(312,380,o),
(500,311,o),
(500,530,cs),
(500,649,o),
(404,719,o),
(289,719,c),
(209,719,o),
(137,685,o),
(101,623,c),
(86,597,o),
(77,566,o),
(77,530,c),
(174,530,l),
(174,587,o),
(210,636,o),
(288,636,c),
(366,636,o),
(405,592,o),
(405,536,cs),
(405,372,o),
(208,437,o),
(208,216,cs),
(208,216,o),
(312,216,o),
(312,216,c)
);
},
{
closed = 1;
nodes = (
(308,-12,o),
(341,23,o),
(341,62,cs),
(341,104,o),
(308,139,o),
(268,139,cs),
(227,139,o),
(192,104,o),
(192,62,cs),
(192,23,o),
(227,-12,o),
(268,-12,cs)
);
}
);
width = 587;
},
{
layerId = m002;
shapes = (
{
closed = 1;
nodes = (
(280,200,l),
(280,371,o),
(463,322,o),
(463,536,cs),
(463,645,o),
(371,719,o),
(256,719,cs),
(180,719,o),
(108,685,o),
(72,623,c),
(57,597,o),
(48,566,o),
(48,530,c),
(130,530,l),
(130,587,o),
(181,639,o),
(255,639,cs),
(333,639,o),
(373,592,o),
(373,536,cs),
(373,372,o),
(188,421,o),
(188,200,c)
);
},
{
closed = 1;
nodes = (
(265,-12,o),
(293,17,o),
(293,51,cs),
(293,86,o),
(265,115,o),
(231,115,cs),
(196,115,o),
(167,86,o),
(167,51,cs),
(167,17,o),
(196,-12,o),
(231,-12,cs)
);
}
);
width = 511;
},
{
layerId = m003;
shapes = (
{
closed = 1;
nodes = (
(317,209,l),
(317,356,o),
(488,325,o),
(488,531,cs),
(488,650,o),
(398,720,o),
(266,720,cs),
(169,720,o),
(102,686,o),
(66,624,cs),
(51,598,o),
(42,544,o),
(42,508,c),
(194,508,l),
(194,555,o),
(211,590,o),
(265,590,cs),
(312,590,o),
(334,560,o),
(334,527,cs),
(334,383,o),
(165,427,o),
(165,209,c)
);
},
{
closed = 1;
nodes = (
(290,-16,o),
(329,23,o),
(329,71,cs),
(329,118,o),
(290,156,o),
(243,156,cs),
(195,156,o),
(156,118,o),
(156,71,cs),
(156,23,o),
(195,-16,o),
(243,-16,cs)
);
}
);
width = 528;
}
);
unicode = 63;
},
{
glyphname = questiondown;
lastChange = "2024-11-22 04:52:13 +0000";
layers = (
{
layerId = m01;
shapes = (
{
closed = 1;
nodes = (
(329,-219,o),
(392,-185,o),
(428,-123,c),
(443,-97,o),
(452,-66,o),
(452,-30,c),
(390,-30,l),
(390,-111,o),
(328,-163,o),
(257,-163,cs),
(181,-163,o),
(119,-116,o),
(119,-36,cs),
(119,128,o),
(311,74,o),
(311,312,c),
(249,312,l),
(249,108,o),
(57,168,o),
(57,-37,cs),
(57,-149,o),
(143,-219,o),
(256,-219,cs)
);
},
{
closed = 1;
nodes = (
(307,415,o),
(329,436,o),
(329,464,cs),
(329,490,o),
(307,512,o),
(280,512,cs),
(253,512,o),
(231,490,o),
(231,464,cs),
(231,436,o),
(253,415,o),
(280,415,cs)
);
}
);
width = 495;
},
{
layerId = m002;
shapes = (
{
closed = 1;
nodes = (
(331,-219,o),
(403,-185,o),
(439,-123,c),
(454,-97,o),
(463,-66,o),
(463,-30,c),
(381,-30,l),
(381,-87,o),
(330,-139,o),
(256,-139,cs),
(178,-139,o),
(138,-92,o),
(138,-36,cs),
(138,128,o),
(323,79,o),
(323,300,c),
(231,300,l),
(231,129,o),
(48,178,o),
(48,-36,cs),
(48,-145,o),
(140,-219,o),
(255,-219,cs)
);
},
{
closed = 1;
nodes = (
(315,385,o),
(344,414,o),
(344,449,cs),
(344,483,o),
(315,512,o),
(280,512,cs),
(246,512,o),
(218,483,o),
(218,449,cs),
(218,414,o),
(246,385,o),
(280,385,cs)
);
}
);
width = 511;
},
{
layerId = m003;
shapes = (
{
closed = 1;
nodes = (
(361,-216,o),
(428,-182,o),
(464,-120,cs),
(479,-94,o),
(488,-40,o),
(488,-4,c),
(336,-4,l),
(336,-51,o),
(319,-86,o),
(265,-86,cs),
(218,-86,o),
(196,-56,o),
(196,-23,cs),
(196,121,o),
(365,77,o),
(365,295,c),
(213,295,l),
(213,148,o),
(42,179,o),
(42,-27,cs),
(42,-146,o),
(132,-216,o),
(264,-216,cs)
);
},
{
closed = 1;
nodes = (
(335,348,o),
(374,386,o),
(374,433,cs),
(374,481,o),
(335,520,o),
(287,520,cs),
(240,520,o),
(201,481,o),
(201,433,cs),
(201,386,o),
(240,348,o),
(287,348,cs)
);
}
);
width = 528;
}
);
unicode = 191;
},
{
glyphname = periodcentered;
lastChange = "2024-09-10 05:31:18 +0000";
layers = (
{
layerId = m01;
shapes = (
{
closed = 1;
nodes = (
(163,255,o),
(185,277,o),
(185,304,cs),
(185,333,o),
(163,355,o),
(135,355,cs),
(107,355,o),
(84,333,o),
(84,304,cs),
(84,277,o),
(107,255,o),
(135,255,cs)
);
}
);
width = 269;
},
{
layerId = m002;
shapes = (
{
closed = 1;
nodes = (
(189,239,o),
(218,268,o),
(218,304,cs),
(218,340,o),
(189,369,o),
(153,369,cs),
(117,369,o),
(88,340,o),
(88,304,cs),
(88,268,o),
(117,239,o),
(153,239,cs)
);
}
);
width = 306;
},
{
layerId = m003;
shapes = (
{
closed = 1;
nodes = (
(215,217,o),
(256,257,o),
(256,307,cs),
(256,355,o),
(215,394,o),
(167,394,cs),
(118,394,o),
(77,355,o),
(77,307,cs),
(77,257,o),
(118,217,o),
(167,217,cs)
);
}
);
width = 333;
}
);
unicode = 183;
},
{
glyphname = bullet;
lastChange = "2024-09-02 03:26:09 +0000";
layers = (
{
layerId = m01;
shapes = (
{
closed = 1;
nodes = (
(172,247,o),
(199,275,o),
(199,306,cs),
(199,339,o),
(172,367,o),
(141,367,cs),
(108,367,o),
(80,339,o),
(80,306,cs),
(80,275,o),
(108,247,o),
(141,247,cs)
);
}
);
width = 279;
},
{
layerId = m002;
shapes = (
{
closed = 1;
nodes = (
(216,223,o),
(254,262,o),
(254,307,cs),
(254,354,o),
(216,393,o),
(171,393,cs),
(124,393,o),
(85,354,o),
(85,307,cs),
(85,262,o),
(124,223,o),
(171,223,cs)
);
}
);
width = 339;
},
{
layerId = m003;
shapes = (
{
closed = 1;
nodes = (
(240,197,o),
(290,247,o),
(290,309,cs),
(290,370,o),
(240,419,o),
(179,419,cs),
(117,419,o),
(67,370,o),
(67,309,cs),
(67,247,o),
(117,197,o),
(179,197,cs)
);
}
);
width = 357;
}
);
unicode = 8226;
},
{
glyphname = asterisk;
lastChange = "2024-08-14 07:25:26 +0000";
layers = (
{
layerId = m01;
shapes = (
{
closed = 1;
nodes = (
(260,489,l),
(218,489,l),
(345,339,l),
(389,374,l),
(255,533,l),
(251,488,l),
(419,567,l),
(397,616,l),
(233,540,l),
(268,522,l),
(268,712,l),
(212,712,l),
(212,519,l),
(247,536,l),
(81,613,l),
(60,567,l),
(228,488,l),
(223,533,l),
(89,374,l),
(132,339,l)
);
}
);
width = 479;
},
{
associatedMasterId = m01;
layerId = "52A87255-65B2-4E80-95F9-0AF50A018D84";
name = foreground;
shapes = (
{
closed = 1;
nodes = (
(146,321,l),
(246,438,l),
(344,320,l),
(407,374,l),
(310,489,l),
(436,553,l),
(400,624,l),
(287,568,l),
(287,714,l),
(204,714,l),
(204,568,l),
(92,624,l),
(55,553,l),
(180,490,l),
(83,374,l)
);
}
);
width = 491;
},
{
layerId = m002;
shapes = (
{
closed = 1;
nodes = (
(273,489,l),
(215,489,l),
(350,330,l),
(402,374,l),
(268,533,l),
(256,480,l),
(431,562,l),
(403,624,l),
(238,548,l),
(279,522,l),
(279,712,l),
(211,712,l),
(211,519,l),
(252,545,l),
(86,622,l),
(58,561,l),
(232,480,l),
(220,533,l),
(86,374,l),
(138,330,l)
);
}
);
width = 489;
},
{
layerId = m003;
shapes = (
{
closed = 1;
nodes = (
(307,489,l),
(207,489,l),
(361,310,l),
(437,374,l),
(303,533,l),
(270,459,l),
(462,551,l),
(418,646,l),
(252,570,l),
(315,522,l),
(315,712,l),
(205,712,l),
(205,519,l),
(266,568,l),
(95,646,l),
(50,548,l),
(246,456,l),
(214,533,l),
(80,374,l),
(159,311,l)
);
}
);
width = 512;
}
);
unicode = 42;
},
{
glyphname = numbersign;
lastChange = "2024-10-21 04:20:59 +0000";
layers = (
{
hints = (
{
horizontal = 1;
origin = (1,3);
target = (1,2);
type = Stem;
},
{
horizontal = 1;
origin = (3,3);
target = (3,2);
type = Stem;
},
{
origin = (1,3);
target = (3,0);
type = Stem;
}
);
layerId = m01;
shapes = (
{
closed = 1;
nodes = (
(462,0,l),
(635,720,l),
(573,720,l),
(400,0,l)
);
},
{
closed = 1;
nodes = (
(649,183,l),
(648,239,l),
(74,239,l),
(75,183,l)
);
},
{
closed = 1;
nodes = (
(225,0,l),
(398,720,l),
(336,720,l),
(163,0,l)
);
},
{
closed = 1;
nodes = (
(713,482,l),
(713,538,l),
(139,538,l),
(139,482,l)
);
}
);
width = 787;
},
{
associatedMasterId = m01;
layerId = "21C28542-C2BA-4EFE-9B17-DE8F14164D30";
name = foreground;
shapes = (
{
closed = 1;
nodes = (
(227,0,l),
(400,720,l),
(306,720,l),
(133,0,l)
);
},
{
closed = 1;
nodes = (
(462,0,l),
(635,720,l),
(541,720,l),
(368,0,l)
);
},
{
closed = 1;
nodes = (
(707,425,l),
(707,523,l),
(133,523,l),
(133,425,l)
);
},
{
closed = 1;
nodes = (
(644,199,l),
(644,297,l),
(70,297,l),
(70,199,l)
);
}
);
width = 777;
},
{
layerId = m002;
shapes = (
{
closed = 1;
nodes = (
(460,0,l),
(633,720,l),
(560,720,l),
(387,0,l)
);
},
{
closed = 1;
nodes = (
(646,187,l),
(646,267,l),
(72,267,l),
(72,187,l)
);
},
{
closed = 1;
nodes = (
(232,0,l),
(405,720,l),
(332,720,l),
(159,0,l)
);
},
{
closed = 1;
nodes = (
(710,457,l),
(710,537,l),
(136,537,l),
(136,457,l)
);
}
);
width = 782;
},
{
layerId = m003;
shapes = (
{
closed = 1;
nodes = (
(509,0,l),
(682,720,l),
(548,720,l),
(375,0,l)
);
},
{
closed = 1;
nodes = (
(688,152,l),
(688,278,l),
(65,278,l),
(65,152,l)
);
},
{
closed = 1;
nodes = (
(257,0,l),
(430,720,l),
(296,720,l),
(123,0,l)
);
},
{
closed = 1;
nodes = (
(735,416,l),
(735,542,l),
(118,542,l),
(118,416,l)
);
}
);
width = 800;
}
);
unicode = 35;
},
{
glyphname = slash;
lastChange = "2025-01-01 03:23:16 +0000";
layers = (
{
guides = (
{
pos = (208,-160);
},
{
pos = (177,775);
}
);
layerId = m01;
shapes = (
{
closed = 1;
nodes = (
(82,-160,l),
(430,775,l),
(365,775,l),
(17,-160,l)
);
}
);
width = 438;
},
{
associatedMasterId = m01;
layerId = "B6C497E8-57DB-4813-80B4-1FC1C004D65A";
name = foreground;
shapes = (
{
closed = 1;
nodes = (
(97,0,l),
(390,720,l),
(303,720,l),
(10,0,l)
);
}
);
width = 385;
},
{
guides = (
{
pos = (-230,-160);
},
{
pos = (-230,776);
}
);
layerId = m002;
shapes = (
{
closed = 1;
nodes = (
(106,-160,l),
(459,776,l),
(369,776,l),
(16,-160,l)
);
}
);
width = 460;
},
{
guides = (
{
pos = (-242,-159);
},
{
pos = (6,775);
}
);
layerId = m003;
shapes = (
{
closed = 1;
nodes = (
(148,-161,l),
(502,775,l),
(362,775,l),
(8,-161,l)
);
}
);
width = 482;
}
);
unicode = 47;
},
{
glyphname = backslash;
lastChange = "2025-01-01 03:27:34 +0000";
layers = (
{
layerId = m01;
shapes = (
{
closed = 1;
nodes = (
(421,-160,l),
(73,775,l),
(8,775,l),
(356,-160,l)
);
}
);
width = 438;
},
{
associatedMasterId = m01;
layerId = "343D6EAE-1DF2-4E0E-B6B5-032545DCA862";
name = foreground;
shapes = (
{
closed = 1;
nodes = (
(82,720,l),
(-5,720,l),
(288,0,l),
(375,0,l)
);
}
);
width = 385;
},
{
layerId = m002;
shapes = (
{
closed = 1;
nodes = (
(444,-160,l),
(91,776,l),
(1,776,l),
(354,-160,l)
);
}
);
width = 460;
},
{
guides = (
{
pos = (-270,-159);
},
{
pos = (-22,775);
}
);
layerId = m003;
shapes = (
{
closed = 1;
nodes = (
(474,-161,l),
(120,775,l),
(-20,775,l),
(334,-161,l)
);
}
);
width = 482;
}
);
unicode = 92;
},
{
glyphname = periodcentered.loclCAT;
lastChange = "2024-09-05 20:47:01 +0000";
layers = (
{
layerId = m01;
shapes = (
{
closed = 1;
nodes = (
(157,257,o),
(178,279,o),
(178,303,cs),
(178,329,o),
(157,351,o),
(133,351,cs),
(107,351,o),
(85,329,o),
(85,303,cs),
(85,279,o),
(107,257,o),
(133,257,cs)
);
}
);
width = 263;
},
{
layerId = m002;
shapes = (
{
closed = 1;
nodes = (
(179,239,o),
(208,269,o),
(208,304,cs),
(208,340,o),
(179,370,o),
(144,370,cs),
(108,370,o),
(78,340,o),
(78,304,cs),
(78,269,o),
(108,239,o),
(144,239,cs)
);
}
);
width = 286;
},
{
layerId = m003;
shapes = (
{
closed = 1;
nodes = (
(215,217,o),
(256,257,o),
(256,307,cs),
(256,355,o),
(215,394,o),
(167,394,cs),
(118,394,o),
(77,355,o),
(77,307,cs),
(77,257,o),
(118,217,o),
(167,217,cs)
);
}
);
width = 333;
}
);
},
{
glyphname = periodcentered.loclCAT.case;
lastChange = "2024-09-02 03:26:04 +0000";
layers = (
{
layerId = m01;
shapes = (
{
closed = 1;
nodes = (
(157,257,o),
(178,279,o),
(178,303,cs),
(178,329,o),
(157,351,o),
(133,351,cs),
(107,351,o),
(85,329,o),
(85,303,cs),
(85,279,o),
(107,257,o),
(133,257,cs)
);
}
);
width = 263;
},
{
layerId = m002;
shapes = (
{
closed = 1;
nodes = (
(186,239,o),
(215,269,o),
(215,304,cs),
(215,340,o),
(186,370,o),
(151,370,cs),
(115,370,o),
(85,340,o),
(85,304,cs),
(85,269,o),
(115,239,o),
(151,239,cs)
);
}
);
width = 300;
},
{
layerId = m003;
shapes = (
{
closed = 1;
nodes = (
(215,217,o),
(256,257,o),
(256,307,cs),
(256,355,o),
(215,394,o),
(167,394,cs),
(118,394,o),
(77,355,o),
(77,307,cs),
(77,257,o),
(118,217,o),
(167,217,cs)
);
}
);
width = 333;
}
);
},
{
glyphname = hyphen;
lastChange = "2024-12-31 20:49:40 +0000";
layers = (
{
guides = (
{
pos = (259,296);
}
);
hints = (
{
horizontal = 1;
origin = (0,3);
target = (0,2);
type = Stem;
},
{
origin = (0,3);
target = (0,0);
type = Stem;
}
);
layerId = m01;
shapes = (
{
closed = 1;
nodes = (
(418,268,l),
(418,324,l),
(70,324,l),
(70,268,l)
);
}
);
width = 488;
},
{
associatedMasterId = m01;
layerId = "A4E3A6E5-E339-49A3-BA7C-5350A83F40F5";
name = foreground;
shapes = (
{
closed = 1;
nodes = (
(428,247,l),
(428,345,l),
(80,345,l),
(80,247,l)
);
}
);
width = 508;
},
{
guides = (
{
pos = (251,295);
}
);
layerId = m002;
shapes = (
{
closed = 1;
nodes = (
(418,253,l),
(418,337,l),
(70,337,l),
(70,253,l)
);
}
);
width = 488;
},
{
guides = (
{
pos = (251,295);
}
);
layerId = m003;
shapes = (
{
closed = 1;
nodes = (
(461,230,l),
(461,358,l),
(65,358,l),
(65,230,l)
);
}
);
width = 526;
}
);
unicode = 45;
},
{
glyphname = endash;
lastChange = "2024-12-31 20:49:55 +0000";
layers = (
{
layerId = m01;
shapes = (
{
closed = 1;
nodes = (
(484,270,l),
(484,322,l),
(70,322,l),
(70,270,l)
);
}
);
width = 554;
},
{
layerId = m002;
shapes = (
{
closed = 1;
nodes = (
(483,256,l),
(483,334,l),
(70,334,l),
(70,256,l)
);
}
);
width = 553;
},
{
layerId = m003;
shapes = (
{
closed = 1;
nodes = (
(517,236,l),
(517,352,l),
(65,352,l),
(65,236,l)
);
}
);
width = 582;
}
);
unicode = 8211;
},
{
glyphname = emdash;
lastChange = "2024-12-31 20:50:46 +0000";
layers = (
{
layerId = m01;
shapes = (
{
closed = 1;
nodes = (
(814,270,l),
(814,322,l),
(70,322,l),
(70,270,l)
);
}
);
width = 884;
},
{
layerId = m002;
shapes = (
{
closed = 1;
nodes = (
(816,254,l),
(816,332,l),
(71,332,l),
(71,254,l)
);
}
);
width = 886;
},
{
layerId = m003;
shapes = (
{
closed = 1;
nodes = (
(853,236,l),
(853,352,l),
(65,352,l),
(65,236,l)
);
}
);
width = 918;
}
);
unicode = 8212;
},
{
glyphname = underscore;
lastChange = "2024-08-26 01:53:25 +0000";
layers = (
{
hints = (
{
horizontal = 1;
origin = (0,3);
target = (0,2);
type = Stem;
},
{
origin = (0,3);
target = (0,0);
type = Stem;
}
);
layerId = m01;
shapes = (
{
closed = 1;
nodes = (
(456,0,l),
(456,52,l),
(-3,52,l),
(-3,0,l)
);
}
);
width = 453;
},
{
associatedMasterId = m01;
layerId = "1AB4D43C-2735-4A3F-815D-32BCD16357D5";
name = foreground;
shapes = (
{
closed = 1;
nodes = (
(546,0,l),
(546,98,l),
(60,98,l),
(60,0,l)
);
}
);
width = 606;
},
{
layerId = m002;
shapes = (
{
closed = 1;
nodes = (
(483,0,l),
(483,78,l),
(-3,78,l),
(-3,0,l)
);
}
);
width = 480;
},
{
layerId = m003;
shapes = (
{
closed = 1;
nodes = (
(532,0,l),
(532,116,l),
(-3,116,l),
(-3,0,l)
);
}
);
width = 529;
}
);
unicode = 95;
},
{
glyphname = parenleft;
lastChange = "2025-01-01 06:23:55 +0000";
layers = (
{
guides = (
{
pos = (183,-160);
},
{
pos = (152,775);
}
);
layerId = m01;
shapes = (
{
closed = 1;
nodes = (
(264,-160,l),
(267,-158,o),
(134,4,o),
(134,308,c),
(134,610,o),
(267,773,o),
(264,775,c),
(202,775,l),
(203,775,o),
(70,579,o),
(70,308,c),
(70,35,o),
(203,-160,o),
(203,-160,c)
);
}
);
width = 299;
},
{
associatedMasterId = m01;
layerId = "A003329C-BEC9-4397-9AAD-9155A5EADE70";
name = foreground;
shapes = (
{
closed = 1;
nodes = (
(62,109,o),
(172,-60,o),
(172,-60,c),
(280,-60,l),
(283,-58,o),
(163,82,o),
(163,345,c),
(163,607,o),
(283,748,o),
(280,750,c),
(172,750,l),
(172,750,o),
(62,580,o),
(62,345,c)
);
}
);
width = 313;
},
{
guides = (
{
pos = (-216,-160);
},
{
pos = (-216,776);
}
);
layerId = m002;
shapes = (
{
closed = 1;
nodes = (
(278,-160,l),
(281,-158,o),
(158,5,o),
(158,308,cs),
(158,610,o),
(281,774,o),
(278,776,c),
(194,776,l),
(194,776,o),
(70,580,o),
(70,308,cs),
(70,35,o),
(193,-160,o),
(193,-160,c)
);
}
);
width = 308;
},
{
guides = (
{
pos = (-314,-159);
},
{
pos = (-66,775);
}
);
layerId = m003;
shapes = (
{
closed = 1;
nodes = (
(326,-159,l),
(329,-157,o),
(198,4,o),
(198,309,c),
(198,611,o),
(328,773,o),
(325,775,c),
(186,775,l),
(186,775,o),
(48,579,o),
(48,309,c),
(48,36,o),
(187,-159,o),
(187,-159,c)
);
}
);
width = 394;
}
);
unicode = 40;
},
{
glyphname = parenright;
lastChange = "2024-11-22 04:51:58 +0000";
layers = (
{
layerId = m01;
shapes = (
{
closed = 1;
nodes = (
(96,-160,o),
(229,35,o),
(229,308,c),
(229,579,o),
(96,775,o),
(97,775,c),
(35,775,l),
(32,773,o),
(165,610,o),
(165,308,c),
(165,4,o),
(32,-158,o),
(35,-160,c),
(96,-160,l)
);
}
);
width = 299;
},
{
associatedMasterId = m01;
layerId = "FEA7CF8C-5847-4A35-8A6B-C76339FB953A";
name = foreground;
shapes = (
{
closed = 1;
nodes = (
(243,580,o),
(133,750,o),
(133,750,c),
(25,750,l),
(22,748,o),
(142,607,o),
(142,345,c),
(142,82,o),
(22,-58,o),
(25,-60,c),
(133,-60,l),
(133,-60,o),
(243,109,o),
(243,345,c)
);
}
);
width = 303;
},
{
layerId = m002;
shapes = (
{
closed = 1;
nodes = (
(115,-160,o),
(238,35,o),
(238,308,cs),
(238,580,o),
(114,776,o),
(114,776,c),
(30,776,l),
(27,774,o),
(150,610,o),
(150,308,cs),
(150,5,o),
(27,-158,o),
(30,-160,c),
(115,-160,l)
);
}
);
width = 308;
},
{
guides = (
{
pos = (-297,-159);
},
{
pos = (-49,775);
}
);
layerId = m003;
shapes = (
{
closed = 1;
nodes = (
(207,-159,o),
(346,36,o),
(346,309,c),
(346,579,o),
(208,775,o),
(208,775,c),
(69,775,l),
(66,773,o),
(196,611,o),
(196,309,c),
(196,4,o),
(65,-157,o),
(68,-159,c),
(207,-159,l)
);
}
);
width = 394;
}
);
unicode = 41;
},
{
glyphname = braceleft;
lastChange = "2025-01-01 06:26:25 +0000";
layers = (
{
guides = (
{
pos = (238,-160);
},
{
pos = (207,775);
}
);
layerId = m01;
shapes = (
{
closed = 1;
nodes = (
(337,-159,l),
(337,-105,l),
(278,-105,ls),
(230,-105,o),
(201,-77,o),
(201,-18,cs),
(201,205,ls),
(201,270,o),
(178,294,o),
(143,303,c),
(143,311,l),
(178,321,o),
(201,340,o),
(201,416,cs),
(201,634,ls),
(201,693,o),
(230,721,o),
(278,721,cs),
(337,721,l),
(337,775,l),
(271,775,ls),
(171,775,o),
(141,712,o),
(141,632,cs),
(141,416,ls),
(141,378,o),
(110,340,o),
(65,340,c),
(65,278,l),
(111,278,o),
(141,251,o),
(141,205,cs),
(141,-16,ls),
(141,-96,o),
(171,-159,o),
(271,-159,cs)
);
}
);
width = 370;
},
{
guides = (
{
pos = (-216,-160);
},
{
pos = (-216,776);
}
);
layerId = m002;
shapes = (
{
closed = 1;
nodes = (
(367,-159,l),
(367,-79,l),
(289,-79,ls),
(246,-79,o),
(219,-46,o),
(219,0,cs),
(219,209,ls),
(219,267,o),
(193,296,o),
(147,305,c),
(147,313,l),
(193,323,o),
(219,354,o),
(219,414,cs),
(219,616,ls),
(219,673,o),
(246,695,o),
(289,695,cs),
(367,695,l),
(367,775,l),
(272,775,ls),
(191,775,o),
(131,705,o),
(131,624,cs),
(131,444,ls),
(131,389,o),
(107,357,o),
(55,357,c),
(55,266,l),
(107,266,o),
(131,235,o),
(131,180,cs),
(131,-9,ls),
(131,-90,o),
(191,-159,o),
(272,-159,cs)
);
}
);
width = 400;
},
{
guides = (
{
pos = (-253,-159);
},
{
pos = (-5,775);
}
);
layerId = m003;
shapes = (
{
closed = 1;
nodes = (
(420,-159,l),
(420,-33,l),
(326,-33,ls),
(291,-33,o),
(272,0,o),
(272,40,cs),
(272,209,ls),
(272,267,o),
(241,296,o),
(195,305,c),
(195,313,l),
(241,323,o),
(272,354,o),
(272,414,cs),
(272,576,ls),
(272,626,o),
(291,649,o),
(326,649,cs),
(420,649,l),
(420,775,l),
(280,775,ls),
(197,775,o),
(132,703,o),
(132,622,cs),
(132,455,ls),
(132,400,o),
(108,376,o),
(56,376,c),
(56,246,l),
(108,246,o),
(132,223,o),
(132,168,cs),
(132,-6,ls),
(132,-87,o),
(197,-159,o),
(280,-159,cs)
);
}
);
width = 442;
}
);
unicode = 123;
},
{
glyphname = braceright;
lastChange = "2024-10-11 09:32:47 +0000";
layers = (
{
layerId = m01;
shapes = (
{
closed = 1;
nodes = (
(199,-159,o),
(229,-96,o),
(229,-16,cs),
(229,205,ls),
(229,251,o),
(259,277,o),
(305,277,c),
(305,342,l),
(260,342,o),
(229,378,o),
(229,416,cs),
(229,632,ls),
(229,712,o),
(199,775,o),
(99,775,cs),
(33,775,l),
(33,721,l),
(92,721,ls),
(140,721,o),
(169,693,o),
(169,634,cs),
(169,416,ls),
(169,340,o),
(192,321,o),
(227,311,c),
(227,303,l),
(192,294,o),
(169,270,o),
(169,205,cs),
(169,-18,ls),
(169,-77,o),
(140,-105,o),
(92,-105,cs),
(33,-105,l),
(33,-159,l),
(99,-159,ls)
);
}
);
width = 370;
},
{
layerId = m002;
shapes = (
{
closed = 1;
nodes = (
(209,-159,o),
(269,-90,o),
(269,-9,cs),
(269,180,ls),
(269,235,o),
(293,266,o),
(345,266,c),
(345,357,l),
(293,357,o),
(269,389,o),
(269,444,cs),
(269,624,ls),
(269,705,o),
(209,775,o),
(128,775,cs),
(33,775,l),
(33,695,l),
(111,695,ls),
(154,695,o),
(181,673,o),
(181,616,cs),
(181,414,ls),
(181,354,o),
(204,323,o),
(250,313,c),
(250,305,l),
(204,296,o),
(181,267,o),
(181,209,cs),
(181,0,ls),
(181,-46,o),
(154,-79,o),
(111,-79,cs),
(33,-79,l),
(33,-159,l),
(128,-159,ls)
);
}
);
width = 400;
},
{
guides = (
{
pos = (-373,-159);
},
{
pos = (-125,775);
}
);
layerId = m003;
shapes = (
{
closed = 1;
nodes = (
(245,-159,o),
(310,-87,o),
(310,-6,cs),
(310,168,ls),
(310,223,o),
(334,246,o),
(386,246,c),
(386,376,l),
(334,376,o),
(310,400,o),
(310,455,cs),
(310,622,ls),
(310,703,o),
(245,775,o),
(162,775,cs),
(22,775,l),
(22,649,l),
(116,649,ls),
(151,649,o),
(170,626,o),
(170,576,cs),
(170,414,ls),
(170,354,o),
(201,323,o),
(247,313,c),
(247,305,l),
(201,296,o),
(170,267,o),
(170,209,cs),
(170,40,ls),
(170,0,o),
(151,-33,o),
(116,-33,cs),
(22,-33,l),
(22,-159,l),
(162,-159,ls)
);
}
);
width = 442;
}
);
unicode = 125;
},
{
glyphname = bracketleft;
lastChange = "2025-01-01 06:30:26 +0000";
layers = (
{
guides = (
{
pos = (181,-160);
},
{
pos = (150,775);
}
);
layerId = m01;
shapes = (
{
closed = 1;
nodes = (
(315,-160,l),
(315,-104,l),
(160,-104,l),
(160,718,l),
(316,718,l),
(316,774,l),
(100,774,l),
(100,-160,l)
);
}
);
width = 356;
},
{
guides = (
{
pos = (-259,-160);
},
{
pos = (-259,776);
}
);
layerId = m002;
shapes = (
{
closed = 1;
nodes = (
(344,-160,l),
(344,-84,l),
(175,-84,l),
(175,700,l),
(345,700,l),
(345,775,l),
(95,775,l),
(95,-160,l)
);
}
);
width = 383;
},
{
guides = (
{
pos = (-305,-159);
}
);
layerId = m003;
shapes = (
{
closed = 1;
nodes = (
(406,-158,l),
(406,-32,l),
(230,-32,l),
(230,649,l),
(407,649,l),
(407,775,l),
(90,775,l),
(90,-158,l)
);
}
);
width = 439;
}
);
unicode = 91;
},
{
glyphname = bracketright;
lastChange = "2024-09-09 06:30:31 +0000";
layers = (
{
layerId = m01;
shapes = (
{
closed = 1;
nodes = (
(256,774,l),
(40,774,l),
(40,718,l),
(196,718,l),
(196,-104,l),
(41,-104,l),
(41,-160,l),
(256,-160,l)
);
}
);
width = 356;
},
{
guides = (
{
pos = (-259,-160);
},
{
pos = (-259,776);
}
);
layerId = m002;
shapes = (
{
closed = 1;
nodes = (
(345,775,l),
(95,775,l),
(95,700,l),
(265,700,l),
(265,-84,l),
(96,-84,l),
(96,-160,l),
(345,-160,l)
);
}
);
width = 383;
},
{
guides = (
{
pos = (-305,-159);
},
{
pos = (-57,750);
}
);
layerId = m003;
shapes = (
{
closed = 1;
nodes = (
(408,775,l),
(91,775,l),
(91,649,l),
(268,649,l),
(268,-32,l),
(92,-32,l),
(92,-158,l),
(408,-158,l)
);
}
);
width = 439;
}
);
unicode = 93;
},
{
glyphname = quotedblleft;
kernLeft = quoteleft;
kernRight = quoteleft;
lastChange = "2025-01-01 03:29:03 +0000";
layers = (
{
layerId = m01;
shapes = (
{
closed = 1;
nodes = (
(96,712,o),
(60,655,o),
(60,593,cs),
(60,558,o),
(82,532,o),
(116,532,cs),
(141,532,o),
(162,557,o),
(162,582,c),
(162,606,o),
(141,627,o),
(116,627,cs),
(115,627,o),
(111,627,o),
(110,627,c),
(110,678,o),
(162,689,o),
(162,689,c),
(162,689,o),
(163,712,o),
(162,712,cs)
);
},
{
closed = 1;
nodes = (
(234,712,o),
(198,655,o),
(198,593,cs),
(198,558,o),
(220,532,o),
(254,532,cs),
(279,532,o),
(300,557,o),
(300,582,cs),
(300,606,o),
(279,627,o),
(254,627,cs),
(253,627,o),
(249,627,o),
(248,627,c),
(248,678,o),
(300,689,o),
(300,689,c),
(300,689,o),
(301,712,o),
(300,712,cs)
);
}
);
width = 361;
},
{
layerId = m002;
shapes = (
{
closed = 1;
nodes = (
(90,720,o),
(54,627,o),
(53,563,c),
(53,525,o),
(74,482,o),
(126,482,cs),
(160,482,o),
(188,515,o),
(188,548,cs),
(188,580,o),
(159,608,o),
(128,608,cs),
(126,608,o),
(122,608,o),
(119,607,c),
(119,675,o),
(188,690,o),
(188,690,c),
(188,690,o),
(189,720,o),
(188,720,cs)
);
},
{
closed = 1;
nodes = (
(278,720,o),
(242,627,o),
(241,563,c),
(241,525,o),
(262,482,o),
(314,482,cs),
(348,482,o),
(376,515,o),
(376,548,cs),
(376,580,o),
(347,608,o),
(316,608,cs),
(314,608,o),
(310,608,o),
(307,607,c),
(307,675,o),
(376,690,o),
(376,690,c),
(376,690,o),
(377,720,o),
(376,720,cs)
);
}
);
width = 432;
},
{
layerId = m003;
shapes = (
{
closed = 1;
nodes = (
(97,721,o),
(50,598,o),
(50,519,cs),
(50,471,o),
(76,417,o),
(141,417,cs),
(187,417,o),
(221,459,o),
(221,501,cs),
(221,540,o),
(185,575,o),
(144,575,cs),
(140,575,o),
(135,575,o),
(132,574,c),
(132,660,o),
(221,678,o),
(221,678,c),
(221,678,o),
(222,721,o),
(221,721,cs)
);
},
{
closed = 1;
nodes = (
(300,721,o),
(253,598,o),
(253,519,cs),
(253,471,o),
(279,417,o),
(344,417,cs),
(390,417,o),
(424,459,o),
(424,501,cs),
(424,540,o),
(388,575,o),
(347,575,cs),
(343,575,o),
(338,575,o),
(335,574,c),
(335,660,o),
(424,678,o),
(424,678,c),
(424,678,o),
(425,721,o),
(424,721,cs)
);
}
);
width = 467;
}
);
unicode = 8220;
},
{
glyphname = quotedblright;
kernLeft = quoteright;
kernRight = quoteright;
lastChange = "2024-12-31 22:56:55 +0000";
layers = (
{
layerId = m01;
shapes = (
{
closed = 1;
nodes = (
(265,532,o),
(301,589,o),
(301,651,cs),
(301,686,o),
(279,712,o),
(245,712,cs),
(220,712,o),
(199,687,o),
(199,662,c),
(199,638,o),
(220,617,o),
(245,617,cs),
(246,617,o),
(250,617,o),
(251,617,c),
(251,566,o),
(199,555,o),
(199,555,c),
(199,555,o),
(199,532,o),
(199,532,cs)
);
},
{
closed = 1;
nodes = (
(131,532,o),
(167,589,o),
(167,651,cs),
(167,686,o),
(145,712,o),
(111,712,cs),
(86,712,o),
(65,687,o),
(65,662,cs),
(65,638,o),
(86,617,o),
(111,617,cs),
(112,617,o),
(116,617,o),
(117,617,c),
(117,566,o),
(65,555,o),
(65,555,c),
(65,555,o),
(64,532,o),
(65,532,cs)
);
}
);
width = 361;
},
{
layerId = m002;
shapes = (
{
closed = 1;
nodes = (
(340,482,o),
(376,575,o),
(377,639,c),
(377,677,o),
(356,720,o),
(304,720,cs),
(270,720,o),
(242,687,o),
(242,654,cs),
(242,622,o),
(271,594,o),
(302,594,cs),
(304,594,o),
(308,594,o),
(311,595,c),
(311,527,o),
(242,512,o),
(242,512,c),
(242,512,o),
(241,482,o),
(242,482,cs)
);
},
{
closed = 1;
nodes = (
(152,482,o),
(188,575,o),
(189,639,c),
(189,677,o),
(168,720,o),
(116,720,cs),
(82,720,o),
(54,687,o),
(54,654,cs),
(54,622,o),
(83,594,o),
(114,594,cs),
(116,594,o),
(120,594,o),
(123,595,c),
(123,527,o),
(54,512,o),
(54,512,c),
(54,512,o),
(53,482,o),
(54,482,cs)
);
}
);
width = 432;
},
{
layerId = m003;
shapes = (
{
closed = 1;
nodes = (
(372,417,o),
(419,540,o),
(419,619,cs),
(419,667,o),
(393,721,o),
(328,721,cs),
(282,721,o),
(248,679,o),
(248,637,cs),
(248,598,o),
(284,563,o),
(325,563,cs),
(329,563,o),
(334,563,o),
(337,564,c),
(337,478,o),
(248,460,o),
(248,460,c),
(248,460,o),
(247,417,o),
(248,417,cs)
);
},
{
closed = 1;
nodes = (
(169,417,o),
(216,540,o),
(216,619,cs),
(216,667,o),
(190,721,o),
(125,721,cs),
(79,721,o),
(45,679,o),
(45,637,cs),
(45,598,o),
(81,563,o),
(122,563,cs),
(126,563,o),
(131,563,o),
(134,564,c),
(134,478,o),
(45,460,o),
(45,460,c),
(45,460,o),
(44,417,o),
(45,417,cs)
);
}
);
width = 469;
}
);
unicode = 8221;
},
{
glyphname = quoteleft;
kernLeft = quoteleft;
kernRight = quoteleft;
lastChange = "2025-01-01 06:09:33 +0000";
layers = (
{
layerId = m01;
shapes = (
{
closed = 1;
nodes = (
(141,540,o),
(162,565,o),
(162,590,c),
(162,614,o),
(141,635,o),
(116,635,cs),
(115,635,o),
(111,635,o),
(110,635,c),
(110,686,o),
(162,697,o),
(162,697,c),
(162,697,o),
(163,720,o),
(162,720,cs),
(96,720,o),
(60,663,o),
(60,601,cs),
(60,566,o),
(82,540,o),
(116,540,cs)
);
}
);
width = 212;
},
{
layerId = m002;
shapes = (
{
closed = 1;
nodes = (
(152,482,o),
(180,515,o),
(180,548,cs),
(180,580,o),
(151,608,o),
(120,608,cs),
(118,608,o),
(114,608,o),
(111,607,c),
(111,675,o),
(180,690,o),
(180,690,c),
(180,690,o),
(181,720,o),
(180,720,cs),
(82,720,o),
(46,627,o),
(45,563,c),
(45,525,o),
(66,482,o),
(118,482,cs)
);
}
);
width = 244;
},
{
layerId = m003;
shapes = (
{
closed = 1;
nodes = (
(180,416,o),
(214,458,o),
(214,500,cs),
(214,539,o),
(178,574,o),
(137,574,cs),
(133,574,o),
(128,574,o),
(125,573,c),
(125,659,o),
(214,677,o),
(214,677,c),
(214,677,o),
(215,720,o),
(214,720,cs),
(90,720,o),
(43,597,o),
(43,518,cs),
(43,470,o),
(69,416,o),
(134,416,cs)
);
}
);
width = 264;
}
);
unicode = 8216;
},
{
glyphname = quoteright;
kernLeft = quoteright;
kernRight = quoteright;
lastChange = "2025-01-01 06:20:34 +0000";
layers = (
{
layerId = m01;
shapes = (
{
closed = 1;
nodes = (
(116,532,o),
(152,589,o),
(152,651,cs),
(152,686,o),
(130,712,o),
(96,712,cs),
(71,712,o),
(50,687,o),
(50,662,c),
(50,638,o),
(71,617,o),
(96,617,cs),
(97,617,o),
(101,617,o),
(102,617,c),
(102,566,o),
(50,555,o),
(50,555,c),
(50,555,o),
(49,532,o),
(50,532,cs)
);
}
);
width = 212;
},
{
layerId = m002;
shapes = (
{
closed = 1;
nodes = (
(156,482,o),
(192,575,o),
(193,639,c),
(193,677,o),
(172,720,o),
(120,720,cs),
(86,720,o),
(58,687,o),
(58,654,cs),
(58,622,o),
(87,594,o),
(118,594,cs),
(120,594,o),
(124,594,o),
(127,595,c),
(127,527,o),
(58,512,o),
(58,512,c),
(58,512,o),
(57,482,o),
(58,482,cs)
);
}
);
width = 244;
},
{
layerId = m003;
shapes = (
{
closed = 1;
nodes = (
(174,417,o),
(221,540,o),
(221,619,cs),
(221,667,o),
(195,721,o),
(130,721,cs),
(84,721,o),
(50,679,o),
(50,637,cs),
(50,598,o),
(86,563,o),
(127,563,cs),
(131,563,o),
(136,563,o),
(139,564,c),
(139,478,o),
(50,460,o),
(50,460,c),
(50,460,o),
(49,417,o),
(50,417,cs)
);
}
);
width = 264;
}
);
unicode = 8217;
},
{
glyphname = guillemetleft;
lastChange = "2024-11-09 02:52:13 +0000";
layers = (
{
layerId = m01;
shapes = (
{
closed = 1;
nodes = (
(633,99,l),
(347,291,l),
(347,283,l),
(633,475,l),
(633,545,l),
(306,326,l),
(306,250,l),
(633,31,l)
);
},
{
closed = 1;
nodes = (
(377,99,l),
(91,291,l),
(91,283,l),
(377,475,l),
(377,545,l),
(50,326,l),
(50,250,l),
(377,31,l)
);
}
);
width = 693;
},
{
layerId = m002;
shapes = (
{
closed = 1;
nodes = (
(631,120,l),
(345,312,l),
(345,262,l),
(631,454,l),
(631,544,l),
(304,325,l),
(304,249,l),
(631,30,l)
);
},
{
closed = 1;
nodes = (
(375,121,l),
(89,313,l),
(89,263,l),
(375,455,l),
(375,545,l),
(48,326,l),
(48,250,l),
(375,31,l)
);
}
);
width = 687;
},
{
layerId = m003;
shapes = (
{
closed = 1;
nodes = (
(674,145,l),
(388,337,l),
(388,240,l),
(674,432,l),
(674,571,l),
(347,352,l),
(347,222,l),
(674,3,l)
);
},
{
closed = 1;
nodes = (
(372,145,l),
(86,337,l),
(86,240,l),
(372,432,l),
(372,571,l),
(45,352,l),
(45,222,l),
(372,3,l)
);
}
);
width = 715;
}
);
unicode = 171;
},
{
glyphname = guillemetright;
lastChange = "2024-11-22 04:53:25 +0000";
layers = (
{
layerId = m01;
shapes = (
{
closed = 1;
nodes = (
(643,250,l),
(643,326,l),
(316,545,l),
(316,475,l),
(602,283,l),
(602,291,l),
(316,99,l),
(316,31,l)
);
},
{
closed = 1;
nodes = (
(387,250,l),
(387,326,l),
(60,545,l),
(60,475,l),
(346,283,l),
(346,291,l),
(60,99,l),
(60,31,l)
);
}
);
width = 693;
},
{
layerId = m002;
shapes = (
{
closed = 1;
nodes = (
(639,250,l),
(639,326,l),
(312,545,l),
(312,455,l),
(598,263,l),
(598,313,l),
(312,121,l),
(312,31,l)
);
},
{
closed = 1;
nodes = (
(383,249,l),
(383,325,l),
(56,544,l),
(56,454,l),
(342,262,l),
(342,312,l),
(56,120,l),
(56,30,l)
);
}
);
width = 687;
},
{
layerId = m003;
shapes = (
{
closed = 1;
nodes = (
(674,222,l),
(674,352,l),
(347,571,l),
(347,432,l),
(633,240,l),
(633,337,l),
(347,145,l),
(347,3,l)
);
},
{
closed = 1;
nodes = (
(372,222,l),
(372,352,l),
(45,571,l),
(45,432,l),
(331,240,l),
(331,337,l),
(45,145,l),
(45,3,l)
);
}
);
width = 715;
}
);
unicode = 187;
},
{
glyphname = guilsinglleft;
lastChange = "2024-10-21 04:23:00 +0000";
layers = (
{
layerId = m01;
shapes = (
{
closed = 1;
nodes = (
(347,100,l),
(88,294,l),
(88,281,l),
(347,475,l),
(347,545,l),
(50,326,l),
(50,250,l),
(347,31,l)
);
}
);
width = 407;
},
{
layerId = m002;
shapes = (
{
closed = 1;
nodes = (
(345,121,l),
(86,315,l),
(86,261,l),
(345,455,l),
(345,545,l),
(48,326,l),
(48,250,l),
(345,31,l)
);
}
);
width = 401;
},
{
layerId = m003;
shapes = (
{
closed = 1;
nodes = (
(371,145,l),
(85,337,l),
(85,240,l),
(371,432,l),
(371,571,l),
(44,352,l),
(44,222,l),
(371,3,l)
);
}
);
width = 421;
}
);
unicode = 8249;
},
{
glyphname = guilsinglright;
lastChange = "2024-10-21 04:23:00 +0000";
layers = (
{
layerId = m01;
shapes = (
{
closed = 1;
nodes = (
(357,250,l),
(357,326,l),
(60,545,l),
(60,475,l),
(319,281,l),
(319,294,l),
(60,100,l),
(60,31,l)
);
}
);
width = 407;
},
{
layerId = m002;
shapes = (
{
closed = 1;
nodes = (
(353,250,l),
(353,326,l),
(56,545,l),
(56,455,l),
(315,261,l),
(315,315,l),
(56,121,l),
(56,31,l)
);
}
);
width = 401;
},
{
layerId = m003;
shapes = (
{
closed = 1;
nodes = (
(371,222,l),
(371,352,l),
(44,571,l),
(44,432,l),
(330,240,l),
(330,337,l),
(44,145,l),
(44,3,l)
);
}
);
width = 421;
}
);
unicode = 8250;
},
{
glyphname = quotedbl;
lastChange = "2024-11-21 10:01:53 +0000";
layers = (
{
layerId = m01;
shapes = (
{
closed = 1;
nodes = (
(298,490,l),
(305,519,o),
(336,635,o),
(336,667,c),
(336,699,o),
(313,720,o),
(286,720,cs),
(257,720,o),
(234,699,o),
(234,667,c),
(234,635,o),
(266,519,o),
(273,490,c)
);
},
{
closed = 1;
nodes = (
(149,490,l),
(156,519,o),
(187,635,o),
(187,667,c),
(187,699,o),
(164,720,o),
(137,720,cs),
(108,720,o),
(85,699,o),
(85,667,c),
(85,635,o),
(117,519,o),
(124,490,c)
);
}
);
width = 421;
},
{
associatedMasterId = m01;
layerId = "24C34471-2878-49D9-AC64-055C689381E7";
name = foreground;
shapes = (
{
closed = 1;
nodes = (
(354,459,l),
(387,579,o),
(401,624,o),
(401,651,cs),
(401,689,o),
(371,721,o),
(335,721,cs),
(298,721,o),
(266,689,o),
(266,651,cs),
(266,625,o),
(280,579,o),
(314,459,c)
);
},
{
closed = 1;
nodes = (
(153,459,l),
(186,579,o),
(200,624,o),
(200,651,cs),
(200,689,o),
(170,721,o),
(134,721,cs),
(97,721,o),
(65,689,o),
(65,651,cs),
(65,625,o),
(79,579,o),
(113,459,c)
);
}
);
width = 473;
},
{
layerId = m002;
shapes = (
{
closed = 1;
nodes = (
(320,465,l),
(328,499,o),
(364,621,o),
(364,658,c),
(364,696,o),
(337,720,o),
(306,720,cs),
(273,720,o),
(246,696,o),
(246,658,c),
(246,621,o),
(283,499,o),
(291,465,c)
);
},
{
closed = 1;
nodes = (
(154,465,l),
(162,499,o),
(198,621,o),
(198,658,c),
(198,696,o),
(171,720,o),
(140,720,cs),
(107,720,o),
(80,696,o),
(80,658,c),
(80,621,o),
(117,499,o),
(125,465,c)
);
}
);
width = 444;
},
{
layerId = m003;
shapes = (
{
closed = 1;
nodes = (
(422,401,l),
(434,449,o),
(486,579,o),
(486,632,c),
(486,687,o),
(447,721,o),
(402,721,cs),
(356,721,o),
(317,687,o),
(317,632,c),
(317,579,o),
(371,449,o),
(381,401,c)
);
},
{
closed = 1;
nodes = (
(186,401,l),
(197,449,o),
(249,579,o),
(249,632,c),
(249,687,o),
(210,721,o),
(167,721,cs),
(119,721,o),
(80,687,o),
(80,632,c),
(80,579,o),
(134,449,o),
(145,401,c)
);
}
);
width = 566;
}
);
unicode = 34;
},
